<svg width="12" height="21" viewBox="0 0 12 21" fill="none" xmlns="http://www.w3.org/2000/svg">
<path d="M11.2141 9.91127C10.1216 9.31887 9.19395 8.53787 8.48894 7.62043C7.78393 6.70333 7.32216 5.67052 7.1325 4.59177L6.47286 0.861215C6.44812 0.775896 6.39039 0.699562 6.30793 0.643603C6.22548 0.587645 6.12243 0.554829 6.01935 0.550338C5.91216 0.548956 5.8091 0.579351 5.72252 0.636346C5.64006 0.692995 5.58646 0.772787 5.56585 0.861215L4.9062 4.59177C4.70831 5.67294 4.23827 6.70644 3.52914 7.62354C2.81588 8.54063 1.88003 9.32059 0.783352 9.91127L0.206143 10.2221C0.1443 10.2581 0.0948357 10.3044 0.0618528 10.3582C0.0247472 10.4118 0.00412285 10.4715 0 10.533C0 10.5952 0.0206203 10.6556 0.057726 10.7099C0.0907088 10.7641 0.1443 10.8101 0.206143 10.8439L0.783352 11.1548C1.88415 11.7527 2.82 12.5389 3.52914 13.4615C4.23827 14.3845 4.70831 15.4232 4.9062 16.5088L5.56585 20.2394C5.58646 20.3278 5.64006 20.4076 5.72252 20.4646C5.8091 20.5212 5.91216 20.5516 6.01935 20.5502C6.12243 20.5458 6.22548 20.5129 6.30793 20.4573C6.39039 20.4014 6.44812 20.325 6.47286 20.2394L7.1325 16.5088C7.32216 15.4252 7.78393 14.3876 8.48894 13.4646C9.18982 12.5416 10.1216 11.7544 11.2141 11.1548L11.8326 10.8439C11.8903 10.8083 11.9357 10.7613 11.9645 10.7068C11.9934 10.6522 12.0057 10.5924 11.9975 10.533C12.0016 10.474 11.9893 10.4152 11.9604 10.3613C11.9315 10.3075 11.8862 10.2598 11.8326 10.2221L11.2141 9.91127Z" fill="#5865F2"/>
</svg>
