<svg width="265" height="90" viewBox="0 0 265 90" fill="none" xmlns="http://www.w3.org/2000/svg">
<path d="M252.076 89.3328C253.959 89.353 255.826 88.9563 257.536 88.171C259.246 87.385 260.761 86.23 261.976 84.7885C263.184 83.3478 264.061 81.6558 264.541 79.8348C265.021 78.0138 265.096 76.1095 264.751 74.2578C261.158 54.8748 251.349 37.1883 236.821 23.8683C222.286 10.5483 203.814 2.31852 184.194 0.421766C164.566 -1.47573 144.863 3.06326 128.048 13.3525C111.233 23.6418 98.221 39.1225 90.976 57.4578C84.271 56.011 77.431 55.2813 70.576 55.2828C57.3985 55.261 44.356 57.9918 32.296 63.2995C20.236 68.6073 9.41346 76.3758 0.525962 86.1078C0.285962 86.3875 0.12848 86.7295 0.0759805 87.0948C0.0159805 87.46 0.0685281 87.8335 0.218528 88.1718C0.368528 88.5093 0.608477 88.798 0.915977 89.0035C1.22348 89.209 1.58348 89.323 1.95098 89.3328H252.076Z" fill="#A5ABE9"/>
</svg>
