<svg width="1920" height="860" viewBox="0 0 1920 860" fill="none" xmlns="http://www.w3.org/2000/svg">
<g clip-path="url(#clip0_356_630)">
<path d="M1395.91 178.253C1409.72 167.369 1435.97 206.835 1450.05 187.417C1466.25 165.077 1411.31 102.066 1344.96 24.7338C1306.34 -20.2807 1278.03 -134.424 1262.16 -105.869C1239.86 -65.7707 1284.63 -5.5839 1269.59 56.8133C1256.58 110.793 1189.19 128.715 1205.36 181.69C1222.82 238.874 1302.5 218.923 1342.84 239.545C1383.18 260.167 1397.51 328.906 1425.64 308.284C1453.77 287.663 1377.69 192.629 1395.91 178.253Z" stroke="#F7F7FD" stroke-width="2"/>
<path d="M876.994 966.962C861.274 974.204 843.946 929.36 826.168 944.848C805.714 962.666 846.066 1037.43 894.53 1128.93C922.74 1182.19 926.446 1300.28 947.883 1276.33C977.986 1242.7 946.965 1173.16 974.665 1116.04C998.627 1066.62 1068.02 1065.57 1063.35 1010.03C1058.3 950.065 976.506 950.095 941.52 920.179C906.534 890.264 906.948 819.808 875.23 833.046C843.512 846.284 897.759 957.397 876.994 966.962Z" stroke="#F7F7FD" stroke-width="2"/>
<path d="M80.6385 248.712C93.2354 238.766 118.741 273.331 131.594 255.586C146.38 235.171 89.3672 182.801 28.8057 112.133C-6.44688 70.9971 -12.5801 -37.6343 -37.1949 -22.8081C-60.0185 -9.06085 -25.5177 69.9896 -44.6259 97.4853C-54.762 112.071 -84.3703 27.977 -95.0501 45.9308C-103.545 60.2109 -100.889 104.932 -89.7422 158.205C-86.4855 184.417 -86.816 215.102 -83.9037 224.653C-67.9698 276.91 -4.48397 288.295 32.3374 307.14C69.1589 325.985 80.9687 392.433 106.647 373.588C132.325 354.743 63.999 261.85 80.6385 248.712Z" stroke="#F7F7FD" stroke-width="2"/>
<path d="M1124.66 452.826C1139.65 438.392 1144.1 352.622 1117.25 351.82C1096.06 351.188 1074.34 385.139 1077.98 418.268C1081.68 452.03 1106.19 470.611 1124.66 452.826Z" stroke="#F7F7FD" stroke-width="2"/>
<path d="M1459.15 476.871C1468.5 463.811 1450.94 414.402 1428.94 423.038C1411.57 429.856 1409.94 453.596 1419.44 470.706C1429.13 488.144 1447.64 492.963 1459.15 476.871Z" stroke="#F7F7FD" stroke-width="2"/>
<path d="M353.991 -145.394C391.783 -217.044 269.066 -341.873 309.405 -361.922C349.745 -381.971 403.884 -274.44 442.101 -293.756C480.317 -313.073 439.977 -369.162 469.701 -379.108C499.425 -389.053 538.703 -308.651 538.703 -264.542C538.703 -220.433 468.137 -234.469 435.2 -199.811C410.8 -174.136 426.003 -127.384 422.992 -86.3928C418.324 -22.8284 387.334 30.5588 361.953 25.3085C336.571 20.0583 340.577 -5.45187 332.229 -27.3916C322.319 -53.4376 298.242 -69.0487 304.628 -99.5678C311.186 -130.909 338.687 -116.38 353.991 -145.394Z" stroke="#F7F7FD" stroke-width="2"/>
<path d="M1388.43 846.01C1382.05 856.312 1406.3 888.17 1397.08 910.107C1387.85 932.045 1372.29 948.451 1378.05 963.902C1383.82 979.354 1433.97 981.431 1467.4 997.095C1500.84 1012.76 1506.64 1043.77 1537.16 1037.16C1569.48 1030.15 1549.84 990.229 1578.08 966.192C1606.33 942.155 1622 959.861 1638.61 940.439C1671.47 902.031 1614.98 836.787 1585 829.986C1555.03 823.185 1533.12 840.288 1491.04 846.01C1462.71 849.862 1403.41 821.835 1388.43 846.01Z" stroke="#F7F7FD" stroke-width="2"/>
<path d="M82.9701 879.234C77.609 889.536 97.9781 921.393 90.232 943.331C82.4859 965.269 69.4143 981.674 74.2557 997.126C79.0971 1012.58 121.216 1014.65 149.296 1030.32C177.376 1045.98 182.246 1077 207.876 1070.38C235.026 1063.37 218.527 1023.45 242.249 999.416C265.972 975.379 279.128 993.084 293.083 973.662C320.679 935.255 273.234 870.011 248.059 863.21C222.884 856.409 204.487 873.512 169.145 879.234C145.356 883.086 95.5514 855.059 82.9701 879.234Z" stroke="#F7F7FD" stroke-width="2"/>
<path d="M606.643 401.083C648.92 464.668 662.906 535.699 614.604 586.108C594.562 607.025 557.28 558.612 539.764 532.26C497.738 481.694 453.927 416.048 465.986 381.606C491.586 308.487 580.853 362.295 606.643 401.083Z" stroke="#F7F7FD" stroke-width="2"/>
<path d="M550.629 -21.9308C501.697 -28.4045 477.132 -67.9003 477.132 -120.19C477.132 -183.773 525.972 -140.842 573.204 -145.968C621.488 -151.207 660.824 -156.987 665.56 -129.928C676.249 -68.8471 591.132 -16.5722 550.629 -21.9308Z" stroke="#F7F7FD" stroke-width="2"/>
<path d="M632.651 53.3772C630.427 74.9758 619.849 90.0816 599.743 88.893C588.188 88.2099 579.94 64.5945 582.227 42.4941C584.669 18.9004 598.396 -3.28668 609.297 -4.47763C633.387 -7.10959 634.774 32.7551 632.651 53.3772Z" stroke="#F7F7FD" stroke-width="2"/>
<path d="M1793.47 12.1337C1833.7 -10.5015 1778.83 -66.7915 1812.05 -100.141C1841.24 -129.448 1964.15 8.12423 1940.5 39.6295C1914.62 74.0926 1890.79 38.5407 1859.82 67.698C1814.99 109.899 1873.72 187.902 1823.19 221.789C1755.42 267.248 1603.43 148.723 1661.84 90.0383C1677.23 74.5719 1719.95 136.646 1745.17 107.796C1774.88 73.7962 1686.01 26.7406 1719.16 -3.3326C1745.87 -27.5645 1762.53 29.5433 1793.47 12.1337Z" stroke="#F7F7FD" stroke-width="2"/>
<path d="M442.348 94.121C478.86 73.6006 429.06 22.5697 459.208 -7.66351C485.703 -34.2331 569.111 73.4212 555.688 107.223C542.949 139.302 505.264 129.564 493.056 159.924C471.574 213.346 511.571 247.941 469.324 284.188C398.511 344.946 279.151 216.06 315.775 171.952C328.507 156.619 384.608 213.539 398.511 180.846C413.969 144.494 344.819 107.363 374.906 80.0997C399.149 58.1317 414.265 109.904 442.348 94.121Z" stroke="#F7F7FD" stroke-width="2"/>
<path d="M1539.23 -5.62283C1561.57 -25.8818 1607.7 27.1282 1619.37 -14.2153C1636.36 -74.3618 1555.36 -66.5887 1485.62 -113.887C1433.44 -149.273 1374.68 -213.315 1337.53 -191.22C1233.5 -129.352 1539.23 223.507 1602.92 143.885C1625.37 115.816 1499.42 30.4653 1539.23 -5.62283Z" stroke="#F7F7FD" stroke-width="2"/>
<path d="M206.603 73.4094C228.162 57.0297 265.899 108.577 279.356 72.3318C298.933 19.6025 225.475 19.872 166.071 -28.4959C121.628 -64.6819 73.312 -127.209 38.2936 -110.406C-59.7573 -63.3571 190.262 279.658 253.271 213.277C275.483 189.876 168.198 102.587 206.603 73.4094Z" stroke="#F7F7FD" stroke-width="2"/>
<path d="M815.771 692.078C851.864 682.34 807.809 541.998 835.94 520.804C864.072 499.609 906.004 606.728 919.273 646.826C933.829 690.812 942.097 779.723 929.889 791.75C908.127 810.656 877.899 743.502 840.187 754.517C793.833 768.055 838.594 839.868 791.886 871.373C747.385 890.853 706.551 818.267 677.237 748.215C662.375 712.7 644.328 613.304 670.337 606.727C703.776 598.271 708.022 700.097 735.623 687.495C763.223 674.893 703.543 610.868 735.623 583.241C763.754 559.014 779.678 701.817 815.771 692.078Z" stroke="#F7F7FD" stroke-width="2"/>
<path d="M1117.25 642.816C1113.57 592.366 1156.75 531.105 1113.54 512.785C1068.95 493.882 1057.28 617.614 1039.23 665.157C1030.42 688.357 1002.33 670.375 985.621 708.691C964.39 757.382 995.175 963.027 1044.01 937.823C1096.55 910.701 1028.79 806.5 1078.51 761.965C1100.25 742.49 1111.75 758.756 1127.34 733.323C1146.36 702.281 1119.97 679.918 1117.25 642.816Z" stroke="#F7F7FD" stroke-width="2"/>
<path d="M703.323 898.586C669.032 864.004 667.557 783.201 619.822 804.736C570.567 826.957 637.204 928.648 651.383 978.763C658.302 1003.22 623.512 1012.7 633.116 1054.85C645.32 1108.41 798.369 1236.55 823.94 1178.01C851.456 1115.02 729.948 1092.57 744.317 1018.9C750.6 986.691 770.348 989.443 767.763 957.803C764.608 919.185 728.543 924.018 703.323 898.586Z" stroke="#F7F7FD" stroke-width="2"/>
<path d="M1469.69 572.36C1426.47 526.61 1398.83 440.935 1350.8 480.707C1311.66 513.117 1381.4 560.389 1350.8 602.147C1316.37 649.119 1249.95 530.543 1185.73 583.243C1148.84 613.508 1209.73 696.801 1265.03 740.771C1362.49 818.273 1576.06 785.165 1576.06 688.071C1576.06 634.798 1516.44 621.839 1469.69 572.36Z" stroke="#F7F7FD" stroke-width="2"/>
<path d="M151.206 622.012C112.591 577.345 87.8916 493.698 44.979 532.529C10.0098 564.172 72.3228 610.325 44.979 651.094C14.2208 696.954 -45.1241 581.185 -102.506 632.638C-135.459 662.187 -81.0595 743.508 -31.6545 786.437C55.427 862.104 246.242 829.779 246.242 734.984C246.242 682.972 192.968 670.32 151.206 622.012Z" stroke="#F7F7FD" stroke-width="2"/>
<path d="M1911.23 865.691C1885.35 813.005 1850.22 741.52 1818.12 756.204C1776.83 775.087 1854.36 837.562 1818.12 867.157C1777.35 900.448 1701.28 776.425 1650.5 776.425C1612.53 776.425 1678.61 921.48 1715.32 975.894C1780.03 1071.8 1951.69 1087.67 1975.08 999.953C1987.91 951.824 1940.02 924.276 1911.95 867.157L1911.23 865.691Z" stroke="#F7F7FD" stroke-width="2"/>
<path d="M528.087 885.695C505.543 843.278 491.465 790.204 464.393 801.49C429.903 815.869 487.93 876.159 457.832 899.138C423.975 924.987 358.307 825.144 315.584 824.354C283.627 823.763 316.533 892.818 348.152 936.675C403.884 1013.98 428.3 1014.58 486.155 1000.83C522.019 992.309 552.468 931.57 528.087 885.695Z" stroke="#F7F7FD" stroke-width="2"/>
<path d="M2112.58 288.747C2069.36 242.997 2041.72 157.322 1993.69 197.094C1954.55 229.505 2024.29 276.776 1993.69 318.534C1959.26 365.506 1892.84 246.93 1828.62 299.631C1791.73 329.896 1852.62 413.188 1907.92 457.158C2005.38 534.66 2218.95 501.552 2218.95 404.458C2218.95 351.185 2159.33 338.226 2112.58 288.747Z" stroke="#F7F7FD" stroke-width="2"/>
<path d="M1749.41 761.96C1700.05 797.643 1496.82 500.453 1600.8 526.533C1654.89 540.102 1674.57 621.326 1703.77 605.578C1732.96 589.831 1683.39 510.574 1726.06 459.51C1819.4 347.811 2022.62 710.595 1967.57 761.96C1935.19 792.166 1847.49 581.563 1777.02 655.419C1740.39 693.8 1781.26 738.939 1749.41 761.96Z" stroke="#F7F7FD" stroke-width="2"/>
<path d="M394.978 773.283C351.923 802.316 174.661 560.513 265.35 581.733C312.533 592.773 329.701 658.859 355.164 646.046C380.627 633.234 337.391 568.748 374.608 527.201C456.02 436.32 633.277 731.491 585.254 773.283C557.014 797.86 480.524 626.507 419.052 686.599C387.108 717.826 422.756 754.552 394.978 773.283Z" stroke="#F7F7FD" stroke-width="2"/>
<path d="M540.826 226.371C531.526 133.903 732.438 55.6686 741.992 143.885C747.483 194.582 688.448 178.561 668.213 209.761C639.491 254.047 669.806 316.153 619.912 320.888C577.45 324.918 546.253 280.334 540.826 226.371Z" stroke="#F7F7FD" stroke-width="2"/>
<path d="M982.967 70.5623C872.334 84.2385 745.708 -167.161 684.668 -9.63323C656.415 63.2799 784.734 44.6001 814.179 116.962C847.77 199.515 678.299 232.1 784.455 326.616C872.166 404.71 901.272 195.493 956.428 214.342C988.275 225.226 1016.65 212.19 1055.15 214.342C1110.87 217.457 1177.95 270.421 1185.19 220.643C1192.44 170.865 1147.57 170.852 1137.96 121.544C1123.48 47.3591 1217.67 1.45262 1185.19 -65.7701C1137.36 -164.775 1085.75 57.856 982.967 70.5623Z" stroke="#F7F7FD" stroke-width="2"/>
<path d="M1060.46 454.36C1068.65 391.849 1034.45 317.712 1002.61 311.724C953.774 302.543 898.371 353.63 885.303 414.834C871.543 479.279 888.645 549.427 948.466 563.767C1009.85 578.482 1051.66 521.552 1060.46 454.36Z" stroke="#F7F7FD" stroke-width="2"/>
<path d="M1126.25 920.215C1153.1 976.379 1222.42 1013.87 1252.84 997.617C1299.49 972.689 1319.13 894.49 1297.15 836.152C1274.01 774.724 1221.44 729.132 1162.62 757.159C1102.26 785.918 1097.39 859.846 1126.25 920.215Z" stroke="#F7F7FD" stroke-width="2"/>
<path d="M-151.968 996.676C-106.262 1036.18 -28.8012 1039.98 -7.14201 1011.77C26.0689 968.508 14.5115 888.455 -27.5645 844.821C-71.8682 798.877 -137.082 780.323 -180.242 831.762C-224.53 884.544 -201.096 954.21 -151.968 996.676Z" stroke="#F7F7FD" stroke-width="2"/>
<path d="M1184.13 285.373C1119.82 355.214 1180.81 563.002 1261.1 516.223C1305.37 490.425 1249.09 444.679 1287.1 409.103C1325.43 373.231 1357.87 442.818 1390.08 400.512C1450.7 320.875 1251.45 212.269 1184.13 285.373Z" stroke="#F7F7FD" stroke-width="2"/>
<path d="M-100.24 359.331C-155.037 420.76 -103.068 603.522 -34.6637 562.377C3.0598 539.687 -44.8918 499.45 -12.5036 468.159C20.154 436.608 47.7922 497.813 75.2325 460.602C126.885 390.558 -42.8816 295.032 -100.24 359.331Z" stroke="#F7F7FD" stroke-width="2"/>
<path d="M1507.38 242.982C1451.65 242.982 1471.82 520.936 1521.71 497.89C1558.25 481.013 1507.68 415.266 1560.99 409.102C1620.44 402.228 1620.84 508.307 1661.31 492.162C1686.25 482.208 1659.93 418.254 1687.31 383.325C1716.46 346.141 1758.71 388.274 1775.95 360.986C1799.84 323.18 1723.85 293.004 1682.01 256.732C1655.63 233.868 1630.18 182.827 1611.94 201.738C1581.16 233.654 1611.41 300.747 1583.28 313.44C1555.15 326.133 1537.1 242.982 1507.38 242.982Z" stroke="#F7F7FD" stroke-width="2"/>
<path d="M179.178 309.712C128.235 309.712 146.672 564.144 192.278 543.048C225.675 527.6 179.457 467.416 228.181 461.774C282.52 455.482 282.891 552.583 319.878 537.805C342.681 528.694 318.624 470.151 343.651 438.178C370.294 404.141 408.917 442.708 424.675 417.73C446.508 383.123 377.051 355.501 338.8 322.298C314.688 301.369 291.43 254.648 274.757 271.959C246.618 301.173 274.272 362.589 248.558 374.208C222.844 385.826 206.348 309.712 179.178 309.712Z" stroke="#F7F7FD" stroke-width="2"/>
<path d="M673.249 416.148C673.249 416.148 668.194 327.61 702.739 319.229C740.883 309.975 716.561 405.168 754.347 416.148C767.734 420.037 777.312 409.286 789.735 416.148C813.111 429.059 808.251 463.008 799.565 490.786C788.628 525.759 762.994 545.197 730.263 544.258C680.835 542.841 673.249 416.148 673.249 416.148Z" stroke="#F7F7FD" stroke-width="2"/>
</g>
<defs>
<clipPath id="clip0_356_630">
<rect width="1920" height="860" fill="white"/>
</clipPath>
</defs>
</svg>
