<svg width="545" height="290" viewBox="0 0 545 290" fill="none" xmlns="http://www.w3.org/2000/svg">
<mask id="mask0_329_1388" style="mask-type:alpha" maskUnits="userSpaceOnUse" x="0" y="0" width="545" height="291">
<rect y="0.729248" width="544.356" height="289.271" fill="#D9D9D9"/>
</mask>
<g mask="url(#mask0_329_1388)">
<path d="M190.458 138.318C190.306 137.442 190.015 136.596 189.594 135.813C189.508 135.726 189.422 135.64 189.335 135.726H189.249C189.076 135.726 189.076 135.813 189.076 135.899C189.508 137.713 189.681 139.786 188.73 140.996C190.717 139.441 190.545 138.577 190.458 138.318Z" fill="white"/>
<path d="M176.615 289.536H-59.4695C-69.2307 280.811 -75.1912 270.705 -74.2409 261.375C-72.2541 241.248 -40.5516 238.311 -9.79929 252.823L-3.75249 255.847C-2.73326 252.144 -1.09794 248.64 1.08495 245.481C16.4608 222.935 51.1867 220.775 73.6462 237.274C76.122 239.084 78.4344 241.108 80.5569 243.321C83.5768 239.146 87.0218 235.295 90.8364 231.832C111.655 213.001 136.36 208.941 145.776 220.516C154.069 230.709 147.676 250.318 131.955 265.781C131.955 265.781 178.429 266.904 176.615 289.536Z" fill="#A5ABE9"/>
<path d="M157.184 290H164.113L169.31 274.143H155.652L157.184 290Z" fill="black"/>
<path d="M244.533 290H207.422C183.569 290 169.844 283.138 159.583 275.342L157.184 290H151.121C151.121 219.641 160.183 152.88 160.183 152.88C161.515 145.351 175.84 141.953 193.63 148.15C211.419 154.346 216.15 162.275 215.484 169.47C214.817 176.666 209.154 225.171 207.022 247.891L210.82 252.022C212.13 253.384 213.101 255.033 213.657 256.838C214.212 258.644 214.336 260.554 214.018 262.416L213.618 264.615C228.276 274.076 250.93 269.346 244.533 290Z" fill="#29CC7A"/>
<path d="M167.578 165.806C166.979 174.201 166.846 177.666 166.846 178.998C166.841 179.209 166.88 179.418 166.961 179.613C167.041 179.808 167.161 179.984 167.312 180.131C171.243 184.062 175.907 185.328 179.571 185.794C179.783 185.822 179.999 185.806 180.204 185.746C180.409 185.685 180.599 185.583 180.762 185.445C180.925 185.307 181.058 185.136 181.151 184.944C181.244 184.752 181.296 184.542 181.304 184.328L182.037 173.668" stroke="white" stroke-width="2" stroke-miterlimit="10" stroke-linecap="round"/>
<path d="M164.647 243.96C162.439 244.007 160.258 243.479 158.317 242.428" stroke="black" stroke-width="4" stroke-miterlimit="10" stroke-linecap="round"/>
<path d="M159.117 247.025C161.982 247.425 165.513 246.159 165.513 246.159" stroke="black" stroke-width="4" stroke-miterlimit="10" stroke-linecap="round"/>
<path d="M198.627 199.186C198.027 205.183 197.894 211.779 200.892 213.511C202.758 214.644 206.556 214.511 210.753 212.512C212.419 195.922 214.218 181.663 215.084 173.601L195.229 176.866C193.297 193.989 192.964 199.586 198.627 199.186Z" fill="#15AD75"/>
<path d="M212.44 174.921C215.624 168.245 207.085 157.53 193.368 150.987C179.651 144.444 165.95 144.552 162.766 151.228C159.582 157.904 168.12 168.619 181.838 175.162C195.554 181.704 209.256 181.597 212.44 174.921Z" fill="black"/>
<path d="M159.583 275.342C169.844 283.138 183.569 290 207.422 290H244.533C245.165 288.083 245.524 286.087 245.599 284.07C206.222 284.07 183.369 283.271 151.654 259.551C151.388 269.012 151.188 279.206 151.121 290H157.184L159.583 275.342Z" fill="#57F287"/>
<path d="M162.248 241.828C163.98 248.558 168.711 253.688 172.842 253.288C176.973 252.888 177.106 249.024 175.507 242.561C175.107 240.829 174.774 239.163 174.441 237.431C173.242 231.301 170.243 228.636 166.579 228.969C162.914 229.302 160.449 235.165 162.248 241.828Z" fill="white"/>
<path d="M162.248 241.828C163.98 248.558 168.711 253.688 172.842 253.288C176.973 252.888 177.106 249.024 175.507 242.561C175.107 240.829 174.774 239.163 174.441 237.431C173.242 231.301 170.243 228.636 166.579 228.969C162.914 229.302 160.449 235.165 162.248 241.828Z" fill="white"/>
<path d="M173.108 241.895C173.774 244.826 173.308 247.425 172.175 247.625C171.043 247.825 169.644 246.292 169.177 242.628C168.711 238.963 168.977 236.964 170.11 236.964C171.243 236.964 172.509 238.897 173.108 241.895Z" fill="black"/>
<path d="M211.686 264.082C211.784 264.088 211.883 264.069 211.973 264.027C212.063 263.985 212.141 263.922 212.2 263.843C212.26 263.764 212.298 263.672 212.313 263.574C212.328 263.476 212.319 263.376 212.285 263.282C210.953 256.62 206.889 255.687 199.36 257.419C191.831 259.152 188.832 259.818 187.367 260.351C185.901 260.884 186.567 261.217 196.495 262.749C201.515 263.594 206.595 264.039 211.686 264.082Z" fill="#15AD75"/>
<path d="M245.267 280.672C237.871 280.739 225.545 280.606 213.418 279.806C190.898 278.274 170.177 269.878 151.788 254.887V256.087C170.177 270.945 190.832 279.273 213.352 280.739C224.679 281.538 236.138 281.672 243.667 281.672H245.466L245.267 280.672Z" fill="black"/>
<path d="M174.441 237.497C173.241 231.368 170.243 228.703 166.579 229.036C162.914 229.369 161.915 232.101 161.648 236.032C165.773 237.363 170.121 237.861 174.441 237.497Z" fill="#5865F2"/>
<path d="M268.986 183.995L246.799 196.388C247.179 196.739 247.656 196.966 248.169 197.038C248.681 197.109 249.203 197.022 249.664 196.788C250.93 196.255 253.995 193.456 255.194 192.79C256.393 192.124 259.791 190.791 261.457 190.125C263.511 189.311 265.44 188.212 267.187 186.86C268.653 185.661 269.186 185.194 268.986 183.995Z" fill="black"/>
<path d="M214.218 137.956C210.154 135.424 209.954 135.49 207.688 131.426C205.423 127.362 202.558 125.363 199.227 124.896L203.358 154.812C212.019 157.344 217.349 152.947 218.549 148.616C219.748 144.285 218.349 140.487 214.218 137.956Z" fill="#3442D9"/>
<path d="M210.153 141.887C209.021 137.023 206.022 131.359 202.491 127.095C201.226 125.555 200.328 123.746 199.867 121.806C199.405 119.867 199.391 117.847 199.826 115.902L201.292 109.239C202.323 104.615 201.773 99.7783 199.732 95.5028C197.691 91.2272 194.275 87.7592 190.032 85.6527C187.596 84.4537 184.946 83.7516 182.236 83.5872C177.137 83.2137 172.094 84.8418 168.175 88.1257C164.257 91.4097 161.772 96.0913 161.248 101.177C161.138 102.038 161.093 102.907 161.115 103.775V106.64L161.248 118.633C161.393 124.022 160.251 129.366 157.917 134.224C156.948 136.152 156.211 138.187 155.718 140.287L188.299 174.934C203.824 172.335 213.551 157.344 210.153 141.887Z" fill="#3442D9"/>
<path d="M188.366 174.934C203.824 172.335 213.551 157.344 210.153 141.886C209.087 137.289 206.356 131.959 203.091 127.828" stroke="black" stroke-width="2" stroke-miterlimit="10" stroke-linecap="round"/>
<path d="M199.76 142.886C202.824 137.822 204.024 138.488 209.487 139.954C213.885 141.087 218.948 150.082 212.219 154.612C205.49 159.143 191.764 156.411 199.76 142.886Z" fill="#3442D9"/>
<path d="M184.57 127.953C185.184 127.483 185.283 126.581 184.791 125.938C184.3 125.295 183.404 125.154 182.79 125.623C182.176 126.093 182.077 126.994 182.569 127.637C183.06 128.281 183.957 128.422 184.57 127.953Z" fill="black"/>
<path d="M192.963 128.474C193.577 128.005 193.676 127.103 193.184 126.46C192.693 125.817 191.797 125.675 191.182 126.145C190.569 126.614 190.469 127.516 190.961 128.159C191.453 128.802 192.349 128.943 192.963 128.474Z" fill="black"/>
<path d="M192.097 127.428C199.227 133.292 196.295 137.489 202.025 146.151" stroke="white" stroke-width="3.00593" stroke-miterlimit="10" stroke-linecap="round"/>
<path d="M184.035 140.554C188.433 137.489 189.765 136.623 191.431 136.69L195.762 137.089L194.629 154.679L183.635 154.346L184.035 140.554Z" fill="#FFC619"/>
<path d="M205.356 136.09C205.439 135.857 205.467 135.608 205.437 135.363C205.408 135.118 205.322 134.883 205.187 134.676C205.051 134.47 204.87 134.297 204.657 134.172C204.443 134.048 204.203 133.974 203.957 133.958L196.628 132.892C196.096 132.835 195.56 132.963 195.112 133.254C194.663 133.545 194.328 133.982 194.163 134.491L190.032 149.815C189.949 150.048 189.921 150.297 189.95 150.542C189.98 150.787 190.066 151.023 190.201 151.229C190.337 151.436 190.518 151.608 190.732 151.733C190.945 151.857 191.184 151.931 191.431 151.947L198.76 153.013C199.292 153.07 199.827 152.942 200.276 152.651C200.725 152.36 201.06 151.923 201.225 151.414L205.356 136.09Z" fill="black"/>
<path d="M205.023 134.557L205.823 135.49L203.624 135.69L205.023 134.557Z" fill="black"/>
<path d="M208.621 144.685C207.688 143.153 206.822 141.22 204.29 140.821L203.957 144.019L208.621 144.685Z" fill="#FFC619"/>
<path d="M206.089 136.956C206.159 136.724 206.177 136.478 206.142 136.238C206.107 135.997 206.019 135.767 205.886 135.564C205.753 135.361 205.577 135.19 205.37 135.062C205.164 134.934 204.931 134.853 204.69 134.824L197.294 133.758C196.765 133.713 196.234 133.847 195.789 134.136C195.342 134.426 195.004 134.855 194.829 135.357L190.698 150.681C190.628 150.914 190.61 151.159 190.646 151.4C190.681 151.64 190.768 151.87 190.902 152.073C191.035 152.277 191.211 152.448 191.417 152.576C191.624 152.704 191.856 152.785 192.098 152.814L199.493 153.813C200.012 153.898 200.543 153.788 200.986 153.506C201.428 153.223 201.751 152.787 201.892 152.28L206.089 136.956Z" fill="white"/>
<path d="M203.824 143.019L206.822 143.486C207.43 143.553 207.986 143.856 208.373 144.329C208.759 144.803 208.944 145.409 208.888 146.017C208.872 146.334 208.791 146.644 208.649 146.927C208.507 147.209 208.307 147.46 208.062 147.661C207.817 147.862 207.533 148.009 207.227 148.093C206.922 148.178 206.602 148.197 206.289 148.15L204.09 147.816C203.407 147.719 202.776 147.397 202.293 146.904C201.812 146.409 201.507 145.77 201.425 145.085C201.409 144.78 201.463 144.474 201.583 144.193C201.702 143.912 201.886 143.662 202.117 143.462C202.349 143.263 202.623 143.119 202.919 143.043C203.215 142.966 203.525 142.958 203.824 143.019Z" fill="#FFC619"/>
<path d="M202.825 147.483L204.89 147.816C205.236 147.86 205.568 147.978 205.863 148.163C206.158 148.347 206.409 148.594 206.599 148.886C206.79 149.177 206.914 149.507 206.964 149.852C207.014 150.196 206.988 150.547 206.889 150.881C206.747 151.418 206.407 151.882 205.937 152.178C205.468 152.475 204.903 152.583 204.357 152.48L203.091 152.28C202.4 152.185 201.759 151.867 201.266 151.374C200.773 150.881 200.455 150.24 200.359 149.549C200.34 149.236 200.395 148.924 200.518 148.636C200.642 148.349 200.831 148.095 201.071 147.894C201.311 147.693 201.594 147.551 201.899 147.48C202.204 147.409 202.521 147.41 202.825 147.483Z" fill="#FFC619"/>
<path d="M196.362 155.079L189.166 154.079L189.499 151.148L196.695 152.214L196.362 155.079Z" fill="#FFC619"/>
<path d="M198.094 143.419L193.563 142.753C193.347 142.723 193.145 142.632 192.979 142.491C192.814 142.349 192.692 142.162 192.63 141.953L192.231 140.754L191.898 138.289L189.432 146.95L196.761 148.016C197.444 148.108 198.137 147.966 198.729 147.616C199.321 147.265 199.778 146.726 200.026 146.084C200.105 145.78 200.116 145.461 200.058 145.152C199.999 144.843 199.874 144.55 199.689 144.296C199.504 144.041 199.265 143.83 198.99 143.679C198.714 143.527 198.408 143.438 198.094 143.419Z" fill="#FFC619"/>
<path d="M196.628 147.95L189.432 146.95L189.765 151.747L195.296 152.547C195.97 152.648 196.659 152.509 197.242 152.157C197.826 151.804 198.269 151.258 198.494 150.615C198.585 150.315 198.607 149.998 198.558 149.689C198.509 149.379 198.39 149.085 198.211 148.828C198.031 148.571 197.795 148.359 197.52 148.206C197.246 148.054 196.941 147.966 196.628 147.95Z" fill="#FFC619"/>
<path d="M247.665 177.332C247.865 170.137 241.935 169.004 237.871 166.472C233.806 163.94 229.009 158.61 224.012 155.012C219.015 151.414 214.684 151.481 206.222 154.079L215.884 172.868C221.347 175.667 222.546 178.732 225.478 182.863C228.41 186.994 232.341 188.593 236.272 187.86C238.337 191.258 238.737 192.057 241.735 190.991C244.733 189.925 249.664 187.66 250.996 183.729C252.329 179.798 250.397 179.131 247.665 177.332Z" fill="#66BCFF"/>
<path d="M242.668 188.726C240.136 188.126 239.137 186.727 237.538 184.528L236.138 182.663C229.276 181.264 226.477 177.599 224.945 174.934C224.212 173.668 222.879 172.669 221.613 171.736C220.348 170.803 219.082 169.804 218.349 168.604C217.797 167.706 217.307 166.771 216.883 165.806C216.35 164.407 215.883 163.474 215.017 163.208C214.151 162.941 212.685 163.474 211.286 164.074C210.016 164.686 208.672 165.134 207.288 165.406C207.174 165.428 207.056 165.405 206.957 165.343C206.859 165.282 206.787 165.185 206.755 165.073C206.751 164.953 206.789 164.833 206.862 164.737C206.935 164.639 207.038 164.571 207.155 164.54C208.459 164.321 209.718 163.894 210.886 163.274C212.485 162.608 213.818 162.008 215.217 162.408C216.616 162.808 217.083 164.007 217.682 165.473C218.282 166.939 218.482 167.205 219.015 168.138C219.896 169.257 220.955 170.224 222.147 171.003C223.479 172.069 224.878 173.135 225.678 174.534C227.21 177.266 229.875 180.531 236.471 181.863H236.605L236.738 181.997C237.338 182.729 237.804 183.462 238.27 184.062C239.736 186.127 240.669 187.393 242.801 187.926C242.859 187.922 242.916 187.932 242.969 187.956C243.022 187.98 243.067 188.018 243.1 188.065C243.134 188.112 243.155 188.167 243.161 188.224C243.167 188.282 243.158 188.34 243.134 188.393C243.139 188.451 243.129 188.509 243.105 188.561C243.08 188.613 243.043 188.659 242.996 188.693C242.949 188.726 242.894 188.747 242.836 188.753C242.779 188.759 242.721 188.749 242.668 188.726Z" fill="#45AAF7"/>
<path d="M215.484 161.808C214.588 164.669 214.008 167.618 213.752 170.603" stroke="black" stroke-width="2" stroke-miterlimit="10" stroke-linecap="round"/>
<path d="M219.415 196.455C213.352 201.918 208.222 200.386 205.823 200.119C203.424 199.853 203.691 198.12 203.491 196.655C203.291 195.189 203.158 192.99 203.158 192.99C197.095 192.59 196.362 188.459 196.228 184.795C196.095 181.13 195.162 180.597 194.696 177.999C187.386 176.686 180.476 173.707 174.502 169.293C168.529 164.88 163.652 159.149 160.249 152.547L166.579 147.95L180.704 157.144C190.232 153.613 195.496 151.814 200.626 151.481C205.756 151.148 210.82 153.08 212.486 160.209C214.151 167.338 214.351 169.537 215.884 172.935C216.283 173.801 216.95 175.001 217.616 176.267C219.482 180.064 221.414 185.395 217.616 191.191C218.079 192.989 218.681 194.75 219.415 196.455Z" fill="#8CD9FF"/>
<path d="M170.576 166.006C170.377 161.275 172.176 157.944 175.44 157.411L167.178 151.681L161.182 154.279C162.714 158.544 166.645 163.208 170.576 166.006Z" fill="black"/>
<path d="M207.822 197.721L207.955 196.855C206.756 196.655 206.689 195.788 206.356 191.724V191.191L206.089 191.058C203.424 190.392 201.625 188.793 201.492 183.396C201.469 180.833 200.949 178.298 199.959 175.933C199.701 175.378 199.5 174.797 199.36 174.201C199.227 173.668 199.027 173.135 198.893 172.669C198.141 170.788 197.933 168.733 198.294 166.739C198.56 164.673 198.36 163.541 197.694 162.941C197.028 162.341 195.362 162.541 192.897 163.341H192.564C188.633 164.607 180.771 167.205 172.842 167.871L173.841 168.604C181.57 167.871 189.033 165.406 192.83 164.207L193.163 164.074C195.162 163.407 196.561 163.074 197.161 163.541C197.761 164.007 197.628 164.873 197.428 166.539C197.073 168.67 197.302 170.858 198.094 172.869C198.266 173.346 198.4 173.836 198.494 174.334C198.694 174.934 198.893 175.534 199.16 176.133C200.111 178.415 200.608 180.859 200.626 183.329C200.759 188.326 202.158 190.791 205.556 191.791C205.823 195.855 205.956 197.388 207.822 197.721Z" fill="#66BCFF"/>
<path d="M184.169 139.621C182.237 137.955 180.771 138.089 178.439 139.088C175.974 136.823 172.775 136.49 169.444 137.622C166.113 138.755 160.982 140.287 157.984 141.087C157.817 141.15 157.635 141.162 157.46 141.124C157.286 141.086 157.126 140.998 156.999 140.872C156.873 140.746 156.786 140.586 156.748 140.411C156.709 140.237 156.723 140.055 156.785 139.888L158.983 131.892C151.854 137.223 149.522 148.616 151.788 154.812C154.053 161.009 163.914 160.942 167.045 159.21C170.177 157.477 171.243 156.944 174.841 157.611C178.439 158.277 181.237 158.743 185.968 155.145L188.766 154.213C189.832 148.15 188.899 143.752 184.169 139.621Z" fill="#3442D9"/>
<path d="M184.169 139.621C182.236 137.955 180.77 138.089 178.439 139.088C175.973 136.823 172.775 136.49 169.444 137.622C166.112 138.755 160.982 140.287 157.984 141.087" stroke="black" stroke-width="2" stroke-miterlimit="10" stroke-linecap="round"/>
<path d="M178.439 139.088C180.429 140.629 182.086 142.557 183.311 144.756C184.537 146.954 185.304 149.378 185.568 151.881" stroke="black" stroke-width="2" stroke-miterlimit="10" stroke-linecap="round"/>
<path d="M198.627 137.089C198.657 136.997 198.667 136.9 198.656 136.804C198.644 136.708 198.612 136.615 198.561 136.533C198.51 136.45 198.442 136.38 198.362 136.326C198.281 136.273 198.19 136.238 198.094 136.223H197.428C197.243 136.183 197.049 136.216 196.887 136.315C196.725 136.414 196.609 136.572 196.562 136.756L195.962 138.955C195.931 139.052 195.923 139.155 195.939 139.255C195.954 139.356 195.992 139.451 196.049 139.535C196.107 139.619 196.184 139.688 196.272 139.738C196.361 139.787 196.46 139.816 196.562 139.821H197.228C197.403 139.844 197.58 139.802 197.728 139.704C197.874 139.606 197.981 139.459 198.027 139.288L198.627 137.089Z" fill="#29CC7A"/>
<path d="M187.966 124.297C188.481 123.254 189.242 122.352 190.181 121.667C191.121 120.983 192.213 120.536 193.363 120.366C193.496 120.366 193.563 120.232 193.496 120.166C192.63 116.968 193.03 115.169 194.163 112.837C194.174 112.82 194.181 112.801 194.184 112.78C194.187 112.76 194.185 112.74 194.179 112.721C194.172 112.701 194.161 112.684 194.147 112.669C194.133 112.655 194.115 112.644 194.096 112.637C190.365 111.038 188.966 108.373 188.566 106.374C188.499 106.241 188.3 106.174 188.233 106.307C186.567 109.639 184.302 109.772 182.37 109.505C182.236 109.505 182.17 109.639 182.236 109.705C184.169 113.436 182.769 116.102 180.837 117.967C180.827 117.993 180.822 118.021 180.823 118.049C180.825 118.078 180.832 118.105 180.845 118.13C180.857 118.155 180.875 118.178 180.896 118.195C180.918 118.213 180.943 118.226 180.97 118.234C184.702 118.9 186.7 121.365 187.633 124.23C187.7 124.363 187.9 124.43 187.966 124.297Z" fill="#FFC619"/>
<path d="M196.628 147.95L192.83 147.417" stroke="black" stroke-width="2" stroke-miterlimit="10" stroke-linecap="round"/>
<path d="M203.558 147.75L205.69 148.083" stroke="black" stroke-width="2" stroke-miterlimit="10" stroke-linecap="round"/>
<path d="M188.433 106.241C190.098 102.51 189.965 99.9111 189.499 98.4453" stroke="black" stroke-width="2" stroke-miterlimit="10" stroke-linecap="round"/>
<path d="M193.763 112.77C194.803 112.929 195.865 112.863 196.876 112.576C197.888 112.288 198.826 111.787 199.626 111.104" stroke="black" stroke-width="2" stroke-miterlimit="10" stroke-linecap="round"/>
<path d="M187.966 124.297C187.972 124.792 187.905 125.287 187.767 125.762" stroke="black" stroke-width="2" stroke-miterlimit="10" stroke-linecap="round"/>
<path d="M181.17 118.034C178.705 119.766 174.974 119.5 172.375 118.7" stroke="black" stroke-width="2" stroke-miterlimit="10" stroke-linecap="round"/>
<path d="M182.37 109.505C181.437 107.573 179.705 105.375 178.106 104.642" stroke="black" stroke-width="2" stroke-miterlimit="10" stroke-linecap="round"/>
<path d="M193.497 120.166C194.356 120.625 195.275 120.961 196.228 121.165" stroke="black" stroke-width="2" stroke-miterlimit="10" stroke-linecap="round"/>
<path d="M186.367 113.037C187.5 117.434 188.966 117.168 189.632 115.835C190.298 114.503 190.765 112.837 191.831 112.97C192.897 113.103 192.63 114.969 191.364 117.634C190.098 120.299 188.033 120.899 186.101 118.567C184.168 116.235 184.102 113.97 184.035 112.371C183.969 110.771 185.634 110.372 186.367 113.037Z" fill="#C40655"/>
<path d="M183.702 126.895C184.502 136.09 179.838 140.487 178.372 149.615" stroke="white" stroke-width="3.00593" stroke-miterlimit="10" stroke-linecap="round"/>
<path d="M194.163 178.066C192.964 174.135 192.43 166.939 195.695 160.609" stroke="black" stroke-width="2" stroke-miterlimit="10" stroke-linecap="round"/>
<path d="M193.43 168.271C192.678 166.811 192.311 165.182 192.364 163.541" stroke="black" stroke-width="2" stroke-miterlimit="10" stroke-linecap="round"/>
<path d="M160.582 140.354L155.652 141.953" stroke="black" stroke-width="2" stroke-miterlimit="10" stroke-linecap="round"/>
<path d="M209.554 139.754L212.885 140.687" stroke="black" stroke-width="2" stroke-miterlimit="10" stroke-linecap="round"/>
<path d="M268.986 183.929C268.62 184.463 268.196 184.955 267.72 185.395C265.588 187.527 260.724 189.925 258.126 190.925C256.149 191.55 254.33 192.596 252.795 193.99C250.863 195.522 248.465 197.587 246.799 196.388C244.701 194.457 242.783 192.338 241.069 190.058C240.972 189.939 240.908 189.796 240.885 189.643C240.861 189.491 240.879 189.336 240.936 189.192C241.868 186.527 244.867 182.729 249.197 180.731C249.341 180.674 249.497 180.656 249.649 180.68C249.801 180.703 249.944 180.767 250.064 180.864C252.596 182.663 254.128 183.129 256.193 183.063C258.259 182.996 262.257 181.663 265.521 180.731C268.786 179.798 268.853 181.264 268.986 183.929Z" fill="#FFC619"/>
<path d="M242.934 192.39C244.124 193.815 245.416 195.151 246.799 196.388C248.465 197.587 250.863 195.522 252.795 193.989C254.33 192.596 256.149 191.55 258.126 190.924C260.724 189.925 265.588 187.526 267.72 185.394C268.196 184.955 268.62 184.463 268.986 183.929C268.853 181.263 268.253 179.931 265.521 180.73C262.789 181.53 261.257 182.196 259.258 182.663C258.664 182.822 258.125 183.143 257.701 183.589C257.278 184.037 256.986 184.592 256.86 185.195C256.793 185.927 256.66 186.66 256.526 187.526C252.929 186.794 249.464 187.993 248.731 192.723C248.731 192.723 245.666 191.058 242.934 192.39Z" fill="#FFE75C"/>
<path d="M267.72 185.395L268.986 183.995C269.07 183.855 269.116 183.694 269.119 183.529C269.058 183.024 268.922 182.53 268.719 182.063C268.186 183.063 267.253 184.062 265.188 185.595C261.923 187.993 258.259 188.859 256.06 189.592C254.047 190.342 252.21 191.499 250.663 192.99C249.447 194.364 247.845 195.339 246.066 195.789L246.799 196.388C248.464 197.588 250.863 195.522 252.795 193.99C254.33 192.596 256.149 191.55 258.125 190.925C260.724 189.925 265.588 187.527 267.72 185.395Z" fill="white"/>
<path d="M227.077 188.393C223.679 187.46 220.214 189.059 217.149 194.856C216.283 194.189 214.151 193.456 210.953 194.056C207.755 194.656 206.555 196.055 206.022 197.121C205.705 197.737 205.611 198.443 205.756 199.12C205.956 199.986 206.222 201.119 206.622 202.984C207.222 205.849 206.889 208.381 208.488 208.648L230.875 192.524C230.875 192.524 231.474 189.592 227.077 188.393Z" fill="#FFC619"/>
<path d="M227.077 188.393C223.679 187.46 220.214 189.059 217.15 194.856C216.724 195.723 216.346 196.613 216.017 197.521C212.486 197.188 210.82 198.72 210.22 202.118C210.22 202.118 207.888 200.519 206.489 202.385C206.556 202.584 206.556 202.784 206.622 202.984C207.222 205.849 206.889 208.381 208.488 208.648L230.875 192.524C230.875 192.524 231.475 189.592 227.077 188.393Z" fill="#FFE75C"/>
<path d="M230.875 191.591L229.209 190.058C226.344 189.592 223.945 189.525 221.414 192.39C218.882 195.255 217.216 198.387 214.551 200.252C210.753 203.051 207.555 204.184 207.089 206.249C206.622 208.314 207.555 208.514 208.488 208.648L230.875 192.524C230.957 192.218 230.957 191.897 230.875 191.591Z" fill="white"/>
<path d="M228.01 189.059L229.609 189.525C229.748 189.548 229.88 189.601 229.995 189.682C230.111 189.763 230.207 189.869 230.275 189.992C230.893 191.035 231.15 192.253 231.008 193.457L225.145 192.39C227.077 191.458 227.743 190.592 227.544 189.459C227.524 189.396 227.522 189.33 227.54 189.266C227.558 189.203 227.594 189.147 227.644 189.104C227.694 189.061 227.755 189.034 227.82 189.026C227.885 189.018 227.951 189.03 228.01 189.059Z" fill="white"/>
<path d="M208.621 208.714C214.351 209.847 216.883 208.048 219.348 205.516C220.371 204.385 221.562 203.419 222.879 202.651C226.277 200.719 228.943 198.653 230.742 195.389C232.54 192.124 227.01 189.992 223.412 192.99C219.815 195.988 219.615 199.52 212.485 203.917C207.622 206.982 206.955 208.381 208.621 208.714Z" fill="black"/>
<path d="M209.436 198.316C209.469 197.655 209.169 197.102 208.765 197.081C208.361 197.061 208.006 197.58 207.972 198.242C207.938 198.903 208.24 199.456 208.643 199.476C209.048 199.497 209.403 198.977 209.436 198.316Z" fill="white"/>
<path d="M245.415 190.214C246.026 190.077 246.352 189.21 246.143 188.276C245.935 187.342 245.27 186.696 244.66 186.832C244.05 186.969 243.724 187.837 243.932 188.77C244.141 189.703 244.805 190.35 245.415 190.214Z" fill="white"/>
<path d="M475.973 289.325C459.264 254.849 449.889 213.569 449.889 213.569L449.133 209.562L415.489 213.569V289.325H475.973Z" fill="#2835BD"/>
<path d="M468.715 289.325C454.048 259.083 445.882 222.868 445.882 222.868L443.916 212.737L415.716 222.868V289.325H468.715Z" fill="black"/>
<path d="M474.007 188.468H461.759V289.37H474.007V188.468Z" fill="#2835BD"/>
<path d="M474.007 201.548C472.173 202.383 470.139 202.677 468.144 202.396C466.148 202.115 464.274 201.269 462.742 199.96L461.759 199.128V194.592L474.007 192.248V201.548Z" fill="black"/>
<path d="M455.257 289.325C463.649 287.284 475.066 276.17 475.066 276.17C475.066 276.17 479.073 284.789 481.416 289.325H489.884C490.798 289.33 491.703 289.142 492.54 288.774C493.377 288.405 494.126 287.864 494.74 287.187C495.353 286.509 495.818 285.709 496.101 284.84C496.385 283.971 496.482 283.052 496.386 282.142C496.008 278.438 494.269 274.279 491.623 268.231C487.162 258.176 485.726 252.883 477.031 252.883H469.168L451.023 244.869C439.38 250.993 431.366 254.547 424.486 258.629C414.355 264.829 406.341 277.077 414.204 289.325H455.257Z" fill="#FFC619"/>
<path d="M327.485 222.868V289.325H419.572C434.239 259.083 442.404 222.868 442.404 222.868L444.597 213.569L327.485 222.868Z" fill="#2835BD"/>
<path d="M421.386 224.91L327.485 233.68V289.325H397.722C404.526 273.826 421.386 224.91 421.386 224.91Z" fill="black"/>
<path d="M408.911 284.26C416.657 272.282 422.808 259.345 427.208 245.777" stroke="black" stroke-width="2" stroke-linecap="round" stroke-linejoin="round"/>
<path d="M397.948 275.036C394.058 275.036 390.327 276.581 387.577 279.332C384.826 282.082 383.281 285.813 383.281 289.703H412.616C412.616 285.813 411.07 282.082 408.32 279.332C405.569 276.581 401.838 275.036 397.948 275.036Z" fill="#404EED"/>
<path d="M418.816 289.325C433.483 259.083 441.724 222.868 441.724 222.868L418.816 289.325Z" fill="#2835BD"/>
<path d="M447.168 289.249C447.092 289.098 441.875 275.943 439.153 267.475L439.002 266.946C437.188 261.2 435.676 256.588 435.902 252.505L434.617 253.186C434.617 257.268 436.054 261.805 437.868 267.324L438.019 267.853C440.514 275.565 444.975 287.132 445.882 289.325H447.168V289.249Z" fill="black"/>
<path d="M494.421 287.511C494.887 287.055 495.239 286.495 495.45 285.878C495.659 285.26 495.722 284.603 495.63 283.957C495.101 278.589 492.304 272.163 489.355 265.509L486.331 258.403L485.197 258.856C486.18 261.276 487.238 263.619 488.221 265.963C491.774 274.053 495.177 281.84 494.421 287.511Z" fill="white"/>
<path d="M469.168 267.778C467.732 273.675 465.691 281.008 463.044 289.325H447.167C447.167 289.325 442.026 276.094 439.229 267.551C436.431 259.007 434.39 252.883 437.188 247.213C439.985 241.543 444.37 241.089 451.023 244.869L450.04 255.605L455.106 269.97L457.45 262.334C462.44 259.083 468.715 260.898 469.168 267.778Z" fill="#FFC619"/>
<path d="M448.68 284.562L447.395 280.857C444.597 272.616 442.178 265.585 440.514 259.158C439.154 253.866 438.02 247.591 438.7 244.793C438.144 245.471 437.663 246.206 437.263 246.986C437.263 251.069 438.624 256.739 439.305 259.461C441.044 265.963 443.463 272.994 446.26 281.235L447.546 285.015C448.1 286.578 448.629 288.015 449.133 289.325H450.494C449.89 287.964 449.36 286.452 448.68 284.562Z" fill="white"/>
<path d="M460.171 289.325C461.91 283.504 464.405 274.96 467.656 263.922C467.679 263.842 467.685 263.759 467.673 263.678C467.663 263.595 467.636 263.517 467.593 263.446C467.55 263.375 467.494 263.313 467.426 263.266C467.36 263.217 467.283 263.183 467.202 263.166C467.129 263.129 467.048 263.111 466.967 263.111C466.884 263.111 466.803 263.13 466.73 263.167C466.657 263.203 466.593 263.257 466.544 263.322C466.495 263.387 466.462 263.464 466.446 263.544C463.12 274.809 460.625 283.504 458.886 289.325H460.171Z" fill="white"/>
<path d="M466.296 221.28C456.769 219.919 453.14 220.6 449.587 228.614C446.033 236.628 447.848 243.433 453.745 252.052C459.642 260.671 474.158 259.083 479.678 257.042C485.197 255 490.036 249.481 492.757 241.694C495.479 233.906 494.647 225.363 490.565 220.676C486.482 215.988 479.602 212.132 473.402 214.098C467.203 216.064 466.296 221.28 466.296 221.28Z" fill="#DE3A93"/>
<path d="M470.907 232.546L468.034 231.79" stroke="black" stroke-width="2" stroke-linecap="round" stroke-linejoin="round"/>
<path d="M471.059 233.755L468.11 234.133" stroke="black" stroke-width="2" stroke-linecap="round" stroke-linejoin="round"/>
<path d="M491.926 232.319L494.194 230.807" stroke="black" stroke-width="2" stroke-linecap="round" stroke-linejoin="round"/>
<path d="M491.774 233.604L494.118 233.226" stroke="black" stroke-width="2" stroke-linecap="round" stroke-linejoin="round"/>
<path d="M463.196 213.569C461.608 213.569 460.398 214.627 460.323 215.383C460.247 216.139 463.12 218.559 466.825 223.171L467.808 222.793C464.33 213.871 464.784 213.493 463.196 213.569Z" fill="black"/>
<path d="M470.529 220.6C467.656 222.415 464.33 224.91 464.33 224.91" stroke="black" stroke-width="2" stroke-linecap="round" stroke-linejoin="round"/>
<path d="M469.169 267.778C470.076 263.922 470.756 260.671 471.134 258.176C472.193 251.674 470.227 250.615 467.354 249.784C464.481 248.952 462.44 247.364 461.079 242.45C459.718 237.536 458.886 237.611 457.223 238.443C455.409 239.425 453.853 240.825 452.687 242.526C451.78 244.113 451.931 245.928 453.67 250.389C454.82 253.178 456.669 255.626 459.038 257.495L457.45 262.334C463.272 262.107 466.749 262.863 469.169 267.778Z" fill="#FF78B9"/>
<path d="M478.619 264.753C477.788 261.049 476.729 257.042 478.619 255.983C480.509 254.925 486.331 252.203 489.506 245.323C489.573 245.152 489.673 244.996 489.801 244.864C489.929 244.732 490.083 244.628 490.253 244.558C490.422 244.487 490.604 244.451 490.788 244.453C490.971 244.455 491.152 244.494 491.321 244.567H491.472C491.61 244.617 491.736 244.694 491.843 244.795C491.949 244.896 492.033 245.017 492.09 245.152C492.147 245.287 492.175 245.433 492.173 245.579C492.171 245.726 492.138 245.87 492.077 246.003C490.53 249.292 488.683 252.431 486.558 255.378C486.999 257.151 487.554 258.894 488.221 260.595C484.743 262.334 478.619 264.753 478.619 264.753Z" fill="#FF78B9"/>
<path d="M460.02 252.657C460.132 252.532 460.194 252.371 460.194 252.203C460.194 252.036 460.132 251.874 460.02 251.749C458.89 250.565 457.878 249.273 456.996 247.893C455.56 245.398 454.199 240.938 455.182 239.804L454.123 240.787C453.955 240.968 453.828 241.184 453.75 241.418C453.671 241.653 453.644 241.902 453.67 242.147C454.07 244.376 454.836 246.521 455.938 248.498C456.852 249.989 457.916 251.382 459.113 252.657L459.567 252.808L460.02 252.657Z" fill="black"/>
<path d="M459.642 257.646C461.823 257.377 464.023 257.277 466.22 257.344" stroke="black" stroke-width="2" stroke-linecap="round" stroke-linejoin="round"/>
<path d="M452.46 278.211L457.223 263.09" stroke="black" stroke-width="2" stroke-linecap="round" stroke-linejoin="round"/>
<path d="M455.106 269.97L450.494 256.739" stroke="black" stroke-width="2" stroke-linecap="round" stroke-linejoin="round"/>
<path d="M478.695 265.358C480.055 272.692 483.004 282.974 483.004 282.974" stroke="black" stroke-width="2" stroke-linecap="round" stroke-linejoin="round"/>
<path d="M417.379 270.121C414.752 270.121 412.233 271.165 410.376 273.022C408.518 274.88 407.475 277.399 407.475 280.026V289.703H427.208V280.026C427.208 277.412 426.175 274.904 424.334 273.049C422.492 271.193 419.993 270.142 417.379 270.121Z" fill="#404EED"/>
<path d="M427.208 280.025C425.931 280.016 424.663 280.258 423.481 280.741C422.298 281.222 421.223 281.934 420.315 282.833C419.409 283.733 418.689 284.803 418.198 285.982C417.707 287.161 417.455 288.426 417.455 289.703H436.885C436.885 287.136 435.865 284.675 434.051 282.86C432.236 281.045 429.774 280.025 427.208 280.025Z" fill="#404EED"/>
<path d="M457.525 195.651L472.419 193.307" stroke="black" stroke-width="8" stroke-linecap="round" stroke-linejoin="round"/>
<path d="M488.675 223.322L489.204 224.153" stroke="#FFA8D2" stroke-width="3" stroke-linecap="round" stroke-linejoin="round"/>
<path d="M481.189 217.803C483.147 218.389 484.953 219.396 486.482 220.751" stroke="#FFA8D2" stroke-width="3" stroke-linecap="round" stroke-linejoin="round"/>
<path d="M472.042 193.382C484.668 191.265 504.93 186.578 515.439 183.78" stroke="#2835BD" stroke-width="8" stroke-linecap="round" stroke-linejoin="round"/>
<path d="M511.659 185.822L515.666 204.421" stroke="black" stroke-width="2" stroke-linecap="round" stroke-linejoin="round"/>
<path d="M519.446 203.816V201.396H503.871V203.891C503.839 204.237 503.736 204.571 503.569 204.874C502.788 206.01 502.367 207.353 502.359 208.73V218.634C502.36 220.308 502.965 221.925 504.062 223.189C505.159 224.452 506.675 225.278 508.332 225.514C510.564 225.817 512.828 225.817 515.06 225.514C516.697 225.26 518.185 224.424 519.254 223.16C520.324 221.897 520.902 220.29 520.882 218.634V208.73C520.901 207.36 520.506 206.016 519.748 204.874C519.536 204.564 519.429 204.192 519.446 203.816Z" fill="#8CD9FF"/>
<path d="M518.009 204.874V201.774H505.232V204.874C505.236 205.484 505.08 206.083 504.779 206.613C504.175 207.505 503.859 208.561 503.871 209.637V218.105C503.873 219.511 504.376 220.87 505.291 221.938C506.206 223.005 507.472 223.71 508.861 223.927C510.669 224.153 512.497 224.153 514.305 223.927C515.714 223.742 517.008 223.048 517.941 221.976C518.874 220.903 519.382 219.526 519.37 218.105V209.637C519.364 208.574 519.077 207.531 518.539 206.613C518.217 206.088 518.035 205.49 518.009 204.874Z" fill="#5865F2"/>
<path d="M503.871 202.606C503.871 203.665 507.349 204.496 511.658 204.496C515.968 204.496 519.446 203.665 519.446 202.606L511.658 199.506L503.871 202.606Z" fill="#8CD9FF"/>
<path d="M503.417 202.001C503.351 202.115 503.308 202.241 503.29 202.372C503.274 202.503 503.283 202.635 503.318 202.762C503.353 202.889 503.414 203.008 503.496 203.11C503.578 203.214 503.68 203.299 503.796 203.362C505.081 204.118 508.105 204.647 511.658 204.647C515.212 204.647 518.236 204.118 519.521 203.362C519.741 203.222 519.901 203.005 519.97 202.754C520.04 202.503 520.015 202.235 519.899 202.001L511.658 185.822L503.417 202.001Z" stroke="black" stroke-width="2" stroke-linecap="round" stroke-linejoin="round"/>
<path d="M510.903 218.71L508.559 218.181C508.333 218.099 508.144 217.938 508.03 217.727C507.922 217.516 507.902 217.271 507.972 217.045C508.043 216.819 508.199 216.63 508.408 216.517C508.521 216.451 508.647 216.408 508.778 216.39C508.908 216.374 509.041 216.383 509.168 216.418C509.295 216.453 509.414 216.514 509.517 216.596C509.62 216.678 509.706 216.78 509.768 216.895L510.903 218.71Z" fill="white"/>
<path d="M510.903 218.71L510.752 216.366C510.747 216.255 510.765 216.145 510.804 216.041C510.843 215.937 510.902 215.842 510.978 215.761C511.043 215.663 511.13 215.581 511.231 215.522C511.333 215.462 511.447 215.428 511.564 215.42C511.681 215.413 511.799 215.433 511.908 215.479C512.016 215.526 512.112 215.596 512.188 215.686C512.385 215.848 512.512 216.081 512.54 216.336C512.568 216.59 512.496 216.845 512.339 217.047L510.903 218.71Z" fill="white"/>
<path d="M511.356 220.902C510.071 221.281 508.861 220.902 508.559 220.071C508.256 219.239 508.71 218.786 509.92 218.483C510.447 218.347 510.955 218.144 511.432 217.878C512.414 217.349 512.944 217.954 513.171 218.634C513.397 219.315 512.641 220.449 511.356 220.902Z" fill="#121B80"/>
<path d="M509.04 218.618L508.132 218.602C507.506 218.591 506.989 219.09 506.979 219.716L506.977 219.784C506.967 220.41 507.466 220.927 508.092 220.938L508.999 220.954C509.625 220.965 510.141 220.466 510.152 219.84L510.153 219.772C510.165 219.146 509.666 218.629 509.04 218.618Z" fill="#FFE75C"/>
<path d="M513.322 209.789L515.439 208.654C515.606 208.512 515.735 208.329 515.817 208.125C515.852 208.011 515.864 207.891 515.852 207.772C515.841 207.653 515.806 207.538 515.749 207.433C515.694 207.328 515.617 207.234 515.525 207.158C515.433 207.083 515.326 207.026 515.212 206.991C514.961 206.922 514.693 206.954 514.466 207.081C514.24 207.209 514.073 207.421 514.002 207.672L513.322 209.789Z" fill="white"/>
<path d="M513.322 209.789L512.944 207.445C512.863 207.218 512.734 207.012 512.566 206.84C512.357 206.729 512.117 206.691 511.884 206.732C511.651 206.773 511.438 206.891 511.28 207.067C511.135 207.299 511.086 207.578 511.142 207.846C511.199 208.114 511.357 208.35 511.583 208.503L513.322 209.789Z" fill="white"/>
<path d="M513.927 209.486C514.985 210.242 515.514 211.452 514.985 212.132C514.456 212.813 513.851 212.888 512.868 212.057C512.455 211.72 511.997 211.44 511.507 211.225C511.321 211.179 511.15 211.083 511.014 210.947C510.878 210.811 510.782 210.641 510.735 210.455C510.688 210.268 510.693 210.072 510.749 209.888C510.806 209.705 510.911 209.539 511.054 209.411C511.507 208.654 512.868 208.73 513.927 209.486Z" fill="#121B80"/>
<path d="M513.401 212.206L513.936 212.94C514.305 213.445 515.014 213.557 515.52 213.188L515.575 213.148C516.081 212.779 516.193 212.069 515.824 211.563L515.289 210.83C514.919 210.324 514.21 210.213 513.704 210.582L513.649 210.622C513.143 210.991 513.032 211.7 513.401 212.206Z" fill="#FFE75C"/>
<path d="M511.658 203.287C515.959 203.287 519.446 202.441 519.446 201.396C519.446 200.352 515.959 199.506 511.658 199.506C507.357 199.506 503.871 200.352 503.871 201.396C503.871 202.441 507.357 203.287 511.658 203.287Z" fill="#8CD9FF"/>
<path d="M519.521 201.396H503.871V202.47H519.521V201.396Z" fill="#8CD9FF"/>
<path d="M514.834 202.001C514.456 202.077 514.153 202.304 514.153 202.682C514.163 202.762 514.188 202.838 514.228 202.909C514.267 202.978 514.32 203.039 514.383 203.089C514.446 203.138 514.519 203.175 514.596 203.195C514.674 203.216 514.754 203.222 514.834 203.211L516.119 202.984C516.289 202.955 516.446 202.875 516.568 202.753C516.69 202.63 516.771 202.474 516.8 202.304C516.792 202.226 516.767 202.151 516.726 202.084C516.686 202.017 516.632 201.96 516.567 201.916C516.502 201.873 516.428 201.845 516.351 201.833C516.273 201.821 516.194 201.827 516.119 201.85L514.834 202.001Z" fill="white"/>
<path d="M511.658 185.822L507.651 204.421" stroke="black" stroke-width="2" stroke-linecap="round" stroke-linejoin="round"/>
<path d="M512.263 187.107L510.298 182.873" stroke="black" stroke-width="2" stroke-linecap="round" stroke-linejoin="round"/>
<path d="M511.809 187.334L512.036 182.495" stroke="black" stroke-width="2" stroke-linecap="round" stroke-linejoin="round"/>
<path d="M490.564 236.401C493.059 233.528 492.681 231.79 491.85 231.26C491.018 230.731 489.733 231.714 487.465 235.343C485.196 238.972 487.087 240.333 490.564 236.401Z" fill="white"/>
<path d="M478.694 236.402C477.031 232.924 474.158 230.429 471.512 230.807C468.866 231.185 469.924 235.116 473.402 237.763C476.88 240.409 480.509 240.182 478.694 236.402Z" fill="white"/>
<path d="M491.699 233.226C491.845 232.546 491.792 231.837 491.547 231.185C490.867 231.109 489.808 231.865 488.372 233.907C488.523 234.965 489.052 235.721 489.657 235.797C490.262 235.872 491.547 234.814 491.699 233.226Z" fill="black"/>
<path d="M478.771 236.628C478.771 236.553 478.695 236.477 478.695 236.402C477.888 234.65 476.669 233.119 475.142 231.941C474.705 232.805 474.522 233.774 474.612 234.738C474.763 236.78 475.822 238.367 477.032 238.292C477.46 238.234 477.86 238.042 478.173 237.744C478.485 237.445 478.694 237.054 478.771 236.628Z" fill="black"/>
<path d="M480.207 244.189C484.97 242.979 486.86 242.45 487.616 243.508C488.372 244.567 487.692 245.776 486.558 246.986C487.767 249.632 487.389 250.842 485.045 250.842C483.337 250.72 481.68 250.202 480.207 249.33" stroke="black" stroke-width="2" stroke-linecap="round" stroke-linejoin="round"/>
<path d="M485.272 245.701C484.976 246.486 484.568 247.224 484.063 247.893" stroke="black" stroke-width="2" stroke-linecap="round" stroke-linejoin="round"/>
<path d="M318.411 289.325C350.392 289.325 376.627 276.019 411.103 245.625C445.579 215.232 457.676 205.252 467.429 195.802C477.182 186.351 476.501 180.227 471.436 168.13C466.37 156.034 463.044 157.772 463.044 157.772C462.439 147.944 452.837 131.689 442.252 118.609C431.668 105.529 425.317 107.646 413.674 107.646C402.031 107.646 398.175 110.822 392.958 124.733C387.741 138.644 374.737 150.439 350.166 154.748C325.594 159.058 312.136 158.831 311.456 171.155C310.775 183.478 311.456 204.723 300.569 221.507C287.035 228.049 272.807 233.045 258.154 236.402C249.535 238.367 247.721 244.038 246.889 251.447C246.058 258.856 249.082 262.863 250.518 265.207C247.57 268.004 248.174 269.214 249.611 275.792C250.216 278.438 250.896 281.084 251.501 283.428C251.994 285.131 253.028 286.628 254.446 287.692C255.864 288.756 257.591 289.329 259.364 289.325H318.411Z" fill="#66BCFF"/>
<path d="M246.608 254.969C245.777 262.378 248.801 266.385 250.237 268.729L309.436 275.533L366.745 267.141C366.745 267.141 404.547 236.672 399.406 226.541C394.265 216.41 383.453 225.937 369.013 235.765C354.572 245.594 339.603 246.501 322.44 244.006C305.278 241.511 284.487 234.178 257.874 239.923C249.255 241.889 247.44 247.56 246.608 254.969Z" fill="#45AAF7"/>
<path d="M405.811 217.954C405.886 204.874 405.433 201.774 409.818 202.379C414.203 202.984 421.385 204.421 421.385 204.421L413.598 216.744L405.811 217.954Z" fill="#A3E1FF"/>
<path d="M428.795 197.616C428.795 191.265 428.266 187.107 430.005 186.2C431.743 185.293 433.785 186.427 437.414 189.678C441.043 192.929 428.795 197.616 428.795 197.616Z" fill="#A3E1FF"/>
<path d="M254.298 263.619C253.316 255.983 253.542 249.935 255.584 248.423C257.625 246.911 259.591 250.389 261.027 253.413C262.858 257.25 265.143 260.855 267.832 264.149L254.298 263.619Z" fill="#A3E1FF"/>
<path d="M319.924 265.283C322.419 255.076 324.536 252.581 326.652 252.43C328.769 252.279 329.828 257.117 332.852 263.998L327.862 266.341L319.924 265.283Z" fill="#A3E1FF"/>
<path d="M456.013 171.911C423.88 202.984 404.677 220.071 377.761 240.106C350.846 260.142 338.825 265.358 316.219 265.358C293.613 265.358 279.097 252.657 250.518 265.207C247.57 268.005 248.175 269.214 249.611 275.792C250.216 278.438 250.896 281.084 251.501 283.428C251.994 285.131 253.028 286.628 254.446 287.692C255.864 288.756 257.591 289.329 259.364 289.325H318.412C350.392 289.325 376.627 276.019 411.103 245.625C445.579 215.232 457.676 205.252 467.429 195.802C477.182 186.351 476.502 180.227 471.436 168.13C466.37 156.034 463.044 157.772 463.044 157.772C463.044 161.175 463.271 164.804 456.013 171.911Z" fill="white"/>
<path d="M471.814 168.962C471.738 173.347 469.017 178.337 461.607 185.141C447.091 198.372 417.076 225.439 396.436 242.979C373.83 262.41 352.812 278.438 324.838 278.438C315.085 278.438 304.425 276.397 294.067 274.431C275.846 270.953 258.532 267.702 249.762 276.472C249.838 276.926 249.989 277.455 250.065 277.909C258.23 268.912 275.543 272.163 293.84 275.641C304.273 277.606 315.009 279.648 324.838 279.648C353.19 279.648 375.266 262.712 397.192 243.962C417.832 226.346 447.923 199.204 462.363 186.049C467.807 181.059 471.738 176.447 472.721 171.381L471.814 168.962Z" fill="#FFE75C"/>
<path d="M387.212 264.829L376.703 240.938C372.671 243.911 368.966 246.557 365.589 248.876L364.682 249.935C368.613 248.271 372.545 250.464 372.847 257.193C372.923 260.822 372.923 268.156 372.923 274.053C377.85 271.239 382.62 268.161 387.212 264.829Z" fill="black"/>
<path d="M263.749 283.277C257.701 283.352 254.752 285.772 257.172 288.115C258.052 288.933 259.221 289.368 260.423 289.325H312.363C286.506 289.325 283.86 282.974 263.749 283.277Z" fill="black"/>
<path d="M441.875 149.834C434.087 159.814 431.366 163.745 434.617 174.406C435.977 179.018 437.716 183.932 439.153 188.015L456.013 171.911C463.271 164.804 463.044 161.175 463.044 157.773C462.515 149.38 455.484 136.301 446.789 124.506C451.174 130.857 449.662 139.854 441.875 149.834Z" fill="#45AAF7"/>
<path d="M431.516 137.132C435.977 120.121 435.523 108.78 424.561 107.646C421.31 107.344 417.832 107.646 413.673 107.646C401.955 107.646 398.174 110.822 392.958 124.733C387.741 138.644 374.737 150.439 350.165 154.748C325.594 159.057 312.136 158.831 311.456 171.154C310.775 183.478 311.456 204.723 300.568 221.507C298.981 224.305 300.871 226.195 323.477 226.195C346.083 226.195 359.54 224.834 363.321 215.383C367.101 205.933 372.544 185.292 375.266 177.127C377.988 168.962 377.534 164.274 392.58 160.872C407.625 157.47 427.282 153.538 431.516 137.132Z" fill="#8CD9FF"/>
<path d="M379.273 158.755C391.37 153.765 399.914 154.899 412.766 148.775C425.619 142.651 427.283 138.115 428.87 129.723C430.458 121.331 431.592 111.427 423.805 110.746C416.017 110.066 408.986 110.368 405.433 111.578C401.879 112.787 400.972 114.98 397.116 122.919C393.26 130.857 391.37 142.651 374.057 150.363L379.273 158.755Z" fill="black"/>
<path d="M277.358 259.839C277.434 263.695 278.492 269.214 280.609 269.743C282.726 270.273 283.709 265.963 285.901 260.595C283.558 258.176 277.358 255.681 277.358 259.839Z" fill="#A3E1FF"/>
<path d="M373.83 242.299C371.957 242.376 370.124 242.867 368.462 243.735C361.431 247.289 361.506 250.313 361.733 251.372C371.335 245.55 375.569 251.976 378.291 270.802C379.349 278.211 381.239 281.84 386.683 281.84C393.336 281.84 397.268 277.153 396.814 265.056C396.712 262.773 396.459 260.501 396.058 258.252C394.168 248.12 390.236 237.914 380.71 237.914C379.281 237.985 377.896 238.426 376.689 239.195C375.483 239.964 374.498 241.034 373.83 242.299Z" fill="#FF78B9"/>
<path d="M444.823 208.201C440.74 211.83 436.658 212.132 435.75 208.957C434.843 205.782 437.338 200.187 441.421 196.633L448.528 190.358C452.61 186.729 456.693 186.427 457.6 189.602C458.508 192.778 455.937 198.372 451.93 201.926L444.823 208.201Z" fill="#FFA8D2"/>
<path d="M373.83 242.299C380.181 242.979 385.019 245.928 387.061 253.942C388.497 259.612 388.044 266.265 389.026 272.011" stroke="black" stroke-width="2" stroke-linecap="round" stroke-linejoin="round"/>
<path d="M446.184 151.573L444.294 154.143C438.321 161.931 436.128 164.804 442.479 184.839L443.462 183.932C437.489 165.031 439.455 162.384 445.201 154.9L447.167 152.329C451.854 145.978 453.593 139.703 453.442 134.335L452.081 132.218C452.837 137.737 451.325 144.617 446.184 151.573Z" fill="#5865F2"/>
<path d="M360.07 256.21C360.675 252.808 359.918 251.144 358.18 251.371C356.441 251.598 354.929 252.657 353.265 256.512C354.626 271.255 358.558 265.509 360.07 256.21Z" fill="#A3E1FF"/>
<path d="M422.218 113.165L434.088 111.653C435.978 111.426 436.659 107.117 437.491 101.673C438.322 96.2299 437.339 86.3257 437.339 86.3257L425.091 90.0303L422.218 113.165Z" fill="#FF78B9"/>
<path d="M455.182 82.7724C450.117 77.102 424.411 57.2935 424.411 57.2935L418.363 65.9881C418.363 65.9881 426.906 75.4387 433.03 81.7895C420.631 82.7724 398.252 85.7209 398.252 85.7209C382.375 82.5455 375.646 81.0334 375.646 81.0334L391.976 65.5344L386.004 56.613C386.004 56.613 370.429 66.1393 361.659 73.0193C352.889 79.8994 351.452 88.3671 359.769 94.7935C368.085 101.22 370.883 103.186 370.883 103.186L424.487 108.705C440.212 104.32 449.587 99.5566 455.258 94.6423C460.928 89.728 460.248 88.4427 455.182 82.7724Z" fill="#FFC619"/>
<path d="M366.422 80.2017C368.312 80.5041 371.639 81.4114 371.639 81.4114" stroke="black" stroke-width="2" stroke-linecap="round" stroke-linejoin="round"/>
<path d="M421.16 54.5715L415.792 63.5685L421.84 69.7682C423.806 67.5757 425.772 63.7197 425.167 57.8981L421.16 54.5715Z" fill="black"/>
<path d="M386.382 93.8863C379.124 84.9649 376.553 81.109 375.041 76.6483C373.983 73.3973 380.409 75.3631 388.726 77.858C397.042 80.353 395.757 82.6967 386.382 93.8863Z" fill="#FF78B9"/>
<path d="M375.948 80.8066C368.312 89.35 368.161 99.7834 368.993 114.375C368.993 114.375 355.837 127.606 357.728 139.174C359.618 150.741 377.612 155.731 398.101 155.504C414.583 155.353 416.397 151.497 417.909 143.71C418.816 138.644 419.497 132.823 419.95 128.286C420.408 123.518 421.607 118.849 423.504 114.451C433.635 90.9377 425.47 82.47 425.47 82.47L398.101 84.6625L375.948 80.8066Z" fill="#FF78B9"/>
<path d="M381.997 68.5586C375.57 73.3217 376.931 80.5798 386.004 90.5596L390.086 94.6423L416.473 90.3328C424.94 79.8237 423.277 72.7925 420.177 68.4074C424.487 61.3005 424.789 56.3862 424.714 52.0011C424.638 44.5918 417.909 32.9486 400.974 33.0998C391.75 33.1755 383.584 36.8045 380.636 48.5233C379.577 52.6059 379.351 59.2592 381.997 68.5586Z" fill="#FFE75C"/>
<path d="M414.658 42.7017C414.86 42.7005 415.06 42.7421 415.245 42.8236C415.43 42.905 415.596 43.0246 415.731 43.1744C415.867 43.3242 415.969 43.501 416.032 43.6932C416.095 43.8853 416.116 44.0884 416.095 44.2894L415.187 54.4961C414.919 56.7852 413.842 58.9034 412.152 60.4696C410.461 62.0358 408.266 62.947 405.964 63.0394H403.922C401.515 63.0623 399.182 62.2076 397.359 60.6353C395.536 59.0629 394.348 56.8805 394.018 54.4961L393.64 51.0938C393.585 50.6931 393.385 50.3261 393.079 50.0618C392.773 49.7974 392.381 49.6536 391.977 49.6573C391.56 49.6556 391.159 49.81 390.851 50.0899C390.543 50.3698 390.351 50.755 390.313 51.1694L389.86 56.613C389.692 58.4119 388.866 60.0858 387.541 61.3137C386.216 62.5415 384.483 63.2367 382.677 63.2662C381.594 63.3071 380.515 63.1124 379.515 62.6954C378.514 62.2785 377.616 61.6492 376.883 60.8511C376.149 60.0531 375.598 59.1053 375.267 58.0734C374.936 57.0414 374.833 55.9498 374.965 54.8741L375.873 44.5918C375.926 44.1837 376.122 43.8078 376.427 43.5308C376.732 43.254 377.125 43.0941 377.536 43.0797L414.658 42.7017Z" fill="black"/>
<path d="M415.641 43.0796L424.714 52.001V53.8155L415.717 47.5403L415.641 43.0796Z" fill="black"/>
<path d="M425.47 82.3942C421.214 78.3743 416.203 75.2391 410.727 73.1704C405.812 71.4315 404.678 70.9779 403.544 73.7752C402.41 76.5726 401.2 79.748 400.747 80.8065C400.293 81.865 394.925 85.494 391.674 88.2158C388.423 90.9376 385.021 96.7592 385.021 96.7592L419.497 99.4053L425.47 82.3942Z" fill="#FF78B9"/>
<path d="M432.879 81.6382L437.34 86.3257C435.298 92.6765 434.013 100.615 433.257 109.461L415.641 110.746L425.47 82.4698L432.879 81.6382Z" fill="#FF78B9"/>
<path d="M375.949 80.8066L372.698 80.2017C372.199 80.1295 371.69 80.1664 371.207 80.31C370.724 80.4536 370.278 80.7004 369.9 81.0335C366.199 84.4019 363.703 88.8897 362.793 93.8106C361.81 99.5566 362.113 100.161 368.766 103.715C373.227 106.134 377.839 95.5496 380.334 88.3671C380.623 87.584 380.737 86.7466 380.665 85.9148C380.594 85.0829 380.34 84.277 379.921 83.5548C379.501 82.8325 378.928 82.2117 378.242 81.7366C377.555 81.2616 376.772 80.944 375.949 80.8066Z" fill="#FF78B9"/>
<path d="M379.124 139.627C373.335 132.881 366.819 126.795 359.693 121.482L342.758 130.328L348.277 146.81C348.277 146.81 352.813 152.556 357.047 157.092C361.281 161.628 368.917 161.779 382.98 162.989C388.272 153.538 385.853 147.566 379.124 139.627Z" fill="#2835BD"/>
<path d="M351.528 146.507L353.04 139.174" stroke="black" stroke-width="2" stroke-linecap="round" stroke-linejoin="round"/>
<path d="M410.954 136.527C409.593 132.823 405.434 129.874 386.836 128.967L379.956 122.011L360.828 136.603C367.632 148.095 375.344 161.931 382.98 162.989C390.616 164.048 397.496 163.518 406.569 157.999C412.314 154.446 413.071 152.782 413.222 149.758C413.106 145.262 412.342 140.806 410.954 136.527Z" fill="#3442D9"/>
<path d="M431.518 137.132C427.284 153.538 407.627 157.394 392.581 160.872C378.972 163.972 378.065 168.055 376.024 174.859L365.742 172.137V161.553L379.275 158.755C391.372 153.765 399.915 154.899 412.768 148.775C425.621 142.651 427.284 138.115 428.872 129.723C429.855 124.809 430.611 119.214 429.401 115.358L433.71 115.963C434.844 121.104 433.862 128.362 431.518 137.132Z" fill="#8CD9FF"/>
<path d="M316.447 153.387C315.444 153.994 314.676 154.921 314.264 156.018C313.852 157.115 313.823 158.319 314.179 159.436C316.371 166.391 317.354 171.759 315.313 188.695C313.272 205.63 309.869 215.005 308.282 218.483C308.184 218.69 308.137 218.916 308.144 219.145C308.152 219.372 308.214 219.595 308.324 219.795C308.435 219.995 308.592 220.165 308.781 220.292C308.971 220.419 309.189 220.499 309.416 220.525C317.883 221.81 330.585 221.659 344.496 219.844C346.843 219.536 349.067 218.611 350.939 217.163C352.812 215.715 354.268 213.797 355.157 211.603C358.733 202.729 361.664 193.607 363.927 184.31C368.992 163.443 368.388 163.821 379.275 158.755C378.443 151.27 378.519 144.088 370.353 143.029C360.827 141.82 350.394 146.507 335.424 150.59C332.022 147.566 328.922 146.054 316.447 153.387Z" fill="#45AAF7"/>
<path d="M357.425 144.163C351.15 145.675 344.043 148.246 335.424 150.59C332.929 148.397 330.586 146.961 324.613 149.304C324.391 149.87 324.214 150.451 324.084 151.043C321.362 164.577 316.221 186.729 331.644 185.519C347.067 184.31 348.806 175.161 348.353 166.845C347.899 158.528 346.916 153.916 348.353 151.497C349.789 149.078 354.855 144.844 357.425 144.163Z" fill="#287CEB"/>
<path d="M371.261 163.292C370.202 154.446 369.522 150.212 367.102 148.549C364.683 146.885 363.851 147.415 360.676 148.095C357.501 148.775 353.494 149.985 348.352 151.497C338.751 154.295 326.805 157.848 322.269 157.546L320.757 157.319C321.815 156.185 328.317 153.841 332.627 152.253L335.651 151.119C335.722 151.102 335.788 151.07 335.847 151.026C335.905 150.982 335.953 150.926 335.989 150.862C336.024 150.798 336.046 150.728 336.053 150.654C336.06 150.582 336.051 150.508 336.029 150.439L335.424 150.59L334.895 150.136L332.173 151.119C322.117 154.824 319.244 156.109 319.471 157.546C319.698 158.982 320.832 158.68 322.193 158.755C326.881 159.058 338.448 155.655 348.73 152.631C353.796 151.119 358.181 149.834 360.903 149.305C363.625 148.775 365.364 148.775 366.422 149.531C367.48 150.287 369.144 155.58 370.127 164.501L371.261 163.292Z" fill="black"/>
<path d="M375.117 53.3619L389.482 42.9285L384.114 43.0041L375.495 49.2793L375.117 53.3619Z" fill="#5865F2"/>
<path d="M378.595 62.2079C379.832 62.9296 381.245 63.2959 382.677 63.2664C384.484 63.2369 386.216 62.5416 387.541 61.3138C388.866 60.086 389.692 58.4121 389.86 56.6131L390.087 53.8914L378.595 62.2079Z" fill="#5865F2"/>
<path d="M414.658 42.7017H408.685L393.942 53.362V54.496C394.112 55.6652 394.496 56.793 395.076 57.8227L415.565 43.0797C415.31 42.8609 414.993 42.7285 414.658 42.7017Z" fill="#5865F2"/>
<path d="M415.187 54.4959L415.641 49.5815L398.856 61.754C400.406 62.6115 402.151 63.0543 403.922 63.0392H405.963C408.266 62.9469 410.46 62.0356 412.152 60.4694C413.842 58.9033 414.919 56.785 415.187 54.4959Z" fill="#5865F2"/>
<path d="M389.104 64.1734C391.121 63.7332 393.21 63.7332 395.228 64.1734" stroke="black" stroke-width="2" stroke-linecap="round" stroke-linejoin="round"/>
<path d="M325.747 124.204C325.822 124.431 325.898 124.583 325.974 124.583C326.05 124.583 326.125 124.507 326.201 124.28" fill="black"/>
<path d="M338.599 120.726C330.434 123.901 319.018 130.555 309.189 136.074C303.745 139.098 302.082 140.912 304.955 146.432C307.828 151.951 313.272 157.243 317.354 160.872C321.437 164.501 323.705 162.989 326.729 161.023L348.277 146.81L359.693 121.482C354.93 118.155 346.84 117.475 338.599 120.726Z" fill="#2835BD"/>
<path d="M315.54 150.741C319.018 151.422 319.018 151.8 323.327 149.002C327.637 146.205 349.336 133.125 351.528 131.689" stroke="#4150F2" stroke-width="2" stroke-miterlimit="10" stroke-linecap="round"/>
<path d="M370.127 112.712C366.725 110.217 364.381 110.066 346.085 108.554C327.788 107.041 319.245 105.151 317.128 108.478C315.011 111.805 316.901 120.121 319.018 126.396C321.135 132.671 322.345 134.713 325.293 134.94C328.242 135.166 355.762 136.074 360.828 136.603L363.323 140.837L386.836 128.967C386.836 128.967 373.454 115.207 370.127 112.712Z" fill="#3442D9"/>
<path d="M312.062 145.676C307.526 141.971 305.711 141.29 306.24 143.785C306.77 146.28 309.643 149.985 312.742 153.312C315.842 156.638 319.396 160.041 320.605 159.814C321.815 159.587 320.379 157.319 318.488 153.69C316.874 150.635 314.693 147.915 312.062 145.676Z" fill="black"/>
<path d="M317.052 151.195L313.272 153.841L310.172 156.033C306.467 158.755 307.979 160.948 308.282 163.518C308.584 166.089 307.753 167.979 306.014 167.979C304.275 167.979 301.704 160.721 299.89 157.243C298.075 153.765 292.102 150.968 289.003 148.322C287.717 147.188 287.415 145.298 289.003 144.693C288.322 143.71 287.415 141.215 289.683 140.459C291.951 139.703 295.353 143.861 297.243 145.146C299.134 146.432 301.477 147.641 303.216 146.885C304.412 146.353 305.573 145.747 306.694 145.071L309.265 143.483L312.062 145.676C313.96 147.288 315.638 149.144 317.052 151.195Z" fill="#FF78B9"/>
<path d="M431.518 137.132C427.284 153.538 407.627 157.394 392.581 160.872C377.536 164.35 377.989 168.886 375.268 177.127C372.546 185.368 367.102 206.008 363.322 215.383L413.599 185.822L434.164 146.81L431.518 137.132Z" fill="#66BCFF"/>
<path d="M373.227 203.513C371.563 209.335 370.202 213.72 369.446 216.896C368.69 220.071 372.168 219.769 375.873 218.71C379.577 217.652 381.165 216.064 380.56 212.813C379.955 209.562 375.041 196.936 373.227 203.513Z" fill="white"/>
<path d="M312.062 145.676L309.265 143.483C308.584 143.408 308.206 143.408 307.904 143.634C307.601 143.861 307.677 144.012 307.753 144.39C309.492 144.088 313.801 147.188 313.952 153.312C314.935 153.765 315.464 154.068 315.842 153.841C316.22 153.614 316.75 152.556 317.052 151.195C315.638 149.144 313.961 147.288 312.062 145.676Z" fill="black"/>
<path d="M305.409 164.652C304.653 161.779 302.082 155.882 299.89 153.538C297.697 151.195 294.219 145.675 293.085 143.861C291.951 142.046 289.003 139.778 288.322 141.82C288.175 142.829 288.418 143.856 289.003 144.693C287.415 145.297 287.717 147.188 289.003 148.322C292.102 150.968 297.924 153.387 299.89 157.243C301.855 161.099 303.216 166.694 305.333 167.828L305.938 167.979C306.316 167.903 306.089 166.845 305.409 164.652Z" fill="#DE3A93"/>
<path d="M391.901 28.5635C390.943 31.2639 390.837 34.1934 391.599 36.9557C391.719 37.4416 392.002 37.8715 392.401 38.1742C392.8 38.4768 393.291 38.6337 393.791 38.619H398.403C398.916 38.6213 399.424 38.5148 399.894 38.3063C400.363 38.0977 400.782 37.792 401.125 37.4093C403.922 34.4607 408.988 33.7046 412.919 35.368L415.263 31.9657C415.514 31.6325 415.637 31.22 415.609 30.8035C415.581 30.3871 415.405 29.9946 415.112 29.6976C412.819 27.5312 410.084 25.8887 407.095 24.8835C404.105 23.8784 400.933 23.5346 397.798 23.876C396.477 24.0347 395.227 24.5569 394.186 25.3846C393.145 26.2122 392.353 27.3128 391.901 28.5635Z" fill="#FF8C19"/>
<path d="M433.559 105.907C433.257 109.461 433.862 110.671 434.693 109.234C435.278 107.944 435.636 106.563 435.752 105.151L433.559 105.907Z" fill="black"/>
<path d="M424.487 82.6965C417.985 83.5282 414.356 84.6623 411.105 86.1744" stroke="black" stroke-width="2" stroke-linecap="round" stroke-linejoin="round"/>
<path d="M437.793 87.2332L440.591 90.0305" stroke="black" stroke-width="2" stroke-linecap="round" stroke-linejoin="round"/>
<path d="M421.236 114.073C421.236 114.073 417.834 116.568 415.641 118.382" stroke="black" stroke-width="2" stroke-linecap="round" stroke-linejoin="round"/>
<path d="M391.372 94.5666L390.767 103.488H386.76C386.994 100.56 387.449 97.6533 388.121 94.7934C388.27 94.3052 388.5 93.8454 388.801 93.4325C389.807 92.1735 390.976 91.0548 392.279 90.1059L399.235 84.8892C401.203 83.4377 402.702 81.4396 403.544 79.1432C404.527 76.5726 405.737 73.3216 406.266 72.6411" stroke="#F551A0" stroke-width="2" stroke-linecap="round" stroke-linejoin="round"/>
<path d="M433.484 82.2432C430.308 90.2573 426.831 103.866 429.477 110.368C429.742 110.981 430.072 111.563 430.46 112.107L431.972 111.956C431.399 111.362 430.938 110.671 430.611 109.915C428.191 104.093 431.216 91.5426 434.391 83.226L433.484 82.2432Z" fill="#F551A0"/>
<path d="M363.474 100.313C363.776 100.669 364.133 100.976 364.532 101.22C365.288 92.3741 368.917 84.8892 374.512 80.5042L373 80.2773C367.783 84.738 364.305 91.9205 363.474 100.313Z" fill="#F551A0"/>
<path d="M424.184 113.543L415.792 114.526" stroke="black" stroke-width="2" stroke-linecap="round" stroke-linejoin="round"/>
<path d="M412.919 145.6C409.895 147.641 403.468 150.741 399.386 151.648C398.366 151.858 397.327 151.959 396.286 151.951C394.648 152.012 393.021 151.672 391.545 150.96C390.069 150.248 388.79 149.187 387.818 147.868L383.886 142.349C380.484 137.51 376.175 131.537 373.075 127.228C372.999 127.077 372.999 127.001 372.924 126.925C368.236 120.348 365.741 117.475 362.263 116.946C358.786 116.416 348.73 115.509 331.114 114.148C326.729 113.846 326.049 113.921 325.217 115.887C325.193 115.961 325.153 116.029 325.1 116.086C325.047 116.143 324.982 116.187 324.91 116.216C324.837 116.245 324.76 116.258 324.683 116.253C324.605 116.249 324.529 116.227 324.461 116.19C324.322 116.125 324.209 116.015 324.14 115.877C324.072 115.74 324.051 115.584 324.083 115.434C325.293 112.485 327.107 112.636 331.19 112.939C341.472 113.77 359.088 115.131 362.49 115.736C365.893 116.341 369.597 120.197 373.907 126.245C373.907 126.321 373.982 126.396 374.058 126.472C377.158 130.781 381.392 136.83 384.869 141.593L388.801 147.188C390.918 150.136 394.774 151.346 399.083 150.439C403.393 149.531 410.424 145.902 412.768 144.239C412.855 144.688 412.906 145.143 412.919 145.6Z" fill="#5865F2"/>
<path d="M319.471 109.763C317.279 111.805 318.413 115.812 319.925 121.331C321.437 126.85 323.327 131.84 324.31 131.689C325.293 131.538 325.822 129.572 326.049 126.699C326.276 123.826 326.2 118.685 325.066 114.829C323.932 110.973 321.135 108.176 319.471 109.763Z" fill="black"/>
<path d="M326.2 124.279L320.606 123.599C317.884 123.221 315.162 122.994 312.44 122.843C311.911 126.094 310.777 130.252 309.189 131.916C307.602 133.579 304.804 133.503 304.502 129.723C304.199 125.943 304.426 120.575 301.931 109.385C301.024 105.227 299.361 102.732 298.756 99.5566C298.151 96.3813 299.965 95.8521 301.629 96.1545C301.251 94.0375 301.402 91.3158 304.048 90.9377C306.694 90.5597 307.753 92.8279 307.753 95.7765C308.145 95.2332 308.711 94.8398 309.357 94.6611C310.003 94.4825 310.69 94.5292 311.306 94.7936C313.121 95.474 313.499 97.7422 313.272 101.371C313.045 105 312.97 108.856 314.482 110.141C315.994 111.427 316.372 110.973 318.489 111.275L323.63 111.729C324.243 112.694 324.726 113.737 325.066 114.829C325.848 117.917 326.229 121.093 326.2 124.279Z" fill="#FF78B9"/>
<path d="M326.2 124.279C326.229 121.093 325.848 117.917 325.066 114.829C324.726 113.737 324.243 112.694 323.63 111.729H322.949C324.839 114.148 325.973 120.499 322.949 123.901C323.375 124.262 323.861 124.543 324.386 124.733C325.025 124.794 325.665 124.635 326.2 124.279Z" fill="black"/>
<path d="M311.382 99.2542C311.684 95.7008 309.189 94.1887 307.753 95.7765C307.753 92.8279 306.77 90.5597 304.048 90.9377C301.326 91.3158 301.251 94.0375 301.629 96.1545C299.965 95.8521 298.151 96.4569 298.756 99.5566C299.361 102.656 301.024 105.227 301.931 109.385C304.426 120.575 304.124 125.262 304.502 129.723C304.507 130.622 304.798 131.496 305.333 132.218C307.072 134.032 307.828 131.84 307.753 128.513C307.711 123.307 308.014 118.105 308.66 112.939C309.416 106.89 311.155 102.808 311.382 99.2542Z" fill="#DE3A93"/>
<path d="M304.35 90.9378C306.694 90.8622 306.77 93.8108 306.694 97.0618L307.753 95.7765C307.753 92.9791 306.845 90.711 304.35 90.9378Z" fill="#FF78B9"/>
<path d="M365.061 128.135C363.873 131.064 362.458 133.896 360.828 136.603C364.305 135.091 365.742 134.335 365.742 134.335" stroke="black" stroke-width="2" stroke-linecap="round" stroke-linejoin="round"/>
<path d="M387.516 129.647L395.53 137.813C402.032 138.644 403.544 140.005 405.283 142.198" stroke="black" stroke-width="2" stroke-linecap="round" stroke-linejoin="round"/>
<path d="M395.53 137.812L402.864 138.039" stroke="black" stroke-width="2" stroke-linecap="round" stroke-linejoin="round"/>
<path d="M375.57 214.249C374.587 216.744 372.924 218.407 371.866 218.029C370.807 217.651 370.807 216.442 371.866 214.098C372.321 213.147 372.701 212.161 373 211.149C373.604 208.957 374.739 208.579 375.57 208.957C376.402 209.335 376.629 211.679 375.57 214.249Z" fill="black"/>
<path d="M316.145 180.605C316.069 181.89 315.918 183.327 315.767 184.839L332.702 186.729L314.859 192.324C314.481 194.894 314.103 197.238 313.725 199.431L325.52 200.64C321.513 202.077 317.128 203.589 312.44 205.404C311.835 208.075 311.23 210.343 310.626 212.208L316.145 212.359L309.945 214.098C309.491 215.596 308.935 217.061 308.282 218.483C308.205 218.678 308.154 218.881 308.131 219.088C314.859 216.971 321.664 215.232 328.242 213.796C334.957 215.008 341.577 216.7 348.05 218.861C349.686 218.173 351.156 217.142 352.36 215.837C349.789 214.93 346.009 213.72 341.397 212.435L338.751 211.754C345.026 210.696 350.847 209.789 356.14 209.108C356.971 206.991 357.879 204.496 358.786 201.775C353.872 200.64 348.806 199.733 343.892 198.902C350.999 196.709 356.593 195.121 361.281 193.987C362.037 191.417 362.793 188.695 363.549 185.822L353.342 184.763L364.608 181.286L365.817 176.522L342.758 183.554L316.145 180.605ZM354.174 205.101C346.462 206.16 337.465 207.52 328.09 209.562C324.562 208.957 320.857 208.503 316.976 208.201C323.705 205.706 329.602 203.589 334.895 201.85C341.019 202.682 347.672 203.74 354.174 205.101ZM360.676 189.753C354.25 191.341 345.933 193.685 334.517 197.541C328.393 196.709 322.874 196.104 318.413 195.651L343.211 187.863L360.676 189.753Z" fill="#3F4EEB"/>
<path d="M316.447 174.632C316.372 176.069 316.372 177.657 316.22 179.471C335.575 178.866 357.728 176.523 366.044 175.54C366.498 173.574 366.951 171.911 367.405 170.474C361.432 171.23 337.314 174.028 316.447 174.632Z" fill="#3F4EEB"/>
<path d="M349.184 214.779L352.36 215.837C351.156 217.142 349.686 218.173 348.05 218.861L345.026 217.878C346.614 217.148 348.03 216.092 349.184 214.779Z" fill="black"/>
<path d="M356.291 201.245L358.786 201.774C357.879 204.496 356.971 206.991 356.14 209.108L352.813 209.562C354.225 206.902 355.389 204.118 356.291 201.245Z" fill="black"/>
<path d="M360.601 185.519L363.549 185.822C362.793 188.695 362.037 191.416 361.281 193.987L358.257 194.743C358.711 193.231 359.089 191.643 359.467 190.056C359.542 189.904 359.542 189.753 359.618 189.602C359.92 188.241 360.298 186.88 360.601 185.519Z" fill="black"/>
<path d="M362.566 177.505L365.817 176.522L364.607 181.286L361.356 182.268C361.734 180.681 362.188 179.093 362.566 177.505Z" fill="black"/>
<path d="M367.405 170.474C366.951 171.911 366.498 173.574 366.044 175.54L362.944 175.842L364.305 170.852L367.405 170.474Z" fill="black"/>
<path d="M309.945 214.098L313.725 213.04C313.196 214.703 312.667 216.291 312.062 217.878L308.131 219.088C308.154 218.881 308.205 218.677 308.282 218.483C308.935 217.061 309.491 215.596 309.945 214.098Z" fill="black"/>
<path d="M312.44 205.403L315.843 204.118C315.313 206.991 314.708 209.637 313.952 212.284H310.626C311.231 210.368 311.835 208.075 312.44 205.403Z" fill="black"/>
<path d="M314.859 192.324L317.657 191.417C317.354 194.365 316.976 197.087 316.598 199.733L313.725 199.431C314.103 197.238 314.481 194.894 314.859 192.324Z" fill="black"/>
<path d="M316.145 180.605L318.715 180.907L318.262 185.066L315.767 184.839C315.918 183.327 316.069 181.89 316.145 180.605Z" fill="black"/>
<path d="M319.32 174.557L318.867 179.395H316.22C316.372 177.581 316.372 175.993 316.447 174.557H319.32Z" fill="black"/>
<path d="M392.96 193.76L393.111 200.187C393.115 200.52 393.208 200.846 393.379 201.132C393.551 201.418 393.795 201.654 394.086 201.815C394.378 201.976 394.708 202.057 395.04 202.05C395.374 202.043 395.699 201.948 395.984 201.775C396.325 201.552 396.588 201.228 396.737 200.848C396.886 200.47 396.913 200.053 396.815 199.658L394.623 192.097L392.96 193.76Z" fill="white"/>
<path d="M381.921 174.405C387.969 176.295 389.179 182.722 390.464 193.609C390.49 193.877 390.588 194.133 390.746 194.351C390.904 194.569 391.117 194.741 391.363 194.848C391.61 194.956 391.88 194.996 392.148 194.965C392.415 194.933 392.669 194.83 392.884 194.668L395.001 193.08C395.555 192.684 395.99 192.142 396.256 191.516C396.523 190.889 396.612 190.201 396.513 189.526C396.286 188.165 395.908 186.049 395.53 183.176C394.623 177.581 390.918 170.776 383.811 169.945C383.426 169.906 383.038 169.987 382.699 170.176C382.361 170.366 382.09 170.655 381.921 171.003C381.56 171.864 381.38 172.791 381.392 173.725C381.4 173.879 381.455 174.027 381.55 174.148C381.644 174.269 381.774 174.359 381.921 174.405Z" fill="#3F4EEB"/>
</g>
</svg>
