<svg width="124" height="24" viewBox="0 0 124 24" fill="none" xmlns="http://www.w3.org/2000/svg">
<path d="M26.2543 2.00999C24.248 1.071 22.1028 0.388577 19.8601 0C19.5847 0.498142 19.2629 1.16815 19.041 1.70115C16.657 1.34249 14.2948 1.34249 11.9546 1.70115C11.7328 1.16815 11.4037 0.498142 11.1258 0C8.88062 0.388577 6.73298 1.07351 4.72673 2.01497C0.6801 8.13203 -0.416874 14.0972 0.131614 19.9776C2.81555 21.9826 5.41661 23.2005 7.97377 23.9975C8.60515 23.1283 9.16825 22.2042 9.65335 21.2304C8.72946 20.8792 7.84457 20.4459 7.00846 19.9427C7.23027 19.7784 7.44725 19.6065 7.65687 19.4296C12.7566 21.8157 18.2975 21.8157 23.3363 19.4296C23.5484 19.6065 23.7653 19.7784 23.9847 19.9427C23.1462 20.4483 22.2589 20.8817 21.335 21.2329C21.8201 22.2042 22.3807 23.1308 23.0145 24C25.5742 23.203 28.1776 21.9851 30.8616 19.9776C31.5051 13.1607 29.7622 7.25033 26.2543 2.00999ZM10.3481 16.3612C8.81724 16.3612 7.56179 14.9315 7.56179 13.1906C7.56179 11.4496 8.79043 10.0175 10.3481 10.0175C11.9058 10.0175 13.1613 11.4471 13.1344 13.1906C13.1369 14.9315 11.9058 16.3612 10.3481 16.3612ZM20.6451 16.3612C19.1142 16.3612 17.8588 14.9315 17.8588 13.1906C17.8588 11.4496 19.0873 10.0175 20.6451 10.0175C22.2028 10.0175 23.4582 11.4471 23.4314 13.1906C23.4314 14.9315 22.2028 16.3612 20.6451 16.3612Z" fill="#4C44AD"/>
<path d="M41.6484 6.12292H48.3032C49.9075 6.12292 51.2628 6.37945 52.3746 6.89005C53.4835 7.4006 54.3149 8.11294 54.866 9.02453C55.4166 9.93611 55.6945 10.9797 55.6945 12.1553C55.6945 13.306 55.4068 14.3496 54.8316 15.2835C54.2563 16.22 53.3811 16.9598 52.2038 17.5052C51.0266 18.0507 49.5685 18.3246 47.8257 18.3246H41.6484V6.12292ZM47.7573 15.2238C48.8373 15.2238 49.6687 14.9473 50.2487 14.3969C50.829 13.8439 51.1192 13.0918 51.1192 12.1379C51.1192 11.2537 50.8605 10.5488 50.3438 10.0208C49.8272 9.49275 49.0446 9.22627 47.9986 9.22627H45.9168V15.2238H47.7573Z" fill="#4C44AD"/>
<path d="M65.6574 18.3094C64.7359 18.0653 63.9044 17.7117 63.166 17.2459V14.3518C63.7243 14.7926 64.4724 15.1563 65.411 15.4427C66.3495 15.7266 67.2565 15.8686 68.1338 15.8686C68.5434 15.8686 68.8531 15.8138 69.0626 15.7042C69.2725 15.5946 69.3774 15.4626 69.3774 15.3107C69.3774 15.1363 69.3213 14.9919 69.2066 14.8748C69.0919 14.7577 68.8701 14.6606 68.5413 14.5784L66.4935 14.1077C65.3209 13.8287 64.4894 13.4427 63.9949 12.947C63.5 12.4539 63.2535 11.8063 63.2535 11.0043C63.2535 10.3293 63.4681 9.74407 63.9023 9.24342C64.3335 8.74281 64.9479 8.35674 65.7449 8.08525C66.5423 7.81129 67.4732 7.67432 68.5434 7.67432C69.4989 7.67432 70.3741 7.77891 71.1716 7.98814C71.9686 8.19736 72.6267 8.46384 73.151 8.79011V11.5274C72.6144 11.2011 72 10.9446 71.2982 10.7503C70.5984 10.5585 69.8796 10.4638 69.1382 10.4638C68.068 10.4638 67.5344 10.6506 67.5344 11.0217C67.5344 11.1961 67.6172 11.3256 67.7829 11.4128C67.9486 11.5 68.2532 11.5896 68.6947 11.6843L70.4009 11.9981C71.5153 12.1949 72.3463 12.5411 72.8922 13.0342C73.4386 13.5274 73.7114 14.2571 73.7114 15.2235C73.7114 16.282 73.2606 17.1214 72.3561 17.7441C71.4515 18.3667 70.1693 18.678 68.5069 18.678C67.5293 18.6756 66.5789 18.5535 65.6574 18.3094Z" fill="#4C44AD"/>
<path d="M77.7389 17.9429C76.7617 17.4547 76.0229 16.7922 75.5305 15.9553C75.0381 15.1185 74.7896 14.177 74.7896 13.1309C74.7896 12.0849 75.0453 11.1484 75.5573 10.324C76.0692 9.49956 76.8199 8.85198 77.8099 8.38125C78.7993 7.91052 79.9817 7.67639 81.3591 7.67639C83.0653 7.67639 84.4818 8.04253 85.6081 8.77476V11.9653C85.2108 11.6863 84.7473 11.4597 84.2184 11.2854C83.6894 11.111 83.1239 11.0238 82.5194 11.0238C81.4615 11.0238 80.6351 11.2206 80.0378 11.6166C79.4404 12.0126 79.1409 12.5282 79.1409 13.1683C79.1409 13.7959 79.4307 14.309 80.011 14.7125C80.5914 15.1135 81.4322 15.3153 82.5364 15.3153C83.1044 15.3153 83.6652 15.2306 84.2184 15.0637C84.7694 14.8943 85.2448 14.6876 85.6421 14.4435V17.5294C84.3917 18.2965 82.9413 18.6801 81.2907 18.6801C79.9014 18.6751 78.7165 18.4311 77.7389 17.9429Z" fill="#4C44AD"/>
<path d="M89.8641 17.9431C88.8792 17.455 88.1285 16.7875 87.6115 15.9381C87.0948 15.0888 86.834 14.1424 86.834 13.0963C86.834 12.0502 87.0923 11.1162 87.6115 10.2968C88.1306 9.47737 88.8767 8.83477 89.8568 8.36901C90.834 7.90326 92.0019 7.67163 93.3547 7.67163C94.7078 7.67163 95.8753 7.90326 96.8529 8.36901C97.8305 8.83477 98.5766 9.4724 99.0885 10.2868C99.6005 11.1013 99.8562 12.0353 99.8562 13.0938C99.8562 14.1399 99.6005 15.0863 99.0885 15.9356C98.5766 16.7849 97.828 17.4525 96.8432 17.9406C95.8583 18.4288 94.6955 18.6729 93.3525 18.6729C92.0091 18.6729 90.8463 18.4313 89.8641 17.9431ZM95.049 14.8497C95.4636 14.4263 95.6731 13.8659 95.6731 13.1685C95.6731 12.4712 95.4658 11.9157 95.049 11.5047C94.6348 11.0913 94.0688 10.8846 93.3525 10.8846C92.6235 10.8846 92.0529 11.0913 91.6361 11.5047C91.2219 11.9182 91.0146 12.4712 91.0146 13.1685C91.0146 13.8659 91.2219 14.4263 91.6361 14.8497C92.0508 15.2731 92.6235 15.4873 93.3525 15.4873C94.0688 15.4848 94.6348 15.2731 95.049 14.8497Z" fill="#4C44AD"/>
<path d="M110.109 8.31929V12.0852C109.676 11.7938 109.115 11.6493 108.42 11.6493C107.511 11.6493 106.809 11.9308 106.321 12.4936C105.831 13.0566 105.587 13.9332 105.587 15.1188V18.3268H101.407V8.12753H105.502V11.3704C105.729 10.1848 106.097 9.3106 106.604 8.74518C107.109 8.18231 107.762 7.90088 108.557 7.90088C109.159 7.90088 109.676 8.04036 110.109 8.31929Z" fill="#4C44AD"/>
<path d="M124 5.77393V18.3269H119.819V16.0429C119.465 16.9022 118.929 17.5573 118.208 18.0056C117.486 18.4514 116.594 18.6756 115.536 18.6756C114.59 18.6756 113.766 18.4414 113.062 17.9707C112.357 17.5 111.814 16.8549 111.431 16.0355C111.051 15.216 110.858 14.2895 110.858 13.2534C110.846 12.1849 111.048 11.226 111.465 10.3767C111.88 9.52736 112.467 8.86487 113.223 8.38912C113.978 7.91342 114.841 7.67431 115.809 7.67431C117.801 7.67431 119.137 8.55848 119.819 10.3244V5.77393H124ZM119.195 14.7802C119.622 14.3568 119.834 13.8063 119.834 13.1339C119.834 12.4838 119.627 11.9533 119.212 11.5473C118.798 11.1413 118.23 10.9371 117.515 10.9371C116.811 10.9371 116.248 11.1438 115.826 11.5572C115.404 11.9707 115.195 12.5062 115.195 13.1687C115.195 13.8312 115.404 14.3717 115.826 14.7901C116.248 15.2085 116.804 15.4178 117.498 15.4178C118.203 15.4153 118.768 15.2036 119.195 14.7802Z" fill="#4C44AD"/>
<path d="M59.2167 9.21297C60.3676 9.21297 61.301 8.35655 61.301 7.30013C61.301 6.2437 60.3676 5.38733 59.2167 5.38733C58.0653 5.38733 57.1323 6.2437 57.1323 7.30013C57.1323 8.35655 58.0653 9.21297 59.2167 9.21297Z" fill="#4C44AD"/>
<path d="M57.1313 10.5311C58.4085 11.094 59.9932 11.1189 61.2996 10.5311V18.3817H57.1313V10.5311Z" fill="#4C44AD"/>
</svg>
