<svg width="490" height="326" viewBox="0 0 490 326" fill="none" xmlns="http://www.w3.org/2000/svg">
<path fill-rule="evenodd" clip-rule="evenodd" d="M490 272.404V326L365.565 326V265.822C410.31 223.055 461.347 252.501 464.726 284.284C473.318 278.685 481.824 274.785 490 272.404Z" fill="#5865F2"/>
<path d="M408.41 202.71H13.4367V325.935H408.41V202.71Z" fill="#5865F2"/>
<path d="M13.4367 240.793L408.41 208.966V202.71H13.4367V240.793Z" fill="#4B59F2"/>
<path d="M408.41 202.71H405.509V325.935H408.41V202.71Z" fill="#3543DE"/>
<path d="M372.776 202.71H369.874V325.935H372.776V202.71Z" fill="#3543DE"/>
<path d="M337.141 202.71H334.24V325.935H337.141V202.71Z" fill="#3543DE"/>
<path d="M301.507 202.71H298.605V325.935H301.507V202.71Z" fill="#3543DE"/>
<path d="M265.781 202.71H262.879V325.935H265.781V202.71Z" fill="#3543DE"/>
<path d="M230.146 202.71H227.245V325.935H230.146V202.71Z" fill="#3543DE"/>
<path d="M194.512 202.71H191.61V325.935H194.512V202.71Z" fill="#3543DE"/>
<path d="M158.877 202.71H155.975V325.935H158.877V202.71Z" fill="#3543DE"/>
<path d="M123.243 202.71H120.341V325.935H123.243V202.71Z" fill="#3543DE"/>
<path d="M87.6077 202.71H84.7062V325.935H87.6077V202.71Z" fill="#3543DE"/>
<path d="M51.9727 202.71H49.0712V325.935H51.9727V202.71Z" fill="#3543DE"/>
<path d="M16.3383 202.71H13.4367V325.935H16.3383V202.71Z" fill="#3543DE"/>
<path d="M120.613 88.7335C116.895 76.4019 114.901 70.5082 121.61 66.8812C128.32 63.2543 148.722 65.7025 158.242 67.9693C167.763 70.2361 169.123 72.5937 162.867 81.933L120.613 88.7335Z" fill="#FFF4B3"/>
<path d="M116.261 199.627C114.81 162.995 115.717 132.529 116.895 116.298C110.82 112.309 108.009 109.226 106.831 107.503C106.586 107.171 106.461 106.766 106.478 106.353C106.494 105.942 106.65 105.547 106.921 105.236C116.533 93.1767 124.784 82.6586 133.398 77.7623C142.012 72.8659 153.799 71.5965 172.569 90.2752C172.748 90.5143 172.837 90.8092 172.821 91.1076C172.805 91.4068 172.683 91.6897 172.478 91.9073C170.987 93.3871 169.413 94.7798 167.763 96.0783C171.571 102.879 177.102 113.216 177.102 113.216H181.455C184.244 113.216 186.92 114.324 188.892 116.297C190.865 118.269 191.973 120.944 191.973 123.734C192.064 132.166 190.069 142.322 186.17 155.379C203.579 169.524 199.317 199.537 199.317 199.537L116.261 199.627Z" fill="#29CC7A"/>
<path d="M186.17 155.378C186.714 153.474 187.258 151.752 187.711 149.938L174.02 157.555C174.02 157.555 152.349 142.956 115.989 133.889C115.354 150.754 115.263 173.604 116.261 199.627H199.318C199.318 199.627 203.579 169.524 186.17 155.378Z" fill="#8CD9FF"/>
<path d="M189.615 158.733C188.558 157.525 187.406 156.403 186.17 155.378C186.714 153.474 187.258 151.752 187.711 149.938L174.02 157.555C174.02 157.555 152.349 142.956 115.989 133.889C115.898 135.974 115.807 138.241 115.807 140.508C143.644 152.024 158.605 171.79 160.328 199.627H180.911C184.538 183.669 187.439 169.705 189.615 158.733Z" fill="#BAE8FF"/>
<path d="M126.96 123.28H127.323C127.504 123.099 127.686 123.008 127.776 122.736L135.665 97.2569C135.717 97.1499 135.747 97.033 135.75 96.9133C135.753 96.7945 135.73 96.6757 135.682 96.5669C135.635 96.4572 135.563 96.3593 135.474 96.2804C135.385 96.2015 135.279 96.1435 135.164 96.1099C135.05 96.0764 134.929 96.0682 134.812 96.0854C134.694 96.1036 134.581 96.1471 134.482 96.2133C134.383 96.2795 134.299 96.3665 134.237 96.469C134.175 96.5705 134.136 96.6848 134.123 96.8036L126.507 121.467C123.216 120.063 120.06 118.363 117.077 116.389H116.895C116.895 116.933 116.805 117.568 116.805 118.112C119.938 120.127 123.245 121.858 126.688 123.28H126.96Z" fill="black"/>
<path d="M160.69 82.2959L128.229 84.6534C164.499 91.5446 166.04 92.542 160.69 82.2959Z" fill="black"/>
<path d="M178.644 177.321L175.198 145.132C175.13 144.564 174.849 144.042 174.411 143.672C173.974 143.302 173.413 143.11 172.841 143.137H169.395L167.854 140.145C167.377 139.321 166.622 138.694 165.724 138.379C164.826 138.063 163.844 138.078 162.957 138.422C162.043 138.811 161.301 139.521 160.872 140.417C154.071 155.016 150.717 179.044 150.082 183.578C150.067 183.79 150.121 184.001 150.235 184.181C150.349 184.36 150.518 184.498 150.717 184.575L170.302 190.832C170.411 190.889 170.534 190.912 170.657 190.901C170.779 190.889 170.895 190.841 170.991 190.765C171.087 190.687 171.159 190.584 171.198 190.467C171.236 190.35 171.24 190.225 171.209 190.106L170.483 180.948L177.737 178.681C178.024 178.598 178.272 178.416 178.438 178.166C178.604 177.918 178.677 177.619 178.644 177.321Z" fill="#EB459F"/>
<path d="M161.869 151.661L158.877 182.943" stroke="#D11583" stroke-width="2" stroke-miterlimit="10" stroke-linecap="round"/>
<path d="M152.578 105.881C153.831 105.375 154.057 103.006 153.081 100.592C152.105 98.1781 150.299 96.6312 149.045 97.1371C147.791 97.644 147.566 100.011 148.542 102.426C149.517 104.841 151.324 106.388 152.578 105.881Z" fill="black"/>
<path d="M161.926 110.894C163.542 107.84 163.346 104.567 161.488 103.583C159.629 102.599 156.812 104.277 155.194 107.33C153.577 110.384 153.774 113.657 155.632 114.642C157.491 115.626 160.309 113.948 161.926 110.894Z" stroke="white" stroke-width="2" stroke-miterlimit="10"/>
<path d="M175.277 110.912C176.894 107.859 176.698 104.586 174.839 103.601C172.981 102.617 170.163 104.295 168.547 107.349C166.93 110.403 167.126 113.676 168.985 114.66C170.843 115.644 173.661 113.966 175.277 110.912Z" stroke="white" stroke-width="2" stroke-miterlimit="10"/>
<path d="M166.107 105.443C166.943 105.105 166.86 102.95 165.922 100.628C164.984 98.3067 163.546 96.6982 162.71 97.0364C161.875 97.3737 161.958 99.529 162.895 101.851C163.834 104.172 165.272 105.781 166.107 105.443Z" fill="black"/>
<path d="M174.745 129.174C167.744 129.197 160.951 126.794 155.522 122.373C149.9 117.749 152.167 117.205 155.704 117.114C159.24 117.024 176.196 117.658 181.092 118.384C185.988 119.109 186.895 128.811 174.745 129.174Z" fill="#912869"/>
<path d="M174.745 129.174C167.744 129.197 160.951 126.794 155.522 122.373C149.9 117.749 152.167 117.205 155.704 117.114C159.24 117.024 176.196 117.658 181.092 118.384C185.988 119.109 186.895 128.811 174.745 129.174Z" fill="#611B46"/>
<path d="M174.382 139.329L174.019 135.974C176.581 135.77 179.077 135.061 181.364 133.889" stroke="black" stroke-width="2" stroke-linecap="round" stroke-linejoin="round"/>
<path d="M178.1 128.72C173.204 124.005 166.584 120.469 154.344 121.285C164.862 130.987 175.833 129.355 178.1 128.72Z" fill="#EB459F"/>
<path d="M162.504 107.684H168.035" stroke="white" stroke-width="2" stroke-miterlimit="10"/>
<path d="M154.163 108.772L130.769 99.2517C130.278 99.0613 129.749 98.9933 129.226 99.0513C128.703 99.1103 128.203 99.2943 127.766 99.5881C127.33 99.8819 126.97 100.277 126.72 100.74C126.469 101.202 126.334 101.718 126.326 102.244C126.315 102.863 126.491 103.471 126.831 103.988C127.17 104.505 127.658 104.909 128.23 105.145L129.771 105.871" stroke="white" stroke-width="2" stroke-miterlimit="10" stroke-linecap="round"/>
<path d="M149.266 96.8941C151.106 96.9412 152.943 96.6964 154.706 96.1687" stroke="black" stroke-width="2" stroke-miterlimit="10" stroke-linecap="round"/>
<path d="M162.867 96.8941C164.026 96.924 165.177 96.6756 166.222 96.1687" stroke="black" stroke-width="2" stroke-miterlimit="10" stroke-linecap="round"/>
<path d="M123.696 85.5598C156.066 85.1064 167.038 81.4795 176.286 78.1246C185.535 74.7697 184.628 72.1402 177.556 72.4122C170.483 72.6842 146.273 81.9329 123.696 85.5598Z" fill="#FFF4B3"/>
<path d="M115.716 143.41L115.535 152.296L119.978 150.573C119.978 150.573 143.644 140.689 149.266 139.329C154.887 137.969 160.237 140.599 168.307 143.682C176.377 146.764 174.291 149.575 171.753 152.296C169.214 155.016 169.304 154.834 155.975 154.834C130.496 173.241 122.698 184.031 112.271 184.031C106.014 184.031 100.665 181.22 96.6751 168.889C92.6855 156.557 100.121 150.935 115.716 143.41Z" fill="#29CC7A"/>
<path d="M204.486 153.565L190.885 137.153L167.672 160.275L184.084 173.966C183.903 175.508 184.084 176.687 184.9 177.503C187.348 179.951 194.512 176.777 200.949 170.43C207.387 164.083 210.47 156.829 208.022 154.381C207.206 153.565 206.027 153.384 204.486 153.565Z" fill="white"/>
<path d="M182.329 151.822C188.703 145.448 192.492 138.903 190.792 137.204C189.093 135.504 182.548 139.293 176.174 145.667C169.8 152.041 166.011 158.586 167.71 160.286C169.41 161.985 175.955 158.196 182.329 151.822Z" fill="white"/>
<path d="M180.753 150.268C186.525 144.496 190.4 139.013 189.408 138.022C188.417 137.03 182.934 140.905 177.162 146.677C171.391 152.449 167.515 157.932 168.506 158.924C169.498 159.915 174.981 156.039 180.753 150.268Z" fill="#BAE8FF"/>
<path d="M203.216 146.674C207.115 147.218 208.656 150.754 207.115 155.469C206.94 155.971 206.639 156.419 206.24 156.77C205.841 157.122 205.358 157.364 204.838 157.473C204.318 157.583 203.778 157.556 203.271 157.396C202.765 157.235 202.308 156.946 201.947 156.557C201.05 155.606 200.507 154.376 200.407 153.072C200.308 151.768 200.66 150.47 201.403 149.394L203.216 146.674Z" fill="#29CC7A"/>
<path d="M196.416 143.954C196.235 147.309 194.24 150.664 192.789 152.84C192.397 153.45 192.22 154.174 192.286 154.896C192.352 155.619 192.657 156.299 193.152 156.829L193.877 157.464C194.113 157.705 194.396 157.897 194.707 158.028C195.019 158.159 195.352 158.226 195.691 158.226C196.028 158.226 196.362 158.159 196.673 158.028C196.985 157.897 197.267 157.705 197.504 157.464C200.236 154.971 202.162 151.719 203.035 148.125C204.123 143.228 200.587 139.783 194.421 141.415L196.416 143.954Z" fill="#29CC7A"/>
<path d="M123.696 85.56L134.758 84.6533L161.325 79.3942L154.706 72.8657H123.061L123.696 85.56Z" fill="#FFF4B3"/>
<path d="M177.284 119.018L170.937 118.656C171.662 122.464 173.475 124.459 175.017 123.824C176.558 123.189 177.102 119.835 177.284 119.018Z" fill="white"/>
<path d="M157.698 118.202C158.514 122.555 160.146 124.822 161.688 124.096C163.229 123.371 163.592 119.744 163.864 118.293L157.698 118.202Z" fill="white"/>
<path d="M423.009 202.71H4.91357" stroke="#2835BD" stroke-width="8" stroke-linecap="round" stroke-linejoin="round"/>
<path d="M168.216 158.461C168.284 158.648 168.411 158.808 168.579 158.915C168.67 158.915 168.67 158.915 168.67 159.005C168.67 159.096 175.198 155.832 180.82 150.21V150.029L177.284 146.583L174.382 143.591L170.574 143.772L163.139 140.961L162.867 141.596C166.04 142.684 166.675 154.109 168.216 158.461Z" fill="#EB459F"/>
<path d="M169.396 143.228C170.926 146.326 172.288 149.504 173.476 152.749C173.538 152.895 173.638 153.023 173.765 153.118C173.893 153.213 174.043 153.274 174.201 153.293H174.473C174.664 153.213 174.821 153.072 174.92 152.89C175.02 152.708 175.054 152.499 175.017 152.296C174.927 152.024 172.932 146.765 171.118 143.228H169.396Z" fill="#D11583"/>
<path d="M170.483 181.13H170.302L163.32 183.215C163.191 183.254 163.074 183.324 162.98 183.419C162.885 183.513 162.815 183.63 162.776 183.759C162.75 183.907 162.762 184.059 162.809 184.202C162.857 184.344 162.938 184.473 163.048 184.575L169.214 189.925C169.251 190.012 169.315 190.085 169.397 190.134C169.478 190.182 169.573 190.205 169.667 190.197C169.786 190.201 169.905 190.178 170.015 190.132C170.124 190.085 170.222 190.014 170.302 189.925C170.375 189.842 170.433 189.746 170.468 189.642C170.503 189.537 170.518 189.426 170.51 189.317C170.501 189.206 170.47 189.099 170.419 189C170.367 188.902 170.297 188.816 170.211 188.746L165.134 184.303L170.574 182.671L170.483 181.13Z" fill="#D11583"/>
<path d="M115.263 152.024L102.478 158.099" stroke="black" stroke-width="2" stroke-linecap="round" stroke-linejoin="round"/>
<path d="M165.043 75.1326C151.068 78.8767 136.903 81.8732 122.608 84.1092" stroke="#FFC619" stroke-width="2" stroke-miterlimit="10" stroke-linecap="round"/>
<path d="M176.377 161.998L186.17 170.974C186.477 171.245 186.864 171.408 187.273 171.44C187.681 171.473 188.089 171.373 188.437 171.156C188.656 171 188.839 170.796 188.971 170.561C189.102 170.325 189.179 170.063 189.196 169.794C189.214 169.525 189.171 169.254 189.07 169.004C188.971 168.753 188.816 168.528 188.618 168.345L179.097 159.187C178.806 158.923 178.442 158.754 178.052 158.706C177.663 158.657 177.267 158.73 176.921 158.915L176.649 159.096C176.406 159.243 176.202 159.444 176.052 159.685C175.901 159.924 175.809 160.196 175.782 160.478C175.756 160.76 175.796 161.045 175.899 161.309C176.003 161.572 176.166 161.808 176.377 161.998Z" fill="#BAE8FF"/>
<path d="M200.949 154.653C202.603 152.458 203.637 149.858 203.942 147.127" stroke="black" stroke-width="2" stroke-linecap="round" stroke-linejoin="round"/>
<path d="M281.367 29.2808C282.193 25.3607 279.605 21.4964 275.587 20.6496C271.569 19.8029 267.642 22.2943 266.816 26.2144C265.99 30.1346 268.577 33.9988 272.595 34.8456C276.614 35.6923 280.541 33.2009 281.367 29.2808Z" fill="#2A39D4"/>
<path d="M329.886 96.6221C336.505 96.9848 344.484 99.705 354.458 110.767C360.08 105.145 362.8 106.687 370.326 113.125C377.852 119.562 393.992 131.803 397.981 135.884C401.971 139.964 404.963 148.759 394.082 155.378C383.201 161.998 363.888 149.847 353.733 142.775C343.577 135.702 329.886 127.451 329.886 127.451V96.6221Z" fill="#2331B5"/>
<path d="M367.334 110.586C369.97 114.929 372.187 119.514 373.953 124.278C376.038 130.806 373.409 134.614 368.059 139.057C362.709 143.5 360.533 142.503 357.722 140.236C357.553 140.139 357.353 140.106 357.161 140.145C356.97 140.182 356.797 140.287 356.677 140.441C356.555 140.595 356.494 140.787 356.503 140.982C356.512 141.177 356.591 141.363 356.725 141.506C358.162 142.767 359.984 143.502 361.893 143.591C364.16 143.591 366.427 142.503 369.147 140.236C373.771 136.337 378.124 131.894 375.404 123.734C374.395 120.798 373.152 117.947 371.686 115.21C371.116 114.112 370.347 113.128 369.419 112.309L367.334 110.586Z" fill="#3442D9"/>
<path d="M353.642 137.697C358.538 142.412 370.235 150.754 370.235 150.754" stroke="black" stroke-width="2" stroke-miterlimit="10" stroke-linecap="round"/>
<path d="M305.569 95.4651C329.023 88.7835 343.154 66.2276 337.132 45.0847C331.109 23.9416 307.212 12.2182 283.758 18.8994C260.303 25.5807 246.172 48.1367 252.195 69.2796C258.218 90.4225 282.114 102.146 305.569 95.4651Z" fill="#FF78B9"/>
<path d="M263.784 52.8272C263.784 61.5318 267.955 69.2391 273.124 70.0551C278.292 70.8712 279.561 66.3375 279.743 57.9049C279.743 55.7287 279.833 53.5527 280.015 51.2858C280.559 43.4879 277.748 39.2262 273.124 38.5008C268.499 37.7754 263.784 44.1225 263.784 52.8272Z" fill="white"/>
<path d="M302.23 53.3711C301.333 52.2041 300.802 50.797 300.705 49.3281C300.609 47.8591 300.95 46.3945 301.686 45.1198C308.94 32.7882 315.559 32.3349 320.274 32.6069C324.989 32.8789 328.616 37.3219 324.717 48.5654C330.248 54.5498 327.981 60.0809 320.093 60.8063C312.204 61.5317 307.942 60.897 302.23 53.3711Z" fill="#D11583"/>
<path d="M354.095 174.239C355.183 144.498 345.662 140.689 344.756 131.803C343.849 122.917 342.942 110.949 333.149 98.073C333.149 98.073 334.328 86.0136 334.963 77.9437C334.979 77.626 334.925 77.3087 334.805 77.0141C334.685 76.7196 334.501 76.4549 334.268 76.2388C334.034 76.0227 333.757 75.8604 333.454 75.7633C333.151 75.6661 332.83 75.6367 332.515 75.6768C326.16 76.6883 319.723 77.0831 313.292 76.8556C302.23 76.4929 287.269 75.4048 271.31 90.9098L276.479 98.1637L276.116 98.7984C275.86 99.2354 275.703 99.7241 275.657 100.229C275.612 100.733 275.677 101.242 275.85 101.718C276.023 102.195 276.3 102.627 276.659 102.984C277.019 103.341 277.452 103.615 277.929 103.785L278.927 104.148C278.927 104.148 264.328 112.943 268.681 132.801C273.033 152.658 268.409 171.881 275.753 177.775C277.239 178.956 279.004 179.734 280.878 180.036C282.751 180.338 284.672 180.152 286.453 179.498L320.093 197.451C332.333 210.961 349.743 226.104 349.743 226.104L336.323 258.111L350.468 293.746C362.528 264.187 378.396 235.171 381.206 221.751C384.017 208.332 374.95 200.443 354.095 174.239Z" fill="#2331B5"/>
<path d="M340.857 275.521C347.567 254.757 355.093 235.987 357.359 230.547C357.552 230.069 357.593 229.545 357.48 229.043C357.367 228.541 357.103 228.085 356.725 227.736C337.139 208.967 332.515 202.529 332.515 202.529" stroke="#3442D9" stroke-width="2" stroke-miterlimit="10"/>
<path d="M289.082 161.454L276.932 153.202C276.932 153.202 284.276 143.138 288.357 137.062L289.354 135.521C289.393 135.429 289.45 135.347 289.523 135.278C289.595 135.21 289.68 135.156 289.774 135.123C289.867 135.088 289.967 135.074 290.067 135.08C290.166 135.087 290.263 135.113 290.351 135.158C290.518 135.236 290.654 135.369 290.736 135.533C290.818 135.698 290.843 135.885 290.805 136.065C288.175 152.114 289.082 161.454 289.082 161.454Z" fill="black"/>
<path d="M334.782 79.4849C328.344 81.661 319.821 81.5704 309.665 81.2983C299.51 81.0263 289.264 80.7543 272.489 92.5417L275.209 96.4407C290.714 85.4693 299.056 85.7413 309.574 86.0133C320.093 86.2854 327.528 86.376 334.419 84.5626C334.51 82.8398 334.691 81.117 334.782 79.4849Z" fill="#3442D9"/>
<path d="M329.885 172.788C330.087 172.789 330.282 172.715 330.433 172.582C330.583 172.448 330.68 172.263 330.701 172.062C330.883 157.464 325.352 142.594 322.994 136.881C320.52 130.997 319.019 124.75 318.551 118.384C317.826 110.132 316.103 103.695 315.015 101.156L318.098 76.8555H316.466L313.383 101.428V101.609C314.38 103.785 316.194 110.223 316.919 118.565C317.398 125.075 318.897 131.471 321.362 137.516C323.81 143.138 329.251 157.736 329.069 171.972C329.069 172.188 329.155 172.396 329.309 172.548C329.462 172.702 329.669 172.788 329.885 172.788Z" fill="black"/>
<path d="M382.294 314.238C381.971 313.759 381.541 313.362 381.037 313.079C380.533 312.796 379.97 312.634 379.393 312.606C379.937 309.342 379.302 306.622 375.04 305.624C370.12 304.563 365.016 304.718 360.17 306.078C351.828 284.679 335.325 228.28 323.81 187.114L286.453 179.498C286.09 189.744 292.8 212.321 297.696 231.725C302.592 251.13 313.383 291.751 316.375 306.44C318.188 315.326 320.818 325.935 320.818 325.935H355.455C365.61 325.935 378.667 321.945 381.206 319.951C383.745 317.956 383.201 315.87 382.294 314.238Z" fill="#2331B5"/>
<path d="M326.712 304.99C316.012 271.259 300.417 225.922 290.896 179.86" stroke="#3442D9" stroke-width="2" stroke-miterlimit="10"/>
<path d="M308.94 174.239C309.121 171.609 305.494 161.726 301.142 154.563C296.789 147.399 294.613 142.322 290.533 144.679C286.453 147.037 276.932 153.202 276.932 153.202C276.932 153.202 284.276 143.138 288.357 137.063C297.152 123.824 294.069 105.599 278.927 104.148C266.504 111.039 264.6 116.933 252.813 137.697C241.025 158.462 234.043 180.586 246.738 189.744C259.432 198.902 271.673 192.555 294.523 182.49C304.406 178.228 308.849 176.959 308.94 174.239Z" fill="#2331B5"/>
<path d="M294.704 181.13C292.165 179.951 289.898 176.143 287.178 168.345C282.644 155.197 281.466 151.208 284.276 148.487L282.554 149.575C282.147 149.821 281.807 150.167 281.57 150.578C281.331 150.991 281.203 151.457 281.194 151.933C281.103 155.378 282.826 160.456 285.727 168.889C287.541 174.148 289.173 177.684 290.896 179.86C291.551 180.782 292.506 181.447 293.597 181.745C294.688 182.043 295.848 181.953 296.88 181.492C296.136 181.565 295.385 181.44 294.704 181.13Z" fill="#3442D9"/>
<path d="M301.142 154.562C296.88 147.399 294.613 142.321 290.533 144.679C286.453 147.036 265.598 160.184 265.598 160.184" stroke="black" stroke-width="2" stroke-miterlimit="10" stroke-linecap="round"/>
<path d="M348.02 102.425C345.22 83.5817 344.157 64.5205 344.846 45.4824C344.867 44.8745 344.745 44.2703 344.49 43.7181C344.235 43.1658 343.854 42.6809 343.378 42.302C342.902 41.9231 342.345 41.6608 341.75 41.536C341.154 41.4113 340.539 41.4275 339.95 41.5835L317.372 47.9306" stroke="#66BCFF" stroke-width="4" stroke-miterlimit="10" stroke-linecap="round"/>
<path d="M333.512 103.967C335.688 108.138 339.587 115.573 340.403 118.021C340.675 121.829 340.494 128.358 340.494 130.353C340.504 130.538 340.57 130.714 340.684 130.86C340.797 131.005 340.953 131.113 341.129 131.169C347.295 132.075 349.924 132.166 352.463 131.894C355.002 131.622 358.538 130.443 360.986 129.718C361.246 129.616 361.458 129.418 361.576 129.165C361.694 128.912 361.71 128.623 361.621 128.358C359.354 120.923 357.813 115.573 357.813 115.573C357.359 106.324 357.269 98.9796 357.269 96.5315C357.269 96.2912 357.173 96.0609 357.003 95.8904C356.833 95.7199 356.603 95.6247 356.362 95.6247C347.929 95.0807 345.028 95.0807 341.945 95.262C338.862 95.4434 337.865 97.2568 333.603 102.335C333.413 102.56 333.302 102.841 333.286 103.135C333.269 103.43 333.349 103.722 333.512 103.967Z" fill="white"/>
<path d="M360.714 128.993C360.714 128.993 361.712 129.355 360.986 129.718C361.246 129.616 361.458 129.418 361.576 129.165C361.694 128.912 361.71 128.623 361.621 128.358C359.354 120.923 357.813 115.573 357.813 115.573C357.359 106.324 357.269 98.9796 357.269 96.5315C357.269 96.2912 357.173 96.0609 357.003 95.8904C356.833 95.7199 356.603 95.6247 356.362 95.6247C347.929 95.0807 345.028 95.0807 341.945 95.262C341.289 95.3065 340.646 95.4597 340.041 95.7154L348.02 112.581L347.476 128.086L360.714 128.993Z" fill="#FFE75C"/>
<path d="M348.474 128.539C350.015 134.07 351.375 137.969 354.821 138.695C358.266 139.42 362.347 135.884 367.606 130.625C372.865 125.366 371.051 120.923 368.784 116.752C366.518 112.581 366.155 107.322 363.344 105.145C359.865 102.587 356.126 100.399 352.191 98.6169C349.018 97.2568 347.114 97.2568 342.308 102.697C337.502 108.138 334.691 111.311 335.507 113.487C336.323 115.664 337.683 118.021 337.683 118.021C335.507 120.197 335.507 122.011 336.414 124.278C337.321 126.544 337.683 128.63 342.308 128.63L348.474 128.539Z" fill="#FF78B9"/>
<path d="M337.865 117.024L350.559 105.055" stroke="black" stroke-width="2" stroke-miterlimit="10" stroke-linecap="round"/>
<path d="M349.471 121.739C346.62 123.538 343.651 125.143 340.585 126.544C340.494 128.267 340.494 129.627 340.494 130.353C340.504 130.538 340.57 130.715 340.684 130.861C340.798 131.006 340.953 131.113 341.129 131.169C347.295 132.076 349.924 132.166 352.463 131.894C355.002 131.622 358.538 130.443 360.986 129.718C361.246 129.616 361.458 129.418 361.576 129.165C361.694 128.912 361.71 128.623 361.621 128.358L361.077 126.544C357.03 125.413 353.133 123.8 349.471 121.739Z" fill="white"/>
<path d="M361.077 126.544C357.03 125.413 353.133 123.8 349.471 121.739L347.657 122.918L347.476 127.905C347.499 127.967 347.535 128.024 347.582 128.07C347.629 128.118 347.686 128.154 347.748 128.177L360.714 128.993C360.714 128.993 361.712 129.355 360.986 129.718C361.258 129.62 361.483 129.427 361.621 129.174C361.621 129.083 361.712 128.902 361.712 128.811C361.726 128.654 361.695 128.498 361.621 128.358L361.077 126.635V126.544Z" fill="#FFE75C"/>
<path d="M293.707 146.946C296.559 143.624 298.662 139.728 299.872 135.521C300.779 132.801 301.776 128.902 302.139 127.451C302.502 126 304.225 125.184 306.31 125.638C308.396 126.091 309.302 126.454 308.94 130.171C308.577 133.889 307.761 142.684 307.761 142.684L293.707 146.946Z" fill="#FF78B9"/>
<path d="M335.416 149.122C334.056 145.405 333.421 143.5 332.243 141.959C331.064 140.417 329.976 140.145 324.717 139.873C322.631 139.783 318.642 139.873 316.012 139.964C321.181 138.604 326.712 137.425 327.89 137.063C329.069 136.7 331.427 136.337 330.611 134.07C329.795 131.804 329.069 131.259 327.8 131.259C324.546 131.197 321.295 131.471 318.098 132.076C313.433 132.99 308.853 134.293 304.406 135.974C301.776 137.063 298.422 141.959 293.707 146.946C295.792 154.291 300.779 165.534 305.857 170.884C312.567 168.254 316.556 162.451 318.188 160.275C326.621 158.824 329.523 159.731 334.238 160.366C337.139 160.728 337.411 158.643 337.592 157.645C337.774 156.648 336.595 152.568 335.416 149.122Z" fill="#FF78B9"/>
<path d="M266.504 52.9175C266.232 56.7258 267.502 59.8994 269.315 60.0807C271.129 60.2621 272.036 58.8113 272.126 55.275C272.168 53.7802 272.35 52.2927 272.67 50.832C273.305 47.6585 271.945 46.4797 270.403 46.389C268.862 46.2984 266.777 49.1999 266.504 52.9175Z" fill="black"/>
<path d="M297.606 8.12509C299.487 7.73433 301.447 8.04381 303.117 8.99544C304.786 9.94705 306.051 11.4754 306.673 13.2934C308.033 17.5551 309.212 23.9929 301.958 25.1717C298.875 25.625 295.701 24.2649 290.805 20.4566C287.269 17.6458 283.461 16.6484 275.209 20.91C270.766 17.8271 272.942 9.93853 285.002 13.9282C279.743 7.12768 281.284 2.41267 285.093 1.05257C288.901 -0.307531 294.613 0.417859 297.606 8.12509Z" fill="#2A39D4"/>
<path d="M297.606 21.182C294.976 17.9177 292.8 13.5654 290.986 9.84781C289.173 6.13019 287.36 2.23124 285.365 1.05249H285.093C284.38 1.30152 283.73 1.70389 283.189 2.23124L283.823 2.04989C285.546 2.23123 287.45 6.22086 289.536 10.4825C291.621 14.7442 293.616 18.7338 296.336 22.1794C297.25 23.2608 298.285 24.2343 299.419 25.0809C300.255 25.2465 301.113 25.2771 301.958 25.1716H302.049C300.378 24.0689 298.881 22.7244 297.606 21.182Z" fill="black"/>
<path d="M306.763 22.4514C306.374 23.0212 305.883 23.5133 305.313 23.9022C304.883 17.8825 302.194 12.2473 297.787 8.12502C298.47 7.95815 299.178 7.92733 299.872 8.03434C303.667 11.9693 306.084 17.0274 306.763 22.4514Z" fill="black"/>
<path d="M316.012 304.446C316.103 305.171 316.284 305.806 316.375 306.44C318.188 315.326 320.818 325.935 320.818 325.935H355.455C365.61 325.935 378.667 321.945 381.206 319.951C383.745 317.956 383.201 315.87 382.294 314.238C381.971 313.76 381.541 313.362 381.037 313.079C380.533 312.796 379.97 312.634 379.393 312.606C379.937 309.342 379.302 306.622 375.04 305.624C370.121 304.563 365.017 304.718 360.17 306.078C358.901 302.723 357.359 298.552 355.727 293.746C340.494 293.474 324.989 292.205 316.012 304.446Z" fill="#45AAF7"/>
<path d="M316.012 304.446C316.103 305.171 316.284 305.806 316.375 306.44C318.188 315.326 320.818 325.935 320.818 325.935H355.455C365.61 325.935 378.667 321.945 381.206 319.951C383.745 317.956 383.201 315.87 382.294 314.238C381.971 313.76 381.541 313.362 381.037 313.079C380.533 312.796 379.97 312.634 379.393 312.606C379.937 309.342 379.302 306.622 375.04 305.624C370.121 304.563 365.017 304.718 360.17 306.078C358.901 302.723 357.359 298.552 355.727 293.746C340.494 293.474 324.989 292.205 316.012 304.446Z" fill="#45AAF7"/>
<path d="M360.17 306.078L358.991 306.35H358.81L348.927 308.344C348.768 308.134 348.674 307.882 348.655 307.619C347.909 305.055 347.513 302.401 347.476 299.73C347.385 294.199 344.484 293.655 339.497 293.746L339.769 293.111C340.439 291.354 341.634 289.845 343.192 288.791C344.748 287.736 346.593 287.188 348.473 287.217H356.725C357.208 287.224 357.683 287.334 358.119 287.542C358.555 287.75 358.941 288.048 359.251 288.419C359.561 288.789 359.787 289.221 359.914 289.686C360.042 290.153 360.068 290.64 359.989 291.116C358.991 295.378 358.719 300.637 359.717 304.536C359.814 305.065 359.965 305.582 360.17 306.078Z" fill="#8CD9FF"/>
<path d="M325.17 311.609C323.939 311.195 322.636 311.038 321.342 311.148C320.047 311.257 318.79 311.63 317.645 312.244C317.723 312.797 317.843 313.343 318.007 313.876C318.984 313.265 320.083 312.875 321.227 312.734C322.37 312.593 323.531 312.704 324.626 313.06C329.704 314.782 333.422 321.402 335.326 325.935H337.049C335.054 321.22 331.064 313.604 325.17 311.609Z" fill="#5865F2"/>
<path d="M382.023 319.134L381.207 319.95C378.668 321.945 365.611 325.935 355.455 325.935H334.782V325.572C358.538 325.21 374.678 315.326 380.209 315.326C382.023 315.326 383.111 318.046 382.023 319.134Z" fill="black"/>
<path d="M359.264 125.275C360.556 127.009 362.418 128.229 364.523 128.72" stroke="black" stroke-width="2" stroke-miterlimit="10" stroke-linecap="round"/>
<path d="M319.458 118.293C318.556 118.298 317.684 117.966 317.013 117.362C316.343 116.759 315.921 115.927 315.831 115.029L315.105 106.778H316.738L321.543 114.666C321.746 115.034 321.851 115.449 321.846 115.869C321.842 116.289 321.73 116.702 321.521 117.066C321.311 117.431 321.011 117.735 320.65 117.949C320.288 118.164 319.878 118.283 319.458 118.293Z" fill="#FFE75C"/>
<path d="M278.927 104.148H287.813" stroke="black" stroke-width="2" stroke-miterlimit="10" stroke-linecap="round"/>
<path d="M329.432 207.153C328.344 203.254 326.712 197.723 326.712 197.723C334.003 192.969 340.943 187.696 347.476 181.946C347.476 181.946 339.95 198.63 336.595 214.135L329.432 207.153Z" fill="black"/>
<path d="M349.743 226.104L358.538 225.741" stroke="black" stroke-width="2" stroke-miterlimit="10" stroke-linecap="round"/>
<path d="M360.17 306.078L358.991 306.35H358.81C354.87 307.28 350.994 308.461 347.204 309.886H346.932C346.771 309.878 346.616 309.821 346.487 309.724C346.358 309.628 346.26 309.494 346.207 309.342C346.164 309.248 346.141 309.145 346.141 309.041C346.141 308.938 346.163 308.834 346.206 308.74C346.249 308.646 346.312 308.561 346.39 308.493C346.469 308.424 346.56 308.374 346.66 308.344L348.655 307.528C352.274 306.27 355.968 305.241 359.717 304.446C359.807 305.005 359.959 305.553 360.17 306.078Z" fill="black"/>
<path d="M335.688 149.847L335.416 149.122L335.054 148.215C327.165 147.399 318.914 146.855 310.844 147.671C310.737 147.683 310.633 147.717 310.538 147.768C310.444 147.82 310.36 147.891 310.293 147.975C310.226 148.058 310.176 148.155 310.146 148.259C310.117 148.362 310.107 148.471 310.118 148.578C310.13 148.685 310.164 148.789 310.215 148.884C310.268 148.978 310.338 149.061 310.422 149.128C310.506 149.196 310.603 149.246 310.706 149.276C310.809 149.306 310.918 149.315 311.025 149.303C319.186 148.397 327.618 149.031 335.688 149.847Z" fill="black"/>
<path d="M274.121 48.8374L268.862 51.3763L276.207 54.7312L274.121 48.8374Z" fill="white"/>
<path d="M382.023 319.135C382.567 318.409 381.932 317.956 380.209 317.956C374.678 317.956 358.538 325.573 334.782 325.935H320.818L319.821 321.946C330.702 321.946 342.58 321.764 353.642 318.228C364.704 314.692 372.049 311.7 379.393 312.606C379.971 312.634 380.534 312.796 381.037 313.08C381.541 313.362 381.971 313.76 382.295 314.238C382.786 314.974 383.026 315.849 382.977 316.732C382.928 317.615 382.593 318.458 382.023 319.135Z" fill="white"/>
<path d="M353.642 290.119H354.73C357.269 290.119 358.992 290.21 359.536 290.845C360.08 291.479 359.808 291.751 359.626 292.658C359.704 292.135 359.826 291.62 359.989 291.117C360.068 290.553 359.921 289.981 359.583 289.523C359.244 289.065 358.739 288.758 358.175 288.668H353.642C349.471 288.668 344.756 288.668 342.308 294.018C342.864 294.004 343.418 294.096 343.94 294.29C346.025 290.029 349.743 290.119 353.642 290.119Z" fill="#3442D9"/>
<path d="M319.458 43.8503C318.279 45.7545 316.194 47.9306 311.569 48.8374C317.916 48.112 320.637 51.6482 320.637 51.6482" stroke="black" stroke-width="2" stroke-linecap="round" stroke-linejoin="round"/>
<path d="M201.311 325.935H141.013V313.241C141.003 309.96 142.272 306.806 144.55 304.446L150.534 298.642C151.301 297.92 151.913 297.048 152.334 296.083C152.756 295.116 152.976 294.074 152.982 293.021V278.513C152.99 275.608 153.979 272.791 155.79 270.519C157.6 268.247 160.126 266.655 162.956 266C172.658 263.552 182.723 263.098 190.974 264.731C193.895 265.335 196.517 266.928 198.4 269.24C200.283 271.553 201.311 274.443 201.311 277.425V325.935Z" fill="#45AAF7"/>
<path d="M156.519 301.634H156.881C157.024 301.643 157.165 301.614 157.293 301.549C157.42 301.486 157.528 301.391 157.607 301.272C160.327 296.013 160.327 287.852 160.327 279.147C160.327 270.443 161.143 267.179 166.946 265.002L163.863 265.637C163.068 265.817 162.323 266.17 161.68 266.672C161.038 267.173 160.514 267.811 160.145 268.539C158.876 271.078 158.695 274.432 158.695 279.147C158.695 287.671 158.695 295.65 156.156 300.546C156.095 300.638 156.055 300.743 156.04 300.853C156.025 300.963 156.036 301.074 156.071 301.179C156.106 301.284 156.164 301.38 156.242 301.459C156.32 301.537 156.414 301.598 156.519 301.634Z" fill="#BAE8FF"/>
<path d="M201.312 277.425C201.307 274.43 200.266 271.53 198.365 269.216C196.464 266.902 193.821 265.317 190.885 264.73C186.035 263.896 181.106 263.622 176.195 263.914C164.588 264.73 166.312 272.075 166.312 282.774V291.932C166.317 294.993 165.503 297.998 163.954 300.637C162.231 303.448 161.778 306.894 161.778 313.603V325.935H201.312V277.425Z" fill="#3F99F2"/>
<path d="M186.804 311.337C186.259 295.559 179.096 281.777 171.842 268.629C171.657 268.368 171.549 268.061 171.528 267.742C171.508 267.423 171.577 267.103 171.727 266.82C171.878 266.539 172.104 266.304 172.381 266.142C172.658 265.982 172.974 265.901 173.293 265.909H175.107C175.487 265.93 175.857 266.04 176.187 266.228C176.518 266.417 176.8 266.681 177.011 266.997C184.446 280.689 192.244 294.925 192.788 311.337C193.06 319.588 186.804 325.935 178.462 325.935H172.477C180.819 325.935 187.076 319.588 186.804 311.337Z" fill="#3543DE"/>
<path d="M203.85 311.337C203.306 295.559 196.052 281.777 188.889 268.629C188.704 268.368 188.595 268.061 188.575 267.742C188.554 267.423 188.624 267.103 188.774 266.82C188.925 266.539 189.15 266.304 189.428 266.142C189.704 265.982 190.021 265.901 190.341 265.909H192.154C192.523 265.922 192.884 266.028 193.202 266.218C193.519 266.409 193.783 266.677 193.968 266.997C201.494 280.689 209.201 294.925 209.836 311.337C209.924 313.254 209.614 315.169 208.93 316.962C208.244 318.755 207.197 320.387 205.852 321.757C204.508 323.127 202.896 324.205 201.116 324.924C199.337 325.643 197.428 325.987 195.508 325.935H189.524C191.443 325.987 193.352 325.643 195.131 324.924C196.911 324.205 198.523 323.127 199.868 321.757C201.213 320.387 202.26 318.755 202.945 316.962C203.631 315.169 203.938 313.254 203.85 311.337Z" fill="#3543DE"/>
<path d="M189.07 286.855L207.477 290.028C208.928 293.837 209.653 296.375 209.835 298.824C210.016 301.272 207.658 302.632 204.032 304.083C201.428 305.17 199.035 306.705 196.959 308.616C191.7 313.241 187.257 316.052 179.55 316.052C178.008 316.052 176.92 316.142 176.013 315.145C175.051 314.06 174.481 312.682 174.399 311.234C174.317 309.786 174.726 308.353 175.56 307.166C176.492 305.901 177.626 304.798 178.915 303.901C181.655 302.124 183.97 299.764 185.694 296.99C187.418 294.217 188.509 291.096 188.889 287.852C188.98 287.399 188.98 287.127 189.07 286.855Z" fill="#DE3A93"/>
<path d="M204.033 304.083C205.561 303.511 206.997 302.716 208.293 301.725C210.016 300.093 209.291 298.552 205.573 298.642C201.856 298.733 197.957 301.635 190.159 306.44C182.361 311.246 170.756 316.052 179.551 316.052C188.346 316.052 191.7 313.241 196.959 308.617C199.035 306.705 201.429 305.17 204.033 304.083Z" fill="black"/>
<path d="M187.075 281.324C185.715 281.596 185.897 283.137 186.622 284.679C185.171 287.399 186.079 288.487 188.618 289.575C193.747 291.32 199.166 292.058 204.576 291.751C210.107 291.207 209.744 289.394 209.2 287.58C211.104 285.948 210.833 284.044 208.929 283.228C207.024 282.412 196.778 279.238 187.075 281.324Z" fill="#66BCFF"/>
<path d="M227.97 186.661H204.213V199.618H227.97V186.661Z" fill="white"/>
<path d="M276.298 186.933C276.752 188.775 276.781 190.698 276.382 192.553C275.984 194.409 275.168 196.149 273.998 197.643C272.827 199.137 271.332 200.345 269.625 201.176C267.919 202.006 266.047 202.438 264.148 202.438H238.215L226.065 209.239V208.876C220.534 208.876 217.361 207.062 219.809 186.752C218.721 181.039 213.644 158.552 210.833 141.778C208.294 126.454 214.006 120.832 229.784 111.946C236.493 91.9979 253.902 93.1766 257.257 105.146C260.612 117.114 271.674 167.982 276.298 186.933Z" fill="#66BCFF"/>
<path d="M227.607 215.676L223.436 216.402C223.232 216.442 223.039 216.526 222.87 216.648C222.701 216.768 222.56 216.925 222.457 217.105C222.354 217.286 222.29 217.486 222.272 217.694C222.253 217.901 222.278 218.11 222.348 218.306L223.255 220.573C210.651 221.298 199.68 222.386 195.328 226.195C190.975 230.003 190.975 235.806 188.98 253.125C186.986 270.443 183.721 280.78 188.98 283.137C194.319 285.43 200.16 286.305 205.936 285.676C211.739 285.132 212.284 282.14 213.462 273.163C214.641 264.187 217.451 244.239 217.451 244.239H263.241C274.575 244.239 281.286 236.803 282.827 230.456C283.915 225.923 282.465 215.223 279.835 202.529H238.216L226.065 209.329L226.972 213.228L227.607 215.676Z" fill="#3442D9"/>
<path d="M265.78 202.71C270.314 225.378 271.22 242.425 253.992 250.223" stroke="#2330BF" stroke-width="2" stroke-miterlimit="10"/>
<path d="M230.146 191.285C230.146 191.285 232.05 202.438 234.679 215.676C237.671 230.909 236.855 230.365 216.091 231.725C197.866 232.904 199.498 231.998 195.69 252.762C194.239 260.922 191.7 275.702 192.425 283.863C192.425 283.863 191.609 288.668 191.791 289.666" stroke="#2467D4" stroke-width="2" stroke-linecap="round" stroke-linejoin="round"/>
<path d="M217.451 244.238C207.387 242.697 202.49 233.63 202.49 233.63" stroke="black" stroke-width="2" stroke-linecap="round" stroke-linejoin="round"/>
<path d="M217.451 244.238C215.392 243.025 213.593 241.414 212.161 239.499C210.73 237.585 209.692 235.404 209.109 233.085" stroke="black" stroke-width="2" stroke-linecap="round" stroke-linejoin="round"/>
<path d="M276.298 186.933C273.941 177.14 269.77 159.005 265.871 142.05L245.56 140.508L229.874 151.57L220.807 163.72L216.182 169.977C217.815 177.775 219.174 184.122 219.718 186.842C217.27 207.153 220.443 208.966 225.974 208.966L242.024 202.166L279.2 199.536C278.294 195.456 277.295 191.194 276.298 186.933Z" fill="#EB459F"/>
<path d="M234.743 176.725C235.886 169.961 235.293 164.219 233.416 163.902C231.54 163.585 229.092 168.811 227.948 175.576C226.803 182.34 227.397 188.081 229.273 188.398C231.149 188.716 233.598 183.489 234.743 176.725Z" fill="black"/>
<path d="M222.892 159.912C223.798 158.28 224.797 156.648 225.794 155.197C236.04 140.417 245.651 136.428 254.899 136.428H266.415C266.587 136.432 266.755 136.478 266.906 136.559C267.057 136.641 267.186 136.758 267.283 136.899C267.38 137.041 267.443 137.203 267.466 137.373C267.488 137.544 267.47 137.717 267.413 137.879L265.871 142.049C248.189 142.049 241.933 141.505 227.244 156.92L220.807 163.72L222.892 159.912Z" fill="#D11583"/>
<path d="M279.201 199.536H249.187C242.477 199.536 234.226 199.174 225.974 208.966L226.972 213.228C231.778 208.604 236.221 206.609 245.832 206.609H280.651L279.201 199.536Z" fill="black"/>
<path d="M227.244 157.464C221.169 158.552 216.363 161.726 213.643 167.347C212.87 168.907 211.755 170.271 210.379 171.337L194.058 183.215C192.223 184.517 190.945 186.461 190.474 188.66C190.004 190.86 190.377 193.156 191.519 195.094C192.315 196.454 193.455 197.58 194.823 198.36C196.192 199.139 197.742 199.546 199.317 199.537H206.117C220.262 191.648 226.791 186.298 230.146 183.215C233.5 180.132 237.218 174.601 236.583 168.254C235.949 161.907 234.135 156.195 227.244 157.464Z" fill="white"/>
<path d="M232.322 110.586C230.145 106.959 227.244 102.153 226.156 99.8863C225.068 97.6195 222.438 98.1635 226.156 108.319C217.089 104.873 215.184 106.143 214.731 107.412C214.278 108.682 216.272 109.316 220.081 111.493C223.889 113.669 227.969 116.298 227.969 116.298L232.322 110.586Z" fill="#66BCFF"/>
<path d="M241.752 110.858C243.293 108.954 243.838 106.868 242.931 106.143C242.024 105.417 241.026 105.78 239.666 107.594C239.079 108.331 238.444 109.028 237.762 109.679C236.22 111.13 236.583 112.218 237.309 112.853C238.034 113.487 240.21 112.762 241.752 110.858Z" fill="black"/>
<path d="M257.166 105.236C257.166 105.236 246.376 100.34 241.752 97.3476C237.128 94.3553 234.77 89.9124 236.856 88.7336C238.941 87.5548 242.932 90.3657 245.742 93.9926C245.652 87.5548 246.74 86.1948 248.463 86.1042C250.185 86.0135 250.366 88.5522 250.457 92.1792C250.547 95.8061 251.183 97.2569 253.903 99.7051C255.531 101.171 256.67 103.102 257.166 105.236Z" fill="#3442D9"/>
<path d="M217.543 135.34C215.004 135.34 212.828 133.164 214.823 129.355C216.818 125.547 223.345 121.739 226.519 120.288C229.692 118.837 231.144 120.288 231.235 121.376C231.325 122.464 230.871 124.096 228.604 126.998C226.337 129.899 222.167 135.34 217.543 135.34Z" fill="white"/>
<path d="M219.537 135.067L217.996 135.34L215.82 127.904L217.089 126.544L219.537 135.067Z" fill="#8CD9FF"/>
<path d="M225.159 131.078L223.89 132.347L221.35 123.189L222.71 122.283L225.159 131.078Z" fill="#8CD9FF"/>
<path d="M230.237 124.731L229.058 126.363L227.244 120.016L228.786 119.744L230.237 124.731Z" fill="#8CD9FF"/>
<path d="M228.242 118.928C229.92 119.729 231.646 120.427 233.411 121.013" stroke="black" stroke-width="2" stroke-linecap="round" stroke-linejoin="round"/>
<path d="M225.974 219.938L235.949 232.088" stroke="black" stroke-width="2" stroke-linecap="round" stroke-linejoin="round"/>
<path d="M233.772 216.311H230.237L229.148 211.324L228.151 206.699C229.069 205.799 230.039 204.951 231.052 204.161L232.231 209.238L233.772 216.311Z" fill="#3442D9"/>
<path d="M249.459 211.505H245.923L244.835 206.609L243.385 199.718H246.92L248.372 206.7L249.459 211.505Z" fill="#3442D9"/>
<path d="M278.385 211.324H274.848L273.761 206.609L272.309 199.536H275.845L277.296 206.609L278.385 211.324Z" fill="#3442D9"/>
<path d="M268.682 154.018C266.946 152.642 264.82 151.849 262.607 151.752C257.892 151.752 255.263 156.376 254.356 160.819C254.21 161.532 253.825 162.172 253.264 162.634C252.702 163.097 252 163.351 251.273 163.358H250.639C250.23 163.283 249.84 163.126 249.493 162.895C249.146 162.666 248.85 162.369 248.621 162.021C248.393 161.674 248.236 161.284 248.162 160.875C248.088 160.465 248.098 160.045 248.19 159.64C249.913 151.026 255.535 145.495 262.607 145.495C263.777 145.51 264.908 145.921 265.815 146.663C266.72 147.404 267.348 148.431 267.594 149.575L268.682 154.018Z" fill="white"/>
<path d="M276.298 186.933C276.499 187.743 276.531 188.587 276.395 189.41C276.259 190.234 275.958 191.022 275.508 191.726C275.059 192.429 274.471 193.034 273.781 193.504C273.091 193.974 272.312 194.299 271.493 194.459L269.227 194.64C264.058 194.64 258.708 191.557 254.537 186.207C254.287 185.874 254.105 185.495 254.002 185.091C253.898 184.687 253.876 184.267 253.935 183.854C253.993 183.442 254.133 183.045 254.345 182.687C254.557 182.327 254.839 182.015 255.172 181.764C255.5 181.502 255.88 181.31 256.285 181.2C256.69 181.09 257.114 181.064 257.531 181.122C257.947 181.182 258.346 181.326 258.705 181.546C259.063 181.765 259.373 182.055 259.614 182.399C262.516 186.117 266.053 188.384 269.227 188.384C272.4 188.384 274.304 186.57 275.664 184.213C275.846 185.21 276.117 186.117 276.298 186.933Z" fill="#2331B5"/>
<path d="M270.223 161C269.583 161.004 268.96 161.206 268.44 161.58C267.92 161.953 267.529 162.48 267.322 163.086L263.513 173.332C263.181 174.294 263.188 175.341 263.534 176.299C263.881 177.256 264.546 178.065 265.417 178.591C265.812 178.833 266.256 178.984 266.716 179.032C267.176 179.08 267.642 179.022 268.078 178.866C268.513 178.709 268.907 178.456 269.232 178.126C269.557 177.796 269.802 177.397 269.951 176.959L272.4 170.34C271.765 167.347 271.039 164.264 270.223 161Z" fill="#5865F2"/>
<path d="M265.417 178.591C264.546 178.065 263.881 177.256 263.534 176.299C263.188 175.341 263.181 174.294 263.513 173.332L264.601 170.521C264.784 170.03 265.07 169.585 265.44 169.215C265.811 168.846 266.257 168.562 266.748 168.38C267.239 168.2 267.763 168.127 268.285 168.168C268.807 168.209 269.314 168.362 269.77 168.617C270.516 169.053 271.087 169.734 271.385 170.545C271.682 171.356 271.688 172.245 271.402 173.06L269.951 176.959C269.802 177.397 269.557 177.796 269.232 178.126C268.907 178.456 268.513 178.709 268.078 178.866C267.642 179.023 267.176 179.08 266.716 179.032C266.256 178.984 265.812 178.834 265.417 178.591Z" fill="#FFE75C"/>
<path d="M217.361 193.099C214.457 195.117 211.195 196.563 207.749 197.36" stroke="#A3D7FF" stroke-width="2" stroke-linecap="round" stroke-linejoin="round"/>
<path d="M252.452 325.935H236.584C226.882 325.935 217.905 318.137 216.545 308.526C215.185 298.914 221.351 293.837 231.779 291.57L233.592 291.116C235.06 290.809 236.356 289.953 237.216 288.724C238.075 287.493 238.432 285.982 238.217 284.497C238.04 283.053 237.379 281.71 236.341 280.689C235.304 279.668 233.951 279.029 232.504 278.876L229.875 278.604C218.631 277.425 211.196 270.806 209.836 261.194C208.476 251.583 215.186 244.238 224.616 244.238H240.483C250.185 244.238 259.161 252.036 260.521 261.648L267.232 308.979C268.501 318.318 261.882 325.935 252.452 325.935Z" fill="#ADB4FF"/>
<path d="M270.858 325.935H254.99C245.288 325.935 236.311 318.137 234.951 308.526C234.399 304.989 235.164 301.372 237.104 298.363C239.043 295.354 242.02 293.162 245.469 292.205C246.742 291.863 247.845 291.063 248.564 289.959C249.284 288.854 249.57 287.523 249.368 286.22L248.915 282.774C248.742 281.678 248.242 280.66 247.482 279.851C246.722 279.043 245.737 278.482 244.653 278.241C236.402 276.518 229.42 269.536 228.241 261.194C227.062 252.852 233.591 244.238 243.021 244.238H258.889C268.591 244.238 277.568 252.036 278.928 261.648L285.637 308.979C286.907 318.318 280.288 325.935 270.858 325.935Z" fill="white"/>
<path d="M266.868 260.197C266.935 260.65 266.901 261.112 266.771 261.551C266.641 261.99 266.418 262.396 266.116 262.74C265.815 263.085 265.442 263.36 265.024 263.547C264.606 263.734 264.153 263.828 263.695 263.824H247.012C246.004 263.796 245.037 263.419 244.276 262.757C243.515 262.096 243.008 261.191 242.84 260.197V259.653C242.757 259.209 242.776 258.752 242.895 258.317C243.014 257.882 243.23 257.479 243.526 257.139C243.823 256.799 244.193 256.53 244.608 256.353C245.022 256.176 245.472 256.096 245.923 256.116H262.697C263.692 256.14 264.649 256.505 265.408 257.147C266.167 257.791 266.683 258.675 266.868 259.653V260.197Z" fill="#66BCFF"/>
<path d="M259.614 266.907C259.695 267.355 259.675 267.815 259.557 268.254C259.438 268.694 259.223 269.101 258.929 269.448C258.634 269.795 258.267 270.072 257.852 270.26C257.438 270.448 256.987 270.541 256.532 270.534H256.079C255.071 270.506 254.104 270.129 253.343 269.467C252.583 268.806 252.075 267.901 251.907 266.907L249.913 252.943C249.845 252.494 249.879 252.036 250.009 251.601C250.139 251.167 250.364 250.766 250.668 250.428C250.97 250.09 251.344 249.824 251.763 249.647C252.181 249.47 252.632 249.389 253.087 249.407H253.54C254.535 249.43 255.491 249.795 256.25 250.438C257.009 251.082 257.524 251.966 257.71 252.943L259.614 266.907Z" fill="#66BCFF"/>
<path d="M261.701 287.943C261.725 288.129 261.713 288.317 261.661 288.498C261.61 288.678 261.522 288.846 261.403 288.991C261.284 289.136 261.136 289.255 260.968 289.339C260.801 289.424 260.618 289.473 260.43 289.484H260.159C259.742 289.452 259.348 289.284 259.037 289.005C258.726 288.726 258.515 288.354 258.437 287.943L257.621 282.14C257.592 281.95 257.607 281.758 257.664 281.575C257.721 281.393 257.819 281.226 257.95 281.086C258.08 280.947 258.241 280.839 258.419 280.77C258.598 280.701 258.789 280.674 258.981 280.689H259.161C259.575 280.684 259.976 280.828 260.293 281.094C260.609 281.36 260.819 281.732 260.884 282.14L261.701 287.943Z" fill="#ADB4FF"/>
<path d="M261.337 306.259C260.343 306.235 259.387 305.871 258.628 305.228C257.869 304.584 257.353 303.7 257.167 302.723V302.179C257.084 301.735 257.103 301.278 257.222 300.843C257.341 300.408 257.556 300.005 257.853 299.665C258.149 299.325 258.519 299.056 258.935 298.879C259.349 298.702 259.799 298.622 260.25 298.642H260.704C261.686 298.661 262.632 299.013 263.389 299.639C264.147 300.264 264.67 301.128 264.875 302.088V302.723C264.942 303.172 264.908 303.629 264.778 304.065C264.648 304.499 264.423 304.9 264.119 305.238C263.816 305.575 263.443 305.842 263.024 306.019C262.606 306.195 262.154 306.277 261.701 306.259H261.337Z" fill="#66BCFF"/>
<path d="M263.695 319.769H263.241C262.242 319.763 261.276 319.405 260.514 318.758C259.752 318.112 259.241 317.218 259.07 316.233V315.417C259.032 314.982 259.086 314.544 259.229 314.131C259.372 313.72 259.602 313.341 259.902 313.025C260.202 312.708 260.566 312.457 260.97 312.291C261.373 312.125 261.808 312.048 262.244 312.062H262.697C263.68 312.081 264.626 312.433 265.384 313.058C266.141 313.683 266.664 314.546 266.868 315.508V316.142C266.951 316.598 266.929 317.066 266.806 317.512C266.682 317.958 266.459 318.371 266.155 318.719C265.85 319.068 265.471 319.343 265.045 319.525C264.619 319.707 264.158 319.79 263.695 319.769Z" fill="#FF78B9"/>
<path d="M261.791 306.259H261.337C260.343 306.235 259.387 305.871 258.628 305.228C257.869 304.584 257.353 303.7 257.167 302.723V302.179C257.084 301.735 257.103 301.278 257.222 300.843C257.341 300.408 257.556 300.005 257.853 299.665C258.149 299.325 258.519 299.056 258.935 298.879C259.349 298.702 259.799 298.622 260.25 298.642H260.704C261.686 298.661 262.632 299.013 263.389 299.639C264.147 300.264 264.67 301.128 264.875 302.088V302.723C264.94 303.164 264.909 303.614 264.784 304.042C264.659 304.47 264.442 304.866 264.148 305.202C263.855 305.538 263.493 305.807 263.086 305.99C262.679 306.172 262.237 306.263 261.791 306.259Z" fill="#5865F2"/>
<path d="M270.405 312.969C269.41 312.945 268.454 312.581 267.695 311.938C266.936 311.294 266.42 310.41 266.234 309.433V308.889C266.151 308.445 266.17 307.988 266.289 307.553C266.408 307.118 266.623 306.715 266.92 306.375C267.216 306.035 267.586 305.766 268.002 305.589C268.416 305.412 268.866 305.331 269.317 305.352H269.771C270.753 305.371 271.699 305.723 272.456 306.349C273.214 306.974 273.737 307.838 273.942 308.798V309.433C274.024 309.876 274.005 310.333 273.886 310.768C273.768 311.203 273.552 311.606 273.255 311.946C272.959 312.286 272.589 312.555 272.174 312.732C271.759 312.909 271.309 312.991 270.858 312.969H270.405Z" fill="#66BCFF"/>
<path d="M270.858 312.969H270.405C269.41 312.945 268.454 312.581 267.695 311.938C266.936 311.294 266.42 310.41 266.234 309.433V308.889C266.151 308.445 266.17 307.988 266.289 307.553C266.408 307.118 266.623 306.715 266.92 306.375C267.216 306.035 267.586 305.766 268.002 305.589C268.416 305.412 268.866 305.331 269.317 305.352H269.771C270.753 305.371 271.699 305.723 272.456 306.349C273.214 306.974 273.737 307.838 273.942 308.798V309.433C274.024 309.876 274.005 310.333 273.886 310.768C273.768 311.203 273.552 311.606 273.255 311.946C272.959 312.286 272.589 312.555 272.174 312.732C271.759 312.909 271.309 312.991 270.858 312.969Z" fill="#5865F2"/>
<path d="M254.627 313.15H254.083C253.087 313.118 252.132 312.738 251.387 312.076C250.641 311.413 250.152 310.51 250.003 309.523V308.707C249.95 308.277 249.992 307.841 250.125 307.429C250.257 307.016 250.477 306.637 250.77 306.318C251.063 305.999 251.422 305.748 251.822 305.581C252.222 305.414 252.653 305.336 253.086 305.352H253.63C254.609 305.397 255.545 305.769 256.285 306.411C257.026 307.053 257.528 307.926 257.71 308.888V309.433C257.806 309.887 257.798 310.357 257.687 310.808C257.575 311.259 257.363 311.679 257.067 312.036C256.771 312.393 256.397 312.68 255.975 312.873C255.552 313.065 255.092 313.16 254.627 313.15Z" fill="#FF78B9"/>
<path d="M107.464 307.8L98.6688 302.904C105.573 291.534 113.174 280.602 121.428 270.171C105.197 276.065 88.1507 283.409 69.2906 283.409H37.7363C35.8322 279.51 35.2881 275.521 35.2881 269.536L73.8243 255.482L88.4227 258.474L88.8761 262.645C102.84 259.109 117.257 255.028 127.684 252.58C140.832 249.497 145.275 256.117 137.658 267.179C122.969 288.578 107.464 307.8 107.464 307.8Z" fill="#29CC7A"/>
<path d="M46.4415 265.909C46.4415 273.617 46.4415 279.057 50.1591 282.14C51.0534 282.951 52.2161 283.403 53.4234 283.409H57.2317C47.983 281.868 47.983 276.881 48.0737 265.909V265.184C48.0737 265.093 47.983 265.003 47.983 264.912L46.4415 265.456V265.909Z" fill="#15AD75"/>
<path d="M107.464 303.72C121.609 285.042 130.677 272.075 134.485 266C138.293 259.925 139.563 256.117 120.34 262.645C101.117 269.174 86.5186 275.067 82.257 273.435C77.9953 271.803 79.5369 267.451 79.8089 259.744" stroke="#15AD75" stroke-width="2" stroke-linecap="round" stroke-linejoin="round"/>
<path d="M50.8841 215.676C44.3835 205.67 39.0302 194.964 34.9256 183.759C34.3451 181.896 34.215 179.922 34.5461 177.999C34.8771 176.076 35.6597 174.259 36.8298 172.697C43.4489 164.718 52.1535 160.456 63.7597 158.461C65.0232 158.322 66.2914 158.68 67.2959 159.459C81.0783 171.518 85.1587 185.119 87.5162 198.358C87.5758 199.122 87.4406 199.888 87.1235 200.587C86.8063 201.284 86.3176 201.889 85.7027 202.347C78.9022 206.518 75.2753 207.788 75.2753 207.788L76.6354 217.853L50.8841 215.676Z" fill="#FFE75C"/>
<path d="M64.032 181.855C70.8266 182.486 77.5782 183.515 84.2521 184.938L87.9698 185.935C88.1068 185.973 88.2317 186.047 88.3318 186.147C88.4319 186.248 88.5038 186.374 88.5405 186.511C88.5771 186.649 88.5773 186.794 88.5408 186.931C88.5043 187.069 88.4325 187.194 88.3324 187.295L87.5164 188.021L88.9672 193.643C89.4363 195.362 89.3163 197.19 88.626 198.833C87.9358 200.476 86.7153 201.841 85.1589 202.71L81.804 204.614L64.032 181.855Z" fill="#FFE75C"/>
<path d="M66.9386 188.536C68.6636 187.333 68.32 183.86 66.1711 180.78C64.0222 177.699 60.8818 176.177 59.1569 177.381C57.4319 178.585 57.7756 182.057 59.9244 185.138C62.0733 188.218 65.2137 189.739 66.9386 188.536Z" fill="#FF78B9"/>
<path d="M77.6328 175.961C76.5447 174.964 75.366 174.692 74.9126 175.145C74.4592 175.599 74.7312 176.324 75.7287 177.05L76.9073 178.228C77.7234 179.135 78.3581 178.954 78.7208 178.5C79.0835 178.047 78.7209 176.868 77.6328 175.961Z" fill="black"/>
<path d="M41.6357 167.891C40.1849 153.293 41.6356 148.397 44.7185 144.135C47.8014 139.873 49.6149 141.143 49.0708 146.764C48.7409 151.172 48.7711 155.6 49.1615 160.003C51.8434 153.133 55.7447 146.806 60.6771 141.324C62.1383 139.552 64.096 138.258 66.2988 137.606C68.4749 137.062 69.6537 138.332 69.019 140.417C67.9309 143.954 65.3014 149.575 58.2288 159.64L58.9542 163.63L41.6357 167.891Z" fill="#FFE75C"/>
<path d="M83.98 224.29C91.6872 226.92 86.2468 251.039 86.2468 251.039L87.3348 251.855C88.2249 252.536 88.8547 253.502 89.1187 254.591C89.3827 255.68 89.2652 256.827 88.7857 257.839L88.423 258.474C83.0732 258.474 79.5369 258.928 72.283 264.096C65.0292 269.264 60.4049 269.536 52.9697 269.536H35.2884V263.552C28.6692 260.922 28.1251 257.749 30.664 253.669C32.0241 251.311 34.2003 248.047 35.8324 245.599C36.4589 244.663 36.8936 243.612 37.1115 242.507C37.3293 241.401 37.3261 240.264 37.1018 239.161C35.6511 231.363 36.8298 226.739 36.8298 226.739L56.0525 221.57L80.4436 220.573L83.98 224.29Z" fill="#2331B5"/>
<path d="M83.4116 246.5C85.7356 245.885 86.5514 241.345 85.2338 236.358C83.9162 231.371 80.9642 227.827 78.6402 228.44C76.3162 229.054 75.5004 233.595 76.8179 238.581C78.1355 243.568 81.0876 247.114 83.4116 246.5Z" fill="black"/>
<path d="M95.2236 303.448C97.3997 301.181 102.115 297.373 102.115 297.373C105.107 297.373 109.641 297.917 111.635 306.168L114.084 315.87C123.423 317.593 123.514 320.223 122.244 323.668V325.21C122.244 325.402 122.168 325.587 122.032 325.723C121.896 325.859 121.711 325.935 121.519 325.935H105.923L95.2236 303.448Z" fill="white"/>
<path d="M121.519 325.935C121.711 325.935 121.896 325.859 122.032 325.723C122.168 325.587 122.244 325.402 122.244 325.21V323.668C116.078 323.668 111.545 324.303 109.278 320.313C106.845 315.486 104.696 310.521 102.84 305.443C102.024 303.085 100.301 300.275 97.6717 301.091L95.2236 303.448L105.923 325.935H121.519Z" fill="#FF78B9"/>
<path d="M114.9 325.935C113.259 325.96 111.64 325.565 110.195 324.787C108.751 324.01 107.531 322.876 106.648 321.492C103.293 316.414 101.208 310.339 99.9385 306.622C98.669 302.904 94.5887 301.453 94.2261 306.168C93.8634 310.883 96.3115 314.51 100.12 323.94C100.33 324.537 100.725 325.051 101.246 325.41C101.767 325.768 102.388 325.952 103.021 325.935H114.9Z" fill="black"/>
<path d="M83.9803 224.29L98.3066 229.187C99.7573 209.148 105.832 203.435 112.905 187.477C117.983 176.143 120.34 170.974 121.338 168.979C121.483 168.647 121.725 168.365 122.032 168.171C122.339 167.977 122.698 167.88 123.06 167.891H123.604C123.883 167.89 124.158 167.948 124.412 168.058C124.667 168.17 124.896 168.333 125.083 168.538C125.271 168.743 125.414 168.985 125.503 169.249C125.592 169.512 125.625 169.791 125.599 170.067C124.697 175.424 123.27 180.678 121.338 185.754C125.599 182.852 127.503 182.852 129.498 185.845C134.395 183.306 136.208 183.215 137.931 187.023C139.654 190.832 139.382 191.557 138.475 194.64C137.568 197.723 136.208 197.995 134.123 197.995C134.123 219.031 132.762 226.92 122.879 241.065C114.084 253.668 113.63 252.127 101.661 248.319C94.7703 246.142 87.9699 243.694 83.5269 241.971C80.9524 241.034 78.7888 239.222 77.4135 236.853C76.0381 234.483 75.5381 231.705 76.0009 229.005C76.817 225.197 79.3559 222.749 83.9803 224.29Z" fill="#FFE75C"/>
<path d="M83.98 224.29C84.4686 223.713 84.9227 223.108 85.3401 222.477C85.5825 222.14 85.7502 221.756 85.8314 221.349C85.9128 220.943 85.906 220.523 85.8115 220.119C85.7169 219.715 85.5368 219.336 85.2835 219.008C85.0301 218.679 84.7094 218.409 84.3427 218.215C59.5888 204.614 50.8842 202.982 37.2832 202.982C28.4879 202.982 28.9412 205.249 29.7572 209.42C23.5008 215.223 23.5914 217.218 27.9438 222.93C32.2961 228.642 33.6563 230.909 37.7366 230.909C41.8169 230.909 51.3375 231 59.6794 226.738C68.0214 222.477 72.0111 220.301 83.98 224.29Z" fill="white"/>
<path d="M83.6174 183.215C73.5527 181.492 63.3066 180.404 63.2159 180.404C63.1134 180.392 63.0092 180.401 62.9105 180.431C62.8117 180.461 62.7207 180.513 62.6434 180.582C62.5661 180.651 62.5044 180.735 62.4624 180.83C62.4205 180.924 62.3991 181.026 62.3999 181.13C62.3724 181.333 62.4225 181.539 62.5401 181.707C62.6578 181.875 62.8343 181.993 63.0347 182.036C63.216 182.036 73.9155 183.124 84.2523 184.938C84.0709 184.394 83.8895 183.85 83.6174 183.215Z" fill="black"/>
<path d="M63.3974 179.951C62.8589 180.733 62.3742 181.551 61.9467 182.399" stroke="black" stroke-width="2" stroke-linecap="round" stroke-linejoin="round"/>
<path d="M98.3064 229.187L104.291 230.909" stroke="black" stroke-width="2" stroke-linecap="round" stroke-linejoin="round"/>
<path d="M46.7135 166.622C46.6207 166.964 46.4994 167.297 46.3508 167.619C46.2883 167.765 46.1884 167.893 46.061 167.988C45.9337 168.084 45.7834 168.144 45.6254 168.163H45.3534C45.2539 168.133 45.1617 168.084 45.0834 168.015C45.0051 167.947 44.9422 167.862 44.8991 167.768C44.8562 167.674 44.834 167.57 44.8342 167.467C44.8343 167.363 44.8568 167.26 44.9001 167.166C44.9907 166.894 46.8949 161.272 48.6177 157.283C48.6904 157.121 48.8193 156.992 48.9804 156.92C48.9804 158.008 49.071 159.005 49.1617 160.093C49.2524 161.182 47.2576 164.99 46.7135 166.622Z" fill="#FFC619"/>
<path d="M131.402 224.925C131.728 223.961 131.824 222.935 131.681 221.926C131.54 220.919 131.165 219.959 130.586 219.122C130.184 218.648 129.727 218.221 129.226 217.852C128.098 217.21 126.812 216.896 125.515 216.944C124.218 216.992 122.96 217.401 121.882 218.124C122.426 215.042 123.151 209.42 122.607 205.158C122.063 200.897 120.431 201.441 119.433 201.259C116.532 200.715 112.542 203.798 109.006 209.329C108.371 206.337 107.464 204.886 106.014 204.523C105.617 204.444 105.206 204.499 104.845 204.679C104.483 204.86 104.193 205.156 104.019 205.521L102.659 208.785C104.472 206.065 105.47 206.065 105.742 206.065C106.014 206.065 107.192 206.79 107.827 211.687C107.846 211.848 107.92 211.999 108.035 212.114C108.15 212.229 108.3 212.302 108.462 212.321C108.631 212.354 108.807 212.337 108.968 212.272C109.129 212.208 109.268 212.099 109.369 211.959C113.086 205.158 117.076 202.438 119.161 202.801C121.247 203.163 120.884 204.342 120.975 205.43C121.791 210.961 119.977 219.757 119.977 219.847C119.952 220.004 119.973 220.165 120.037 220.31C120.102 220.454 120.207 220.577 120.34 220.663C120.5 220.738 120.676 220.768 120.851 220.752C121.026 220.737 121.194 220.674 121.337 220.573C123.332 218.487 126.415 217.943 128.319 219.213C130.223 220.482 131.13 225.106 129.045 230.819C130 228.926 130.79 226.954 131.402 224.925Z" fill="#FFF4B3"/>
<path d="M116.351 187.84C119.434 186.117 120.522 185.119 123.242 187.84C126.869 185.936 127.594 185.936 129.589 188.837" stroke="#FFC619" stroke-width="2" stroke-linecap="round" stroke-linejoin="round"/>
<path d="M135.755 197.632C135.664 195.093 135.392 191.194 135.301 191.104C135.302 191 135.28 190.898 135.239 190.804C135.197 190.709 135.135 190.625 135.057 190.556C134.98 190.487 134.89 190.435 134.791 190.406C134.692 190.375 134.588 190.366 134.485 190.378C134.382 190.377 134.279 190.399 134.185 190.441C134.091 190.483 134.006 190.544 133.937 190.622C133.869 190.699 133.817 190.79 133.787 190.889C133.756 190.988 133.747 191.092 133.76 191.194C133.76 191.285 134.122 195.184 134.122 197.723C134.118 197.772 134.124 197.822 134.14 197.868C134.155 197.915 134.18 197.958 134.213 197.995H135.664L135.755 197.632Z" fill="black"/>
<path d="M136.752 194.55H134.757C134.65 194.55 134.544 194.529 134.445 194.488C134.346 194.446 134.256 194.386 134.181 194.31C134.104 194.235 134.045 194.145 134.003 194.045C133.962 193.947 133.941 193.84 133.941 193.733C133.964 193.533 134.059 193.348 134.21 193.214C134.361 193.081 134.556 193.007 134.757 193.008H136.752C136.953 193.007 137.148 193.081 137.299 193.214C137.45 193.348 137.545 193.533 137.568 193.733C137.568 193.84 137.547 193.947 137.506 194.045C137.465 194.145 137.405 194.235 137.329 194.31C137.253 194.386 137.164 194.446 137.064 194.488C136.965 194.529 136.859 194.55 136.752 194.55Z" fill="black"/>
<path d="M108.462 247.049C110.376 247.002 112.285 246.821 114.174 246.505" stroke="#FFC619" stroke-width="2" stroke-linecap="round" stroke-linejoin="round"/>
<path d="M50.4306 266.816C40.0938 265.547 35.4695 263.643 35.3788 263.643H35.2881V265.275C36.8296 265.819 41.4539 267.27 50.2492 268.448H50.3399C50.5416 268.449 50.7365 268.376 50.8871 268.242C51.0378 268.108 51.1336 267.923 51.156 267.723C51.1686 267.616 51.1598 267.507 51.13 267.403C51.1003 267.299 51.0501 267.202 50.9827 267.118C50.9152 267.034 50.8317 266.964 50.737 266.911C50.6422 266.86 50.538 266.827 50.4306 266.816Z" fill="black"/>
<path d="M88.8767 262.645C86.5633 263.382 84.4736 264.692 82.8016 266.453" stroke="black" stroke-width="2" stroke-linecap="round" stroke-linejoin="round"/>
<path d="M122.244 270.171C125.909 268.55 129.454 266.671 132.853 264.549" stroke="black" stroke-width="2" stroke-linecap="round" stroke-linejoin="round"/>
<path d="M124.058 269.355L128.864 269.536" stroke="black" stroke-width="2" stroke-linecap="round" stroke-linejoin="round"/>
<path d="M30.5734 208.966C45.6252 207.516 56.3247 210.961 71.1044 217.58C56.3247 216.583 38.9154 216.039 38.9154 216.039" stroke="#BAE8FF" stroke-width="2" stroke-linecap="round" stroke-linejoin="round"/>
<path d="M26.493 283.409H86.8815C87.7471 283.409 88.5775 283.753 89.1896 284.365C89.8018 284.978 90.1457 285.807 90.1457 286.673V325.935H23.2288V286.673C23.2288 285.807 23.5727 284.978 24.1848 284.365C24.797 283.753 25.6273 283.409 26.493 283.409Z" fill="#8CD9FF"/>
<path d="M84.1615 283.409H86.8817C87.7473 283.409 88.5777 283.753 89.1898 284.365C89.802 284.978 90.1459 285.807 90.1459 286.673V325.935H80.8972V286.673C80.8972 286.245 80.9816 285.82 81.1457 285.424C81.3097 285.029 81.5502 284.669 81.8533 284.365C82.1564 284.062 82.5163 283.822 82.9123 283.658C83.3084 283.493 83.7328 283.409 84.1615 283.409Z" fill="#45AAF7"/>
<path d="M32.1147 313.422H72.011C72.7325 313.422 73.4243 313.709 73.9344 314.219C74.4446 314.729 74.7312 315.421 74.7312 316.142V325.935H29.4852V316.142C29.4848 315.436 29.7589 314.758 30.2495 314.25C30.7403 313.742 31.4092 313.446 32.1147 313.422Z" fill="#45AAF7"/>
<path d="M33.928 283.409V325.935" stroke="#5865F2" stroke-width="2" stroke-miterlimit="10"/>
<path d="M70.1071 283.409V325.935" stroke="#5865F2" stroke-width="2" stroke-miterlimit="10"/>
<path d="M72.3735 286.674H31.6612C30.4093 286.674 29.3943 287.688 29.3943 288.94V303.439C29.3943 304.691 30.4093 305.706 31.6612 305.706H72.3735C73.6254 305.706 74.6404 304.691 74.6404 303.439V288.94C74.6404 287.688 73.6254 286.674 72.3735 286.674Z" fill="black"/>
<path d="M80.0807 289.757C79.9581 289.742 79.8338 289.756 79.7172 289.796C79.6005 289.836 79.4945 289.903 79.4072 289.99C79.3199 290.078 79.2536 290.183 79.2132 290.3C79.1728 290.417 79.1593 290.541 79.1739 290.663C79.1739 290.904 79.2695 291.135 79.4396 291.304C79.6096 291.475 79.8402 291.57 80.0807 291.57H90.1455V289.757H80.0807Z" fill="#5865F2"/>
<path d="M79.1739 294.562C79.1593 294.685 79.1728 294.809 79.2132 294.926C79.2536 295.043 79.3199 295.148 79.4072 295.236C79.4945 295.323 79.6005 295.389 79.7172 295.43C79.8338 295.47 79.9581 295.483 80.0807 295.469H90.1455V293.656H80.0807C79.8402 293.656 79.6096 293.751 79.4396 293.921C79.2695 294.091 79.1739 294.322 79.1739 294.562Z" fill="#5865F2"/>
<path d="M79.1739 298.552C79.1739 298.792 79.2695 299.023 79.4396 299.193C79.6096 299.363 79.8402 299.459 80.0807 299.459H90.1455V297.645H80.0807C79.9581 297.631 79.8338 297.644 79.7172 297.684C79.6005 297.725 79.4945 297.791 79.4072 297.878C79.3199 297.966 79.2536 298.072 79.2132 298.188C79.1728 298.305 79.1593 298.429 79.1739 298.552Z" fill="#5865F2"/>
<path d="M24.8609 290.663C24.8405 290.897 24.7384 291.116 24.5726 291.281C24.4068 291.447 24.1878 291.549 23.9541 291.57H23.2288V289.756H23.9541C24.1947 289.756 24.4252 289.852 24.5953 290.022C24.7653 290.192 24.8609 290.423 24.8609 290.663Z" fill="#5865F2"/>
<path d="M24.8609 294.562C24.8609 294.803 24.7653 295.034 24.5953 295.203C24.4252 295.374 24.1947 295.469 23.9541 295.469H23.2288V293.656H23.9541C24.1878 293.676 24.4068 293.778 24.5726 293.944C24.7384 294.11 24.8405 294.328 24.8609 294.562Z" fill="#5865F2"/>
<path d="M24.8609 298.552C24.8405 298.786 24.7384 299.004 24.5726 299.17C24.4068 299.336 24.1878 299.439 23.9541 299.458H23.2288V297.645H23.9541C24.1947 297.645 24.4252 297.74 24.5953 297.911C24.7653 298.08 24.8609 298.311 24.8609 298.552Z" fill="#5865F2"/>
<path d="M60.7675 288.034H34.2002C33.5492 288.034 33.0215 288.561 33.0215 289.212V301.771C33.0215 302.422 33.5492 302.949 34.2002 302.949H60.7675C61.4185 302.949 61.9463 302.422 61.9463 301.771V289.212C61.9463 288.561 61.4185 288.034 60.7675 288.034Z" fill="#FFF4B3"/>
<path d="M72.0111 302.995H64.7572C64.3066 302.995 63.9412 303.36 63.9412 303.811V304.917C63.9412 305.368 64.3066 305.733 64.7572 305.733H72.0111C72.4618 305.733 72.8271 305.368 72.8271 304.917V303.811C72.8271 303.36 72.4618 302.995 72.0111 302.995Z" fill="#FF78B9"/>
<path d="M43.7212 289.756C43.7212 291.969 44.6002 294.091 46.1646 295.655C47.729 297.22 49.8509 298.098 52.0633 298.098C54.2757 298.098 56.3975 297.22 57.9619 295.655C59.5263 294.091 60.4051 291.969 60.4051 289.756C60.3944 289.178 60.3337 288.601 60.2239 288.034H43.9027C43.7474 288.594 43.6861 289.176 43.7212 289.756Z" fill="#29CC7A"/>
<path d="M35.4698 302.995H49.0708C48.2997 301.909 47.28 301.024 46.0969 300.413C44.9138 299.803 43.6017 299.484 42.2703 299.484C40.9388 299.484 39.6268 299.803 38.4437 300.413C37.2606 301.024 36.2409 301.909 35.4698 302.995Z" fill="#29CC7A"/>
</svg>
