<svg width="42" height="31" viewBox="0 0 42 31" fill="none" xmlns="http://www.w3.org/2000/svg">
<path d="M35.578 2.59624C32.8593 1.38337 29.9523 0.501913 26.9131 0C26.5398 0.643434 26.1038 1.50887 25.8031 2.19732C22.5724 1.73405 19.3713 1.73405 16.2 2.19732C15.8994 1.50887 15.4535 0.643434 15.0769 0C12.0344 0.501913 9.12407 1.38661 6.40534 2.60267C0.921625 10.5039 -0.56492 18.2088 0.178354 25.8044C3.81544 28.3942 7.34022 29.9674 10.8055 30.9968C11.6611 29.874 12.4242 28.6805 13.0816 27.4226C11.8296 26.969 10.6304 26.4092 9.49738 25.7594C9.79797 25.547 10.092 25.325 10.3761 25.0966C17.2868 28.1786 24.7956 28.1786 31.6238 25.0966C31.9112 25.325 32.2052 25.547 32.5025 25.7594C31.3661 26.4124 30.1637 26.9722 28.9117 27.4258C29.5691 28.6805 30.3288 29.8773 31.1877 31C34.6564 29.9705 38.1844 28.3974 41.8215 25.8044C42.6936 16.9992 40.3317 9.36501 35.578 2.59624ZM14.0231 21.1332C11.9485 21.1332 10.2472 19.2866 10.2472 17.0378C10.2472 14.789 11.9122 12.9392 14.0231 12.9392C16.134 12.9392 17.8352 14.7858 17.7989 17.0378C17.8022 19.2866 16.134 21.1332 14.0231 21.1332ZM27.9768 21.1332C25.9023 21.1332 24.201 19.2866 24.201 17.0378C24.201 14.789 25.8659 12.9392 27.9768 12.9392C30.0877 12.9392 31.789 14.7858 31.7526 17.0378C31.7526 19.2866 30.0877 21.1332 27.9768 21.1332Z" fill="#EBECFA"/>
</svg>
