<svg width="91" height="77" viewBox="0 0 91 77" fill="none" xmlns="http://www.w3.org/2000/svg">
<path d="M5 72V47.9097C5 24.669 23.3432 5.33657 46.4083 5.00445C61.2945 4.78818 74.433 12.481 82.06 24.0589C84.5589 28.0675 86 32.9334 86 38.0156C86 42.7812 84.7352 47.2532 82.5276 51.0996C82.3743 51.3545 82.2286 51.6094 82.0677 51.8643C82.0293 51.926 81.9987 51.9878 81.9527 52.0496C81.6997 50.335 81.0098 48.7593 79.998 47.454C79.975 47.4231 79.952 47.3999 79.929 47.3691C79.8907 47.315 79.8447 47.2609 79.814 47.2146C79.7604 47.1605 79.7221 47.1064 79.6684 47.0524C79.6531 47.0292 79.6377 47.0138 79.6224 46.9983C79.6071 46.9751 79.5918 46.9597 79.5764 46.9442C78.3193 45.5849 76.4719 44.8048 74.4483 45.0288C71.6734 45.33 69.4198 47.593 69.1055 50.3967C68.6916 54.0964 71.5508 57.2168 75.1305 57.2168C76.7786 57.2168 78.2656 56.5603 79.3618 55.4944L80.2433 54.4517C80.9255 53.6175 81.3854 52.9533 81.9604 52.0419C82.037 52.5285 82.0753 53.0305 82.0753 53.5403V71.9923" stroke="#4CB69C" stroke-width="9" stroke-miterlimit="10" stroke-linecap="round" stroke-linejoin="round"/>
</svg>
