<svg width="33" height="33" viewBox="0 0 33 33" fill="none" xmlns="http://www.w3.org/2000/svg">
<path d="M7.27521 20.4776C7.27521 22.3374 5.77322 23.8406 3.91483 23.8406C2.05643 23.8406 0.554443 22.3374 0.554443 20.4776C0.554443 18.6177 2.05643 17.1145 3.91483 17.1145H7.27521V20.4776ZM8.9554 20.4776C8.9554 18.6177 10.4574 17.1145 12.3158 17.1145C14.1742 17.1145 15.6762 18.6177 15.6762 20.4776V28.8852C15.6762 30.7451 14.1742 32.2483 12.3158 32.2483C10.4574 32.2483 8.9554 30.7451 8.9554 28.8852V20.4776Z" fill="#E01E5A"/>
<path d="M12.3156 6.9744C10.4572 6.9744 8.95522 5.47122 8.95522 3.61135C8.95522 1.75148 10.4572 0.248291 12.3156 0.248291C14.174 0.248291 15.676 1.75148 15.676 3.61135V6.9744H12.3156ZM12.3156 8.68141C14.174 8.68141 15.676 10.1846 15.676 12.0445C15.676 13.9043 14.174 15.4075 12.3156 15.4075H3.88919C2.0308 15.4075 0.528809 13.9043 0.528809 12.0445C0.528809 10.1846 2.0308 8.68141 3.88919 8.68141H12.3156Z" fill="#36C5F0"/>
<path d="M25.7825 12.0445C25.7825 10.1846 27.2845 8.68141 29.1429 8.68141C31.0013 8.68141 32.5033 10.1846 32.5033 12.0445C32.5033 13.9043 31.0013 15.4075 29.1429 15.4075H25.7825V12.0445ZM24.1024 12.0445C24.1024 13.9043 22.6004 15.4075 20.742 15.4075C18.8836 15.4075 17.3816 13.9043 17.3816 12.0445V3.61135C17.3816 1.75148 18.8836 0.248291 20.742 0.248291C22.6004 0.248291 24.1024 1.75148 24.1024 3.61135V12.0445V12.0445Z" fill="#2EB67D"/>
<path d="M20.742 25.5221C22.6004 25.5221 24.1024 27.0253 24.1024 28.8852C24.1024 30.7451 22.6004 32.2483 20.742 32.2483C18.8836 32.2483 17.3816 30.7451 17.3816 28.8852V25.5221H20.742ZM20.742 23.8406C18.8836 23.8406 17.3816 22.3374 17.3816 20.4776C17.3816 18.6177 18.8836 17.1145 20.742 17.1145H29.1684C31.0268 17.1145 32.5288 18.6177 32.5288 20.4776C32.5288 22.3374 31.0268 23.8406 29.1684 23.8406H20.742Z" fill="#ECB22E"/>
</svg>
