<svg width="31" height="39" viewBox="0 0 31 39" fill="none" xmlns="http://www.w3.org/2000/svg">
<path d="M27.8115 37.2805H2.81152C1.9831 37.2805 1.31152 36.6443 1.31152 35.8595V2.70158C1.31152 1.91675 1.9831 1.28052 2.81152 1.28052H18.0475C18.4454 1.28052 18.8269 1.43024 19.1082 1.69673L28.8722 10.9468C29.1535 11.2133 29.3115 11.5748 29.3115 11.9517V35.8595C29.3115 36.6443 28.64 37.2805 27.8115 37.2805Z" fill="#E7E7E7" stroke="black" stroke-width="2"/>
<path d="M18.1241 11.0762V1.42883L29.0227 12.0236H19.1241C18.5718 12.0236 18.1241 11.5994 18.1241 11.0762Z" fill="black"/>
<path d="M9.34778 23.3081C9.34778 23.1697 9.32533 23.0456 9.28038 22.9357C9.23923 22.8222 9.16058 22.7194 9.04453 22.6271C8.92853 22.5314 8.76568 22.4374 8.55603 22.3452C8.34638 22.253 8.07498 22.1572 7.74183 22.058C7.37123 21.9445 7.01933 21.8168 6.68613 21.6749C6.35673 21.5331 6.06473 21.3682 5.81018 21.1802C5.55938 20.9887 5.36098 20.767 5.21497 20.5152C5.07271 20.2634 5.00159 19.9709 5.00159 19.6375C5.00159 19.3148 5.07646 19.0222 5.2262 18.7597C5.37593 18.4938 5.58558 18.2668 5.85508 18.0788C6.12463 17.8873 6.44283 17.7401 6.80968 17.6373C7.18028 17.5344 7.58648 17.483 8.02818 17.483C8.63088 17.483 9.15688 17.5858 9.60608 17.7915C10.0553 17.9972 10.4034 18.2792 10.6505 18.6374C10.9013 18.9956 11.0267 19.4052 11.0267 19.8662H9.35338C9.35338 19.6393 9.30283 19.4407 9.20178 19.2704C9.10443 19.0966 8.95473 18.9601 8.75258 18.8608C8.55418 18.7615 8.30333 18.7118 8.00013 18.7118C7.70813 18.7118 7.46478 18.7544 7.27013 18.8395C7.07548 18.9211 6.92948 19.0328 6.83213 19.1747C6.73483 19.313 6.68613 19.469 6.68613 19.6428C6.68613 19.774 6.71983 19.8928 6.78723 19.9992C6.85838 20.1056 6.96318 20.2049 7.10168 20.2971C7.24018 20.3893 7.41053 20.4762 7.61268 20.5578C7.81483 20.6394 8.04878 20.7191 8.31458 20.7972C8.76003 20.9249 9.15123 21.0685 9.48818 21.2281C9.82883 21.3876 10.1133 21.5667 10.3417 21.7654C10.57 21.964 10.7422 22.1892 10.8583 22.441C10.9743 22.6927 11.0323 22.9782 11.0323 23.2974C11.0323 23.6343 10.9631 23.9358 10.8246 24.2018C10.6861 24.4678 10.4858 24.693 10.2237 24.8774C9.96173 25.0618 9.64913 25.2019 9.28603 25.2976C8.92288 25.3934 8.51673 25.4413 8.06748 25.4413C7.66323 25.4413 7.26453 25.3916 6.87148 25.2923C6.47838 25.1895 6.12088 25.0352 5.79893 24.8295C5.48073 24.6238 5.2262 24.3614 5.03528 24.0422C4.84436 23.723 4.7489 23.3453 4.7489 22.9091H6.43908C6.43908 23.1503 6.47838 23.3542 6.55698 23.5209C6.63563 23.6875 6.74603 23.8223 6.88828 23.9252C7.03428 24.028 7.20648 24.1025 7.40488 24.1486C7.60703 24.1947 7.82793 24.2177 8.06748 24.2177C8.35948 24.2177 8.59908 24.1787 8.78623 24.1007C8.97718 24.0227 9.11753 23.9145 9.20738 23.7762C9.30098 23.6379 9.34778 23.4818 9.34778 23.3081ZM14.8958 23.7177L16.8219 17.5894H18.6974L15.8504 25.3349H14.6151L14.8958 23.7177ZM13.1214 17.5894L15.0418 23.7177L15.3338 25.3349H14.0873L11.2572 17.5894H13.1214ZM25.6324 21.2866V24.356C25.5051 24.5015 25.3086 24.6593 25.0428 24.8295C24.777 24.9962 24.4345 25.1398 24.0152 25.2604C23.5959 25.381 23.0887 25.4413 22.4935 25.4413C21.9657 25.4413 21.4846 25.3597 21.0504 25.1965C20.6161 25.0299 20.2418 24.7869 19.9273 24.4678C19.6166 24.1486 19.377 23.7585 19.2086 23.2974C19.0401 22.8329 18.9559 22.3027 18.9559 21.7069V21.2228C18.9559 20.627 19.0364 20.0968 19.1973 19.6322C19.3621 19.1676 19.596 18.7757 19.8992 18.4565C20.2025 18.1373 20.5637 17.8944 20.983 17.7277C21.4023 17.561 21.8683 17.4777 22.3812 17.4777C23.0924 17.4777 23.6764 17.5876 24.1331 17.8075C24.5898 18.0238 24.938 18.3253 25.1776 18.7118C25.4209 19.0949 25.5706 19.5346 25.6268 20.0311H23.9928C23.9516 19.7687 23.873 19.5399 23.7569 19.3449C23.6409 19.1498 23.4743 18.9973 23.2572 18.8874C23.0438 18.7775 22.7668 18.7225 22.4261 18.7225C22.1453 18.7225 21.8945 18.7775 21.6737 18.8874C21.4565 18.9938 21.2731 19.1516 21.1234 19.3608C20.9736 19.5701 20.8595 19.829 20.7808 20.1375C20.7022 20.4461 20.6629 20.8043 20.6629 21.2121V21.7069C20.6629 22.1111 20.7041 22.4693 20.7865 22.7814C20.8688 23.09 20.9905 23.3506 21.1514 23.5634C21.3162 23.7726 21.5183 23.9305 21.7579 24.0369C21.9975 24.1433 22.2764 24.1964 22.5946 24.1964C22.8603 24.1964 23.0812 24.1752 23.2572 24.1326C23.4368 24.0901 23.581 24.0387 23.6895 23.9784C23.8018 23.9145 23.8879 23.8542 23.9478 23.7975V22.425H22.4093V21.2866H25.6324Z" fill="black"/>
</svg>
