<svg width="37" height="35" viewBox="0 0 37 35" fill="none" xmlns="http://www.w3.org/2000/svg">
<path d="M22.0402 19.2053L19.5286 0.786743H19.3411C10.2082 0.813406 2.81109 8.21047 2.78442 17.3434V17.5309L22.0402 19.2053Z" fill="#ED6C47"/>
<path d="M19.7164 0.786743H19.5288V17.5309L27.9009 20.8798L36.273 17.5309V17.3434C36.2463 8.21047 28.8493 0.813406 19.7164 0.786743Z" fill="#FF8F6B"/>
<path d="M36.2728 17.5309V17.7151C36.2466 26.85 28.8478 34.2489 19.7128 34.2751H19.3444C10.2095 34.2489 2.81064 26.85 2.78442 17.7151V17.5309H36.2728Z" fill="#D35230"/>
<path opacity="0.1" d="M20.3658 9.01648V26.8825C20.3617 27.5033 19.9855 28.061 19.4114 28.2974C19.2286 28.3747 19.0322 28.4146 18.8337 28.4146H6.73607C6.50165 28.1467 6.27561 27.862 6.0663 27.5774C3.93334 24.732 2.78167 21.2712 2.78444 17.7151V17.3467C2.77955 14.1392 3.71696 11.0009 5.48026 8.32158C5.66444 8.03693 5.85699 7.75228 6.0663 7.48438H18.8337C19.6772 7.49077 20.3595 8.17299 20.3658 9.01648Z" fill="black"/>
<path opacity="0.2" d="M19.5286 9.85376V27.7198C19.5286 27.9183 19.4887 28.1147 19.4114 28.2975C19.1751 28.8715 18.6174 29.2477 17.9965 29.2519H7.49794C7.23305 28.983 6.97889 28.7037 6.73607 28.4147C6.50165 28.1468 6.27562 27.8621 6.0663 27.5775C3.93334 24.7321 2.78167 21.2712 2.78444 17.7151V17.3468C2.77955 14.1393 3.71696 11.001 5.48026 8.32166H17.9965C18.8401 8.32803 19.5223 9.01025 19.5286 9.85376Z" fill="black"/>
<path opacity="0.2" d="M19.5286 9.85374V26.0454C19.5223 26.8889 18.84 27.5711 17.9965 27.5775H6.0663C3.93334 24.7321 2.78167 21.2712 2.78444 17.7151V17.3468C2.77955 14.1393 3.71696 11.001 5.48026 8.32166H17.9965C18.84 8.32801 19.5223 9.01023 19.5286 9.85374Z" fill="black"/>
<path opacity="0.2" d="M18.6914 9.85374V26.0454C18.685 26.8889 18.0028 27.5711 17.1593 27.5775H6.0663C3.93334 24.7321 2.78167 21.2712 2.78444 17.7151V17.3468C2.77955 14.1393 3.71696 11.001 5.48026 8.32166H17.1593C18.0028 8.32801 18.685 9.01023 18.6914 9.85374Z" fill="black"/>
<path d="M1.80755 8.32166H17.1569C18.0045 8.32166 18.6915 9.00873 18.6915 9.85625V25.2056C18.6915 26.0532 18.0045 26.7403 17.1569 26.7403H1.80755C0.960023 26.7403 0.272949 26.0532 0.272949 25.2057V9.85625C0.272949 9.00873 0.960023 8.32166 1.80755 8.32166Z" fill="url(#paint0_linear_386_568)"/>
<path d="M9.64962 12.4147C10.6488 12.3473 11.6394 12.6375 12.4442 13.2335C13.1155 13.8328 13.4742 14.7073 13.4171 15.6053C13.428 16.2296 13.2617 16.8442 12.9373 17.3777C12.609 17.902 12.1359 18.3202 11.5752 18.5816C10.9342 18.8797 10.2333 19.027 9.52654 19.0119H7.58506V22.6203H5.59668V12.4147H9.64962ZM7.58339 17.4531H9.29465C9.83716 17.4929 10.3754 17.3323 10.8075 17.0018C11.1648 16.659 11.3521 16.1756 11.319 15.6815C11.319 14.5569 10.6654 13.9946 9.35829 13.9946H7.58341V17.4531H7.58339Z" fill="white"/>
<defs>
<linearGradient id="paint0_linear_386_568" x1="3.47263" y1="7.12255" x2="15.4919" y2="27.9394" gradientUnits="userSpaceOnUse">
<stop stop-color="#CA4C28"/>
<stop offset="0.5" stop-color="#C5401E"/>
<stop offset="1" stop-color="#B62F14"/>
</linearGradient>
</defs>
</svg>
