<svg width="41" height="31" viewBox="0 0 41 31" fill="none" xmlns="http://www.w3.org/2000/svg">
<path d="M34.7547 17.9812C33.3592 17.9885 32.1464 18.3245 31.1308 18.8214C30.7582 18.0834 30.3856 17.4259 30.3198 16.9437C30.2468 16.3811 30.1591 16.0377 30.2468 15.3655C30.3344 14.6934 30.729 13.7363 30.7217 13.6632C30.7143 13.5902 30.634 13.2468 29.8303 13.2395C29.0266 13.2321 28.3325 13.3929 28.2522 13.6048C28.1718 13.8166 28.0184 14.2988 27.9161 14.7957C27.7773 15.5263 26.3087 18.1346 25.4685 19.5008C25.1982 18.9675 24.9644 18.4999 24.9133 18.1273C24.8402 17.5647 24.7525 17.2213 24.8402 16.5491C24.9279 15.877 25.3224 14.9199 25.3151 14.8468C25.3078 14.7737 25.2274 14.4304 24.4237 14.4231C23.6201 14.4157 22.926 14.5765 22.8456 14.7884C22.7653 15.0002 22.6776 15.4971 22.5095 15.9793C22.3415 16.4615 20.3908 20.8159 19.8793 21.9411C19.6163 22.5183 19.3898 22.9786 19.2291 23.2927C19.2291 23.2927 19.2218 23.3146 19.1998 23.3512C19.061 23.6215 18.9807 23.7676 18.9807 23.7676C18.9807 23.7676 18.9807 23.7676 18.9807 23.7749C18.8711 23.9722 18.7542 24.1549 18.6957 24.1549C18.6519 24.1549 18.5715 23.6288 18.7103 22.9128C19.0026 21.4004 19.6967 19.0478 19.6894 18.9675C19.6894 18.9236 19.8209 18.5145 19.2364 18.3026C18.6665 18.0907 18.4619 18.4414 18.4108 18.4414C18.3596 18.4414 18.3231 18.5656 18.3231 18.5656C18.3231 18.5656 18.9587 15.9208 17.1103 15.9208C15.9559 15.9208 14.3632 17.1848 13.5741 18.3245C13.0773 18.5949 12.0179 19.1721 10.8854 19.7931C10.4544 20.0342 10.0087 20.2753 9.59226 20.5018C9.56303 20.4725 9.53381 20.436 9.50458 20.4068C7.2689 18.0177 3.13361 16.33 3.30896 13.1226C3.37472 11.9536 3.77656 8.88499 11.2508 5.15885C17.4025 2.12679 22.2977 2.967 23.1452 4.83007C24.358 7.48951 20.5223 12.4285 14.1659 13.1445C11.7403 13.4148 10.469 12.4796 10.1475 12.1289C9.81144 11.7636 9.7603 11.7417 9.63609 11.8148C9.43152 11.9243 9.56303 12.2531 9.63609 12.4431C9.82605 12.9399 10.6078 13.8166 11.9302 14.2477C13.0992 14.6276 15.9413 14.8395 19.3825 13.5098C23.2328 12.0193 26.243 7.87674 25.3589 4.40631C24.4749 0.884744 18.63 -0.276934 13.0992 1.68842C9.81144 2.85741 6.24604 4.69856 3.68158 7.09498C0.63491 9.94438 0.152704 12.4212 0.34997 13.4586C1.05867 17.1409 6.13644 19.5374 8.16756 21.3128C8.06527 21.3712 7.97029 21.4224 7.88992 21.4662C6.87437 21.9703 3.0021 23.9941 2.03769 26.1348C0.941768 28.5605 2.21304 30.2993 3.05325 30.5331C5.66154 31.2564 8.3429 29.9559 9.78222 27.8079C11.2215 25.6599 11.0462 22.869 10.3813 21.5904C10.374 21.5758 10.3667 21.5612 10.3521 21.5466C10.6151 21.3931 10.8854 21.2324 11.1485 21.079C11.6672 20.7721 12.1786 20.4872 12.617 20.2534C12.3686 20.9328 12.1859 21.7438 12.0983 22.9128C11.9887 24.2864 12.5512 26.0691 13.2892 26.7705C13.6179 27.0773 14.0052 27.0846 14.2536 27.0846C15.1157 27.0846 15.5029 26.3686 15.934 25.5211C16.46 24.4836 16.9349 23.2781 16.9349 23.2781C16.9349 23.2781 16.3431 26.5367 17.9505 26.5367C18.535 26.5367 19.1268 25.7768 19.3898 25.3896C19.3898 25.3969 19.3898 25.3969 19.3898 25.3969C19.3898 25.3969 19.4044 25.375 19.4336 25.3238C19.4921 25.2289 19.5286 25.1704 19.5286 25.1704C19.5286 25.1704 19.5286 25.1631 19.5286 25.1558C19.7624 24.7467 20.2885 23.8188 21.0702 22.2772C22.0785 20.2899 23.0502 17.8058 23.0502 17.8058C23.0502 17.8058 23.1379 18.4122 23.4374 19.4205C23.6128 20.0123 23.9781 20.6625 24.2703 21.2908C24.0365 21.6196 23.8904 21.8023 23.8904 21.8023C23.8904 21.8023 23.8904 21.8023 23.8977 21.8096C23.7077 22.058 23.5032 22.3283 23.2767 22.5913C22.4803 23.5411 21.5305 24.6298 21.399 24.9439C21.2456 25.3165 21.2821 25.5869 21.5743 25.806C21.7862 25.9668 22.1661 25.9887 22.5534 25.9668C23.2694 25.9156 23.7735 25.7403 24.0219 25.6307C24.4091 25.4919 24.8621 25.28 25.2859 24.9658C26.0676 24.3886 26.5425 23.5631 26.4987 22.4744C26.4768 21.8753 26.2795 21.2762 26.0384 20.7137C26.1115 20.6114 26.1772 20.5091 26.2503 20.4068C27.485 18.6022 28.4421 16.6222 28.4421 16.6222C28.4421 16.6222 28.5298 17.2286 28.8294 18.2369C28.9755 18.7483 29.275 19.3036 29.5381 19.8442C28.3764 20.7867 27.6604 21.8826 27.4047 22.5986C26.9444 23.9284 27.3024 24.5275 27.9818 24.6663C28.2887 24.732 28.7271 24.5859 29.0485 24.4471C29.4577 24.3156 29.9399 24.0891 30.4002 23.753C31.1819 23.1758 31.9345 22.3722 31.8906 21.2835C31.8687 20.7867 31.7372 20.2972 31.5546 19.8223C32.5409 19.4132 33.8122 19.1867 35.4341 19.3766C38.9119 19.7858 39.5986 21.9557 39.4671 22.869C39.3356 23.7822 38.605 24.2791 38.3639 24.4325C38.1228 24.5859 38.0424 24.6371 38.0643 24.7467C38.0936 24.9074 38.2105 24.9001 38.415 24.8709C38.7 24.8197 40.2416 24.1329 40.3073 22.4525C40.4169 20.3045 38.3712 17.9592 34.7547 17.9812ZM7.92645 27.0262C6.77208 28.2828 5.16473 28.7577 4.47064 28.3559C3.72541 27.9248 4.01766 26.0691 5.43505 24.7393C6.29718 23.9284 7.40772 23.1758 8.14564 22.7155C8.31368 22.6133 8.56209 22.4671 8.86164 22.2845C8.91278 22.2553 8.94201 22.2406 8.94201 22.2406C9.00046 22.2041 9.05891 22.1676 9.11736 22.131C9.63609 24.0306 9.13927 25.7038 7.92645 27.0262ZM16.3285 21.3128C15.9267 22.2918 15.0865 24.7978 14.5751 24.659C14.1367 24.5421 13.8664 22.6425 14.4874 20.7648C14.8015 19.8223 15.4664 18.6972 15.8536 18.2588C16.482 17.5574 17.176 17.3236 17.3441 17.6085C17.556 17.9812 16.5769 20.699 16.3285 21.3128ZM23.2621 24.6298C23.094 24.7174 22.9333 24.7759 22.8602 24.732C22.8091 24.7028 22.9333 24.5859 22.9333 24.5859C22.9333 24.5859 23.8027 23.6507 24.1461 23.227C24.3434 22.9786 24.5772 22.6863 24.8256 22.3575C24.8256 22.3868 24.8256 22.4233 24.8256 22.4525C24.8256 23.5704 23.7443 24.3229 23.2621 24.6298ZM28.6102 23.4096C28.486 23.3219 28.5079 23.0297 28.9243 22.1164C29.0851 21.7584 29.465 21.1593 30.1152 20.5821C30.1883 20.8159 30.2394 21.0424 30.2321 21.2543C30.2248 22.6644 29.2166 23.1904 28.6102 23.4096Z" fill="#CD6799"/>
</svg>
