<svg width="37" height="39" viewBox="0 0 37 39" fill="none" xmlns="http://www.w3.org/2000/svg">
<path d="M2.76654 1.91988L23.5784 0.366849C26.1349 0.145313 26.7916 0.29465 28.3991 1.47529L35.0426 6.20354C36.1382 7.01672 36.503 7.23826 36.503 8.12364V34.0555C36.503 35.6807 35.9189 36.6421 33.874 36.7888L9.70596 38.2677C8.17139 38.341 7.44058 38.1195 6.63681 37.0848L1.74462 30.6576C0.867127 29.4747 0.503418 28.5893 0.503418 27.5542V4.50383C0.503418 3.175 1.08753 2.06694 2.76654 1.91988Z" fill="white"/>
<path fill-rule="evenodd" clip-rule="evenodd" d="M23.5784 0.367229L2.76654 1.92026C1.08753 2.06694 0.503418 3.17537 0.503418 4.50383V27.5542C0.503418 28.5889 0.867127 29.4743 1.74462 30.6576L6.63682 37.0844C7.44058 38.1191 8.17139 38.341 9.70596 38.2673L33.8743 36.7891C35.9178 36.6421 36.5034 35.6807 36.5034 34.0559V8.12402C36.5034 7.28424 36.1751 7.04218 35.2084 6.32551L28.3991 1.47529C26.792 0.29465 26.1349 0.145313 23.5784 0.366849V0.367229ZM10.2525 7.69957C8.27896 7.83371 7.83137 7.8641 6.71054 6.94338L3.86105 4.65355C3.57143 4.35715 3.71699 3.98742 4.44667 3.9137L24.4536 2.43667C26.1338 2.28847 27.0086 2.88012 27.6657 3.39691L31.0971 5.90866C31.2437 5.98352 31.6086 6.42545 31.1697 6.42545L10.5082 7.68209L10.2525 7.69995V7.69957ZM7.95173 33.8343V11.8202C7.95173 10.8588 8.24398 10.4154 9.11884 10.3409L32.8498 8.9372C33.6547 8.86387 34.0184 9.38065 34.0184 10.3405V32.208C34.0184 33.1693 33.8717 33.9825 32.5579 34.0559L9.84889 35.3858C8.5351 35.4592 7.95211 35.0172 7.95211 33.8343H7.95173ZM30.3685 13.0005C30.5141 13.6655 30.3685 14.3304 29.7103 14.4064L28.6158 14.6257V30.8791C27.6653 31.3959 26.7905 31.6912 26.0593 31.6912C24.8907 31.6912 24.5988 31.3214 23.7236 30.2141L16.566 18.8372V29.8444L18.8303 30.3623C18.8303 30.3623 18.8303 31.6923 17.0034 31.6923L11.9672 31.9876C11.8205 31.6912 11.9672 30.9528 12.4776 30.8058L13.7929 30.4372V15.8835L11.9676 15.7341C11.8209 15.0691 12.1857 14.1089 13.2088 14.0344L18.6125 13.667L26.0597 25.191V14.9958L24.1614 14.7754C24.0147 13.9611 24.5988 13.3694 25.3285 13.2972L30.3685 13.0008V13.0005Z" fill="black"/>
</svg>
