<svg width="13" height="13" viewBox="0 0 13 13" fill="none" xmlns="http://www.w3.org/2000/svg">
<path d="M6.03571 6.32129C5.11305 6.32129 4.33776 6.01758 3.70986 5.41017C3.08195 4.80332 2.76799 4.05363 2.76799 3.16107C2.76799 2.26795 3.08195 1.51768 3.70986 0.910266C4.33776 0.303422 5.11305 0 6.03571 0C6.95838 0 7.73366 0.303422 8.36157 0.910266C8.98948 1.51768 9.30343 2.26795 9.30343 3.16107C9.30343 4.05363 8.98948 4.80332 8.36157 5.41017C7.73366 6.01758 6.95838 6.32129 6.03571 6.32129ZM0 13V10.5709C0 10.1783 0.104553 9.81836 0.313659 9.49093C0.522765 9.16351 0.805707 8.89266 1.16249 8.67838C1.88845 8.26182 2.66994 7.94325 3.50695 7.72269C4.34337 7.50269 5.1863 7.39269 6.03571 7.39269C6.89695 7.39269 7.74312 7.50269 8.57422 7.72269C9.40474 7.94325 10.183 8.26182 10.9089 8.67838C11.2657 8.86866 11.5487 9.13066 11.7578 9.46436C11.9669 9.7975 12.0714 10.1663 12.0714 10.5709V13H0Z" fill="#646464"/>
</svg>
