<svg width="15" height="15" viewBox="0 0 15 15" fill="none" xmlns="http://www.w3.org/2000/svg">
<path d="M7.38778 15C6.37808 15 5.42106 14.8042 4.5167 14.4127C3.61294 14.0212 2.82739 13.4879 2.16004 12.8127C1.4933 12.137 0.966603 11.3415 0.579962 10.4264C0.193321 9.51061 0 8.53515 0 7.5C0 6.45212 0.193321 5.47364 0.579962 4.56455C0.966603 3.65545 1.50257 2.86 2.18787 2.17818C2.87377 1.49636 3.68117 0.962727 4.61007 0.577273C5.53896 0.192424 6.52711 0 7.57452 0C8.57224 0 9.52298 0.176667 10.4267 0.53C11.3311 0.883939 12.1229 1.3703 12.8023 1.98909C13.4822 2.60727 14.0184 3.32364 14.4111 4.13818C14.8037 4.95273 15 5.8397 15 6.79909C15 8.0997 14.5326 9.17303 13.5977 10.0191C12.6622 10.8652 11.5837 11.2882 10.3621 11.2882H9.57565C9.43859 11.2882 9.29854 11.3418 9.15549 11.4491C9.01185 11.5564 8.94003 11.6982 8.94003 11.8745C8.94003 12.077 9.00227 12.1782 9.12677 12.1782C9.25186 12.1782 9.3144 12.437 9.3144 12.9545C9.3144 13.3461 9.11809 13.7848 8.72546 14.2709C8.33224 14.757 7.88634 15 7.38778 15V15ZM3.29124 8.22C3.5905 8.22 3.85863 8.1 4.09564 7.86C4.33266 7.62 4.45116 7.34849 4.45116 7.04545C4.45116 6.74242 4.33266 6.47091 4.09564 6.23091C3.85863 5.99091 3.5905 5.87091 3.29124 5.87091C2.99198 5.87091 2.72414 5.99091 2.48773 6.23091C2.25072 6.47091 2.13221 6.74242 2.13221 7.04545C2.13221 7.34849 2.25072 7.62 2.48773 7.86C2.72414 8.1 2.99198 8.22 3.29124 8.22V8.22ZM5.57338 5.41636C5.87264 5.41636 6.14077 5.29667 6.37778 5.05727C6.6148 4.81727 6.7333 4.54576 6.7333 4.24273C6.7333 3.9397 6.6148 3.66818 6.37778 3.42818C6.14077 3.18818 5.87264 3.06818 5.57338 3.06818C5.27412 3.06818 5.00599 3.18818 4.76897 3.42818C4.53196 3.66818 4.41345 3.9397 4.41345 4.24273C4.41345 4.54576 4.53196 4.81727 4.76897 5.05727C5.00599 5.29667 5.27412 5.41636 5.57338 5.41636ZM9.23988 5.41636C9.53914 5.41636 9.80698 5.29667 10.0434 5.05727C10.2804 4.81727 10.3989 4.54576 10.3989 4.24273C10.3989 3.9397 10.2804 3.66818 10.0434 3.42818C9.80698 3.18818 9.53914 3.06818 9.23988 3.06818C8.94063 3.06818 8.67249 3.18818 8.43548 3.42818C8.19847 3.66818 8.07996 3.9397 8.07996 4.24273C8.07996 4.54576 8.19847 4.81727 8.43548 5.05727C8.67249 5.29667 8.94063 5.41636 9.23988 5.41636ZM11.5588 8.22C11.8581 8.22 12.1262 8.1 12.3632 7.86C12.5997 7.62 12.7179 7.34849 12.7179 7.04545C12.7179 6.74242 12.5997 6.47091 12.3632 6.23091C12.1262 5.99091 11.8581 5.87091 11.5588 5.87091C11.2596 5.87091 10.9914 5.99091 10.7544 6.23091C10.5174 6.47091 10.3989 6.74242 10.3989 7.04545C10.3989 7.34849 10.5174 7.62 10.7544 7.86C10.9914 8.1 11.2596 8.22 11.5588 8.22Z" fill="#646464"/>
</svg>
