<svg xmlns="http://www.w3.org/2000/svg" width="307" height="144" fill="none"><path fill="url(#a)" d="M306.817 136.194 270.2 108.276c-2.374-1.837-5.022-5.052-6.94-9.46-1.187-2.755-1.826-5.694-2.1-8.724L252.668 0H54.332L45.84 90.092c-.274 2.939-.913 5.97-2.1 8.724-1.918 4.5-4.566 7.715-6.94 9.46L.183 136.469a.706.706 0 0 0-.183.46v1.928C0 141.704 2.283 144 5.114 144h296.772c2.831 0 5.114-2.296 5.114-5.143v-2.112c0-.276-.091-.459-.183-.551Z"/><defs><linearGradient id="a" x1="153.498" x2="153.498" y1="142.113" y2="2.211" gradientUnits="userSpaceOnUse"><stop offset=".009" stop-color="#2F2B30"/><stop offset=".02" stop-color="#3D383D"/><stop offset=".025" stop-color="#847A7E"/><stop offset=".08" stop-color="#60595D"/><stop offset=".136" stop-color="#453F43"/><stop offset=".192" stop-color="#312D31"/><stop offset=".248" stop-color="#252226"/><stop offset=".304" stop-color="#211E22"/><stop offset=".36" stop-color="#484147"/><stop offset=".398" stop-color="#686066"/><stop offset=".423" stop-color="#797176"/><stop offset=".461" stop-color="#746D72"/><stop offset=".481" stop-color="#6E686D"/><stop offset=".505" stop-color="#615B60"/><stop offset=".551" stop-color="#4D484D"/><stop offset=".598" stop-color="#413C41"/><stop offset=".645" stop-color="#3D383D"/><stop offset=".88" stop-color="#1F1D21"/><stop offset=".989" stop-color="#1D1A1F"/></linearGradient></defs></svg>