<svg width="32" height="32" viewBox="0 0 32 32" fill="none" xmlns="http://www.w3.org/2000/svg">
<path d="M29.3417 2.66644V0H2.66644V2.66644H0V29.3308H2.66644V32H29.3308V29.3308H32V2.66644H29.3417ZM29.3417 18.6732H26.6644V21.3397H23.998V24.0088H18.6732V26.6644H21.3397V29.3308H10.6712V26.6644H13.3322V23.998H8.00204V21.3397H5.3356V18.6732H2.66644V16.0041H10.6712V21.3397H13.3322V8.00748H8.00204V13.3322H5.3356V5.3356H8.00204V2.66644H10.6712V5.3356H21.3397V2.66644H24.0088V5.3356H26.6644V13.3322H23.998V8.00204H18.6732V21.3342H21.3397V16.0041H29.3417V18.6732Z" fill="#367ADD"/>
</svg>
