<svg width="307" height="32" viewBox="0 0 307 32" fill="none" xmlns="http://www.w3.org/2000/svg">
<path d="M6.47722 31.9385V25.5385H0V0H12.9544V6.4H25.9089V0H38.8633V25.5385H32.3238V31.9385H6.47722Z" fill="#367ADD"/>
<path d="M46.5862 31.9385V0H72.4328V6.4H59.4783V12.8H72.4328V19.2H59.4783V25.6H72.4328V32H46.5862V31.9385Z" fill="black"/>
<path d="M80.2178 31.9385V0H106.064V6.4H112.542V25.5385H106.064V31.9385H80.2178ZM93.1723 12.8H99.4004V6.4H93.1723V12.8ZM93.1723 25.5385H99.4004V19.1385H93.1723V25.5385Z" fill="black"/>
<path d="M126.246 31.9385V6.4H119.769V0H145.616V6.4H139.139V31.9385H126.246Z" fill="black"/>
<path d="M153.463 31.9385V0H179.31V6.4H185.725V12.8H179.248V25.6H185.725V32H172.77V25.5385H166.293V31.9385H153.463ZM166.355 12.8H172.833V6.4H166.355V12.8Z" fill="black"/>
<path d="M193.572 31.9385V0H219.419V6.4H206.464V12.8H219.419V19.2H206.464V25.6H219.419V32H193.572V31.9385Z" fill="black"/>
<path d="M227.204 31.9385V0H240.158V6.4H246.636V12.8H253.113V0H266.067V31.9385H253.113V25.5385H246.636V19.1385H240.158V31.9385H227.204V31.9385Z" fill="black"/>
<path d="M273.79 31.9385V0H299.637V6.4H306.114V25.5385H299.637V31.9385H273.79ZM286.682 25.5385H292.91V6.4H286.682V25.5385Z" fill="black"/>
</svg>
