<svg width="180" height="180" viewBox="0 0 180 180" fill="none" xmlns="http://www.w3.org/2000/svg">
<path d="M165.047 14.9987V0H14.9987V14.9987H0V164.986H14.9987V180H164.986V164.986H180V14.9987H165.047ZM165.047 105.037H149.987V120.036H134.989V135.05H105.037V149.987H120.036V164.986H60.0255V149.987H74.9936V134.989H45.0115V120.036H30.0128V105.037H14.9987V90.023H60.0255V120.036H74.9936V45.0421H45.0115V74.9936H30.0128V30.0128H45.0115V14.9987H60.0255V30.0128H120.036V14.9987H135.05V30.0128H149.987V74.9936H134.989V45.0115H105.037V120.005H120.036V90.023H165.047V105.037Z" fill="#353535"/>
</svg>
